%
M48
M72
T01C0.02400
T02C0.02756
T03C0.03600
T04C0.04000
T05C0.05906
T06C0.06299
T07C0.13000
%
T01
X128800Y304000
X128800Y327400
X140500Y344500
T02
X139500Y287000
X135500Y287000
X131500Y287000
X127500Y287000
X123500Y287000
X119500Y287000
X114000Y287000
X114000Y291000
X114000Y295000
X114000Y299000
X114000Y303000
X114000Y307000
X114000Y311000
X114000Y315000
X114000Y319000
X114000Y323000
X114000Y327000
X114000Y331000
X114000Y335000
X114000Y339000
X114000Y343000
X114000Y347000
X114000Y351000
X114000Y355000
X114000Y359000
X114000Y363000
X114000Y367000
X114000Y371000
X114000Y375000
X114000Y379000
X114000Y383000
X114000Y387000
X114000Y391000
X114000Y395000
X114000Y399000
X114000Y403000
X114000Y407000
X114000Y411000
X114000Y415000
X114000Y419000
X114000Y423000
X114000Y427000
X114000Y431000
X100000Y428000
X100000Y420000
X100000Y410000
X100000Y400000
X100000Y390000
X90000Y390000
X90000Y400000
X90000Y410000
X90000Y420000
X90000Y428000
X90000Y370000
X90000Y360000
X80000Y360000
X80000Y370000
X70000Y370000
X70000Y360000
X60000Y360000
X60000Y370000
X50000Y370000
X50000Y360000
X43500Y351500
X40000Y360000
X40000Y370000
X40000Y390000
X40000Y400000
X40000Y410000
X40000Y420000
X40000Y428000
X30000Y428000
X30000Y420000
X30000Y410000
X30000Y400000
X30000Y390000
X50000Y390000
X50000Y400000
X50000Y410000
X50000Y420000
X50000Y428000
X55000Y280000
X65000Y280000
X75000Y280000
X74000Y235000
X70000Y235000
X66000Y235000
X62000Y235000
X58000Y235000
X54000Y235000
X50000Y235000
X46000Y235000
X42000Y235000
X38000Y235000
X34000Y235000
X30000Y235000
X27000Y245000
X27000Y255000
X27000Y265000
X27000Y275000
X26000Y235000
X22000Y235000
X37000Y223000
X48000Y197000
X64000Y196000
X78000Y235000
X82000Y235000
X86000Y235000
X90000Y235000
X94000Y235000
X98000Y235000
X102000Y235000
X106000Y235000
X110000Y235000
X105000Y245000
X105000Y255000
X105000Y265000
X105000Y275000
X114000Y275000
X114000Y271000
X114000Y267000
X114000Y263000
X114000Y259000
X114000Y255000
X114000Y251000
X114000Y247000
X114000Y243000
X114000Y239000
X114000Y235000
X118000Y235000
X122000Y235000
X126000Y235000
X130000Y235000
X134000Y235000
X138000Y235000
X142000Y235000
X146000Y235000
X150000Y235000
X154000Y235000
X158000Y235000
X162000Y235000
X166000Y235000
X167500Y287000
X163500Y287000
X159500Y287000
X155500Y287000
X151500Y287000
X147500Y287000
X143500Y287000
X114000Y283000
X114000Y279000
X139000Y126500
X141500Y104000
X151000Y92500
X130500Y55500
X114000Y81000
X105000Y62000
X99000Y92000
X93500Y83000
X85500Y119500
X64000Y115000
X64000Y107500
X52000Y63000
X52000Y58000
X47000Y58000
X47000Y63000
X42000Y63000
X42000Y58000
X37000Y58000
X37000Y63000
X32000Y63000
X32000Y58000
X71000Y57000
X112500Y102500
T03
X114750Y39500
X124750Y39500
X134750Y39500
X156750Y109250
X156750Y119250
X156750Y129250
X156750Y139250
X156750Y149250
X152000Y182500
X142000Y182500
X132000Y182500
X122000Y182500
X112000Y182500
X102000Y182500
X90500Y183500
X90500Y173500
X86000Y252500
X96000Y252500
X76000Y252500
X66000Y252500
X56000Y252500
X46000Y252500
X36000Y252500
X51750Y39500
X61750Y39500
X71750Y39500
X81750Y39500
X91750Y39500
X101750Y39500
X162000Y182500
X155500Y387500
X155500Y397500
X155500Y407500
X155500Y417500
X155500Y427500
T04
X78000Y182000
X68000Y182000
X58000Y182000
X48000Y182000
X38000Y182000
X28000Y182000
T05
X70000Y415000
T06
X80000Y405000
X80000Y425000
X60000Y425000
X60000Y405000
T07
X33000Y38000
X34500Y205500
X155000Y205000
X156500Y38000
M30
