G75*
%MOIN*%
%OFA0B0*%
%FSLAX25Y25*%
%IPPOS*%
%LPD*%
%AMOC8*
5,1,8,0,0,1.08239X$1,22.5*
%
%ADD10R,0.07087X0.06299*%
%ADD11R,0.06299X0.07087*%
%ADD12R,0.18110X0.03937*%
%ADD13R,0.13386X0.06299*%
%ADD14R,0.08661X0.06299*%
%ADD15R,0.03937X0.04331*%
%ADD16R,0.07098X0.06299*%
%ADD17R,0.21260X0.24409*%
%ADD18R,0.03937X0.06299*%
%ADD19R,0.01457X0.03937*%
%ADD20R,0.03937X0.01457*%
%ADD21R,0.06000X0.04000*%
%ADD22R,0.04000X0.06000*%
%ADD23R,0.10236X0.02756*%
%ADD24R,0.10236X0.03150*%
%ADD25R,0.14173X0.03150*%
%ADD26R,0.06299X0.07098*%
D10*
X0038750Y0075738D03*
X0038750Y0086762D03*
X0038750Y0100238D03*
X0038750Y0111262D03*
X0048000Y0111262D03*
X0048000Y0100238D03*
X0048000Y0086762D03*
X0048000Y0075738D03*
X0112250Y0074262D03*
X0112250Y0063238D03*
X0122000Y0063238D03*
X0122000Y0074262D03*
X0132500Y0361488D03*
X0132500Y0372512D03*
D11*
X0128988Y0395500D03*
X0140012Y0395500D03*
X0145988Y0361500D03*
X0157012Y0361500D03*
X0046762Y0258250D03*
X0035738Y0258250D03*
D12*
X0052567Y0141437D03*
X0052567Y0133563D03*
D13*
X0032094Y0124114D03*
X0032094Y0150886D03*
D14*
X0061000Y0100262D03*
X0061000Y0089238D03*
D15*
X0130750Y0069596D03*
X0130750Y0062904D03*
D16*
X0064250Y0062902D03*
X0064250Y0074098D03*
X0135000Y0288402D03*
X0135000Y0299598D03*
X0144500Y0299598D03*
X0144500Y0288402D03*
X0154500Y0288402D03*
X0154500Y0299598D03*
D17*
X0124000Y0154343D03*
X0090500Y0154343D03*
X0151000Y0067657D03*
D18*
X0142024Y0096398D03*
X0132976Y0125602D03*
X0115024Y0125602D03*
X0099476Y0125602D03*
X0081524Y0125602D03*
X0159976Y0096398D03*
D19*
X0100774Y0109142D03*
X0097624Y0109142D03*
X0094474Y0109142D03*
X0091325Y0109142D03*
X0088175Y0109142D03*
X0085026Y0109142D03*
X0081876Y0109142D03*
X0078726Y0109142D03*
X0078726Y0076858D03*
X0081876Y0076858D03*
X0085026Y0076858D03*
X0088175Y0076858D03*
X0091325Y0076858D03*
X0094474Y0076858D03*
X0097624Y0076858D03*
X0100774Y0076858D03*
D20*
X0105892Y0081976D03*
X0105892Y0085126D03*
X0105892Y0088276D03*
X0105892Y0091425D03*
X0105892Y0094575D03*
X0105892Y0097724D03*
X0105892Y0100874D03*
X0105892Y0104024D03*
X0073608Y0104024D03*
X0073608Y0100874D03*
X0073608Y0097724D03*
X0073608Y0094575D03*
X0073608Y0091425D03*
X0073608Y0088276D03*
X0073608Y0085126D03*
X0073608Y0081976D03*
D21*
X0100000Y0271500D03*
X0100000Y0276500D03*
X0100000Y0281500D03*
X0100000Y0286500D03*
X0100000Y0291500D03*
X0100000Y0296500D03*
X0100000Y0301500D03*
X0100000Y0306500D03*
X0100000Y0311500D03*
X0100000Y0316500D03*
X0100000Y0321500D03*
X0100000Y0326500D03*
X0100000Y0331500D03*
X0100000Y0336500D03*
X0100000Y0341500D03*
X0100000Y0346500D03*
X0100000Y0351500D03*
X0100000Y0356500D03*
X0100000Y0361500D03*
X0100000Y0366500D03*
X0030000Y0366500D03*
X0030000Y0361500D03*
X0030000Y0356500D03*
X0030000Y0351500D03*
X0030000Y0346500D03*
X0030000Y0341500D03*
X0030000Y0336500D03*
X0030000Y0331500D03*
X0030000Y0326500D03*
X0030000Y0321500D03*
X0030000Y0316500D03*
X0030000Y0311500D03*
X0030000Y0306500D03*
X0030000Y0301500D03*
X0030000Y0296500D03*
X0030000Y0291500D03*
X0030000Y0286500D03*
X0030000Y0281500D03*
X0030000Y0276500D03*
X0030000Y0271500D03*
D22*
X0050000Y0371500D03*
X0055000Y0371500D03*
X0060000Y0371500D03*
X0065000Y0371500D03*
X0070000Y0371500D03*
X0075000Y0371500D03*
X0080000Y0371500D03*
D23*
X0131992Y0342000D03*
X0131992Y0337000D03*
X0132031Y0332000D03*
X0131992Y0327000D03*
X0131992Y0322000D03*
X0156008Y0322079D03*
X0156008Y0327000D03*
X0156008Y0332000D03*
X0156008Y0337000D03*
X0156008Y0342000D03*
D24*
X0156008Y0353654D03*
X0156008Y0310346D03*
X0131992Y0310346D03*
D25*
X0133961Y0353654D03*
D26*
X0128902Y0382500D03*
X0140098Y0382500D03*
M02*
