G75*
%MOIN*%
%OFA0B0*%
%FSLAX25Y25*%
%IPPOS*%
%LPD*%
%AMOC8*
5,1,8,0,0,1.08239X$1,22.5*
%
%ADD10R,0.09449X0.09449*%
%ADD11R,0.08858X0.08858*%
%ADD12C,0.05600*%
%ADD13C,0.04356*%
%ADD14C,0.01000*%
D10*
X0528958Y0174267D03*
X0548958Y0174267D03*
X0548958Y0194267D03*
X0528958Y0194267D03*
D11*
X0538958Y0184267D03*
D12*
X0619908Y0171767D02*
X0625508Y0171767D01*
X0625508Y0161767D02*
X0619908Y0161767D01*
X0619908Y0151767D02*
X0625508Y0151767D01*
X0660533Y0115517D02*
X0666133Y0115517D01*
X0666133Y0105517D02*
X0660533Y0105517D01*
X0660533Y0095517D02*
X0666133Y0095517D01*
X0666133Y0085517D02*
X0660533Y0085517D01*
X0660533Y0075517D02*
X0666133Y0075517D01*
X0573958Y0022067D02*
X0573958Y0016467D01*
X0563958Y0016467D02*
X0563958Y0022067D01*
X0553958Y0022067D02*
X0553958Y0016467D01*
X0543958Y0016467D02*
X0543958Y0022067D01*
X0533958Y0022067D02*
X0533958Y0016467D01*
X0523958Y0016467D02*
X0523958Y0022067D01*
X0513958Y0022067D02*
X0513958Y0016467D01*
D13*
X0507083Y0129267D03*
D14*
X0507083Y0046142D02*
X0533958Y0019267D01*
X0507083Y0046142D02*
X0507083Y0129267D01*
M02*
