G75*
%MOIN*%
%OFA0B0*%
%FSLAX25Y25*%
%IPPOS*%
%LPD*%
%AMOC8*
5,1,8,0,0,1.08239X$1,22.5*
%
%ADD10C,0.03556*%
%ADD11C,0.06400*%
%ADD12C,0.04800*%
%ADD13R,0.10249X0.10249*%
%ADD14R,0.09658X0.09658*%
%ADD15C,0.13800*%
%ADD16C,0.05156*%
D10*
X0022000Y0225000D03*
X0026000Y0225000D03*
X0030000Y0225000D03*
X0034000Y0225000D03*
X0038000Y0225000D03*
X0042000Y0225000D03*
X0046000Y0225000D03*
X0050000Y0225000D03*
X0054000Y0225000D03*
X0058000Y0225000D03*
X0062000Y0225000D03*
X0066000Y0225000D03*
X0070000Y0225000D03*
X0074000Y0225000D03*
X0078000Y0225000D03*
X0082000Y0225000D03*
X0086000Y0225000D03*
X0090000Y0225000D03*
X0094000Y0225000D03*
X0098000Y0225000D03*
X0102000Y0225000D03*
X0106000Y0225000D03*
X0110000Y0225000D03*
X0114000Y0225000D03*
X0114000Y0229000D03*
X0114000Y0233000D03*
X0114000Y0237000D03*
X0114000Y0241000D03*
X0114000Y0245000D03*
X0114000Y0249000D03*
X0114000Y0253000D03*
X0114000Y0257000D03*
X0114000Y0261000D03*
X0114000Y0265000D03*
X0114000Y0269000D03*
X0114000Y0273000D03*
X0114000Y0277000D03*
X0114000Y0281000D03*
X0114000Y0285000D03*
X0114000Y0289000D03*
X0114000Y0293000D03*
X0114000Y0297000D03*
X0114000Y0301000D03*
X0114000Y0305000D03*
X0114000Y0309000D03*
X0114000Y0313000D03*
X0114000Y0317000D03*
X0114000Y0321000D03*
X0114000Y0325000D03*
X0114000Y0329000D03*
X0114000Y0333000D03*
X0114000Y0337000D03*
X0114000Y0341000D03*
X0114000Y0345000D03*
X0114000Y0349000D03*
X0114000Y0353000D03*
X0114000Y0357000D03*
X0114000Y0361000D03*
X0114000Y0365000D03*
X0114000Y0369000D03*
X0114000Y0373000D03*
X0114000Y0377000D03*
X0114000Y0381000D03*
X0114000Y0385000D03*
X0114000Y0389000D03*
X0114000Y0393000D03*
X0114000Y0397000D03*
X0114000Y0401000D03*
X0114000Y0405000D03*
X0114000Y0409000D03*
X0114000Y0413000D03*
X0114000Y0417000D03*
X0114000Y0421000D03*
X0119500Y0277000D03*
X0123500Y0277000D03*
X0127500Y0277000D03*
X0131500Y0277000D03*
X0135500Y0277000D03*
X0139500Y0277000D03*
X0143500Y0277000D03*
X0147500Y0277000D03*
X0151500Y0277000D03*
X0155500Y0277000D03*
X0159500Y0277000D03*
X0163500Y0277000D03*
X0167500Y0277000D03*
X0166000Y0225000D03*
X0162000Y0225000D03*
X0158000Y0225000D03*
X0154000Y0225000D03*
X0150000Y0225000D03*
X0146000Y0225000D03*
X0142000Y0225000D03*
X0138000Y0225000D03*
X0134000Y0225000D03*
X0130000Y0225000D03*
X0126000Y0225000D03*
X0122000Y0225000D03*
X0118000Y0225000D03*
D11*
X0122000Y0185300D02*
X0122000Y0179700D01*
X0112000Y0179700D02*
X0112000Y0185300D01*
X0102000Y0185300D02*
X0102000Y0179700D01*
X0088750Y0179700D02*
X0088750Y0185300D01*
X0078750Y0185300D02*
X0078750Y0179700D01*
X0068750Y0179700D02*
X0068750Y0185300D01*
X0058750Y0185300D02*
X0058750Y0179700D01*
X0048750Y0179700D02*
X0048750Y0185300D01*
X0038750Y0185300D02*
X0038750Y0179700D01*
X0028750Y0179700D02*
X0028750Y0185300D01*
X0036000Y0239700D02*
X0036000Y0245300D01*
X0046000Y0245300D02*
X0046000Y0239700D01*
X0056000Y0239700D02*
X0056000Y0245300D01*
X0066000Y0245300D02*
X0066000Y0239700D01*
X0076000Y0239700D02*
X0076000Y0245300D01*
X0086000Y0245300D02*
X0086000Y0239700D01*
X0096000Y0239700D02*
X0096000Y0245300D01*
X0132000Y0185300D02*
X0132000Y0179700D01*
X0142000Y0179700D02*
X0142000Y0185300D01*
X0152000Y0185300D02*
X0152000Y0179700D01*
X0162000Y0179700D02*
X0162000Y0185300D01*
X0159550Y0149250D02*
X0153950Y0149250D01*
X0153950Y0139250D02*
X0159550Y0139250D01*
X0159550Y0129250D02*
X0153950Y0129250D01*
X0153950Y0119250D02*
X0159550Y0119250D01*
X0159550Y0109250D02*
X0153950Y0109250D01*
X0134750Y0042300D02*
X0134750Y0036700D01*
X0124750Y0036700D02*
X0124750Y0042300D01*
X0114750Y0042300D02*
X0114750Y0036700D01*
X0101750Y0036700D02*
X0101750Y0042300D01*
X0091750Y0042300D02*
X0091750Y0036700D01*
X0081750Y0036700D02*
X0081750Y0042300D01*
X0071750Y0042300D02*
X0071750Y0036700D01*
X0061750Y0036700D02*
X0061750Y0042300D01*
X0051750Y0042300D02*
X0051750Y0036700D01*
X0152700Y0377500D02*
X0158300Y0377500D01*
X0158300Y0387500D02*
X0152700Y0387500D01*
X0152700Y0397500D02*
X0158300Y0397500D01*
X0158300Y0407500D02*
X0152700Y0407500D01*
X0152700Y0417500D02*
X0158300Y0417500D01*
D12*
X0029500Y0057000D03*
X0029500Y0062000D03*
X0034500Y0062000D03*
X0034500Y0057000D03*
X0039500Y0057000D03*
X0039500Y0062000D03*
X0044500Y0062000D03*
X0044500Y0057000D03*
X0049500Y0057000D03*
X0049500Y0062000D03*
X0128800Y0294000D03*
X0128800Y0317400D03*
X0140500Y0334500D03*
D13*
X0080000Y0395000D03*
X0080000Y0415000D03*
X0060000Y0415000D03*
X0060000Y0395000D03*
D14*
X0070000Y0405000D03*
D15*
X0034500Y0205500D03*
X0033000Y0038000D03*
X0155000Y0205000D03*
X0156500Y0038000D03*
D16*
X0151000Y0092500D03*
X0134500Y0105000D03*
X0125000Y0125000D03*
X0112500Y0102500D03*
X0097000Y0094000D03*
X0093500Y0083000D03*
X0105000Y0062000D03*
X0085500Y0119500D03*
X0064000Y0107500D03*
X0060000Y0115000D03*
X0064000Y0081500D03*
X0071000Y0057000D03*
X0130500Y0055500D03*
X0105000Y0235000D03*
X0105000Y0245000D03*
X0105000Y0255000D03*
X0105000Y0265000D03*
X0075000Y0270000D03*
X0065000Y0270000D03*
X0055000Y0270000D03*
X0027000Y0265000D03*
X0027000Y0255000D03*
X0027000Y0245000D03*
X0027000Y0235000D03*
X0043500Y0341500D03*
X0040000Y0350000D03*
X0040000Y0360000D03*
X0040000Y0380000D03*
X0040000Y0390000D03*
X0040000Y0400000D03*
X0040000Y0410000D03*
X0040000Y0418000D03*
X0030000Y0418000D03*
X0030000Y0410000D03*
X0030000Y0400000D03*
X0030000Y0390000D03*
X0030000Y0380000D03*
X0050000Y0380000D03*
X0050000Y0390000D03*
X0050000Y0400000D03*
X0050000Y0410000D03*
X0050000Y0418000D03*
X0050000Y0360000D03*
X0050000Y0350000D03*
X0060000Y0350000D03*
X0060000Y0360000D03*
X0070000Y0360000D03*
X0070000Y0350000D03*
X0080000Y0350000D03*
X0080000Y0360000D03*
X0090000Y0360000D03*
X0090000Y0350000D03*
X0090000Y0380000D03*
X0090000Y0390000D03*
X0090000Y0400000D03*
X0090000Y0410000D03*
X0090000Y0418000D03*
X0100000Y0418000D03*
X0100000Y0410000D03*
X0100000Y0400000D03*
X0100000Y0390000D03*
X0100000Y0380000D03*
M02*
