G75*
%MOIN*%
%OFA0B0*%
%FSLAX25Y25*%
%IPPOS*%
%LPD*%
%AMOC8*
5,1,8,0,0,1.08239X$1,22.5*
%
%ADD10C,0.00200*%
%ADD11C,0.00300*%
%ADD12C,0.00400*%
%ADD13C,0.01000*%
%ADD14C,0.00500*%
%ADD15C,0.00600*%
D10*
X0599058Y0170617D02*
X0599058Y0172819D01*
X0600159Y0172819D01*
X0600526Y0172452D01*
X0600526Y0171718D01*
X0600159Y0171351D01*
X0599058Y0171351D01*
X0601268Y0170617D02*
X0602002Y0170617D01*
X0601635Y0170617D02*
X0601635Y0172819D01*
X0601268Y0172819D02*
X0602002Y0172819D01*
X0602741Y0172819D02*
X0603842Y0172819D01*
X0604209Y0172452D01*
X0604209Y0171718D01*
X0603842Y0171351D01*
X0602741Y0171351D01*
X0602741Y0170617D02*
X0602741Y0172819D01*
X0603475Y0171351D02*
X0604209Y0170617D01*
X0604951Y0170250D02*
X0606419Y0170250D01*
X0607161Y0170984D02*
X0607528Y0170617D01*
X0608262Y0170617D01*
X0608629Y0170984D01*
X0608629Y0172452D01*
X0608262Y0172819D01*
X0607528Y0172819D01*
X0607161Y0172452D01*
X0607161Y0170984D01*
X0609371Y0170984D02*
X0609371Y0172819D01*
X0610839Y0172819D02*
X0610839Y0170984D01*
X0610472Y0170617D01*
X0609738Y0170617D01*
X0609371Y0170984D01*
X0611581Y0172819D02*
X0613049Y0172819D01*
X0612315Y0172819D02*
X0612315Y0170617D01*
X0611454Y0162819D02*
X0610720Y0162819D01*
X0610353Y0162452D01*
X0610353Y0160984D01*
X0610720Y0160617D01*
X0611454Y0160617D01*
X0611821Y0160984D01*
X0611821Y0162452D02*
X0611454Y0162819D01*
X0609611Y0162452D02*
X0609244Y0162819D01*
X0608510Y0162819D01*
X0608143Y0162452D01*
X0608143Y0160984D01*
X0608510Y0160617D01*
X0609244Y0160617D01*
X0609611Y0160984D01*
X0607401Y0161351D02*
X0607401Y0162819D01*
X0605933Y0162819D02*
X0605933Y0161351D01*
X0606667Y0160617D01*
X0607401Y0161351D01*
X0607034Y0153444D02*
X0606300Y0153444D01*
X0605933Y0153077D01*
X0605933Y0151609D01*
X0606300Y0151242D01*
X0607034Y0151242D01*
X0607401Y0151609D01*
X0607401Y0152343D01*
X0606667Y0152343D01*
X0607401Y0153077D02*
X0607034Y0153444D01*
X0608143Y0153444D02*
X0609611Y0151242D01*
X0609611Y0153444D01*
X0610353Y0153444D02*
X0611454Y0153444D01*
X0611821Y0153077D01*
X0611821Y0151609D01*
X0611454Y0151242D01*
X0610353Y0151242D01*
X0610353Y0153444D01*
X0608143Y0153444D02*
X0608143Y0151242D01*
X0642906Y0153742D02*
X0642906Y0154843D01*
X0643273Y0155210D01*
X0644007Y0155210D01*
X0644374Y0154843D01*
X0644374Y0153742D01*
X0645108Y0153742D02*
X0642906Y0153742D01*
X0642906Y0155952D02*
X0642906Y0156685D01*
X0642906Y0156319D02*
X0645108Y0156319D01*
X0645108Y0156685D02*
X0645108Y0155952D01*
X0645108Y0157425D02*
X0642906Y0157425D01*
X0642906Y0158526D01*
X0643273Y0158893D01*
X0644007Y0158893D01*
X0644374Y0158526D01*
X0644374Y0157425D01*
X0644374Y0158159D02*
X0645108Y0158893D01*
X0645108Y0161845D02*
X0645108Y0162945D01*
X0644741Y0163312D01*
X0644374Y0163312D01*
X0644007Y0162945D01*
X0644007Y0161845D01*
X0644007Y0162945D02*
X0643640Y0163312D01*
X0643273Y0163312D01*
X0642906Y0162945D01*
X0642906Y0161845D01*
X0645108Y0161845D01*
X0645108Y0164054D02*
X0643640Y0164054D01*
X0644374Y0164054D02*
X0643640Y0164788D01*
X0643640Y0165155D01*
X0644007Y0165896D02*
X0643640Y0166263D01*
X0643640Y0166997D01*
X0644007Y0167364D01*
X0644374Y0167364D01*
X0644374Y0165896D01*
X0644741Y0165896D02*
X0644007Y0165896D01*
X0644741Y0165896D02*
X0645108Y0166263D01*
X0645108Y0166997D01*
X0644741Y0168106D02*
X0644374Y0168473D01*
X0644374Y0169574D01*
X0644007Y0169574D02*
X0645108Y0169574D01*
X0645108Y0168473D01*
X0644741Y0168106D01*
X0643640Y0168473D02*
X0643640Y0169207D01*
X0644007Y0169574D01*
X0644374Y0170316D02*
X0643640Y0171417D01*
X0644007Y0172157D02*
X0644741Y0172157D01*
X0645108Y0172524D01*
X0645108Y0173258D01*
X0644741Y0173625D01*
X0644007Y0173625D01*
X0643640Y0173258D01*
X0643640Y0172524D01*
X0644007Y0172157D01*
X0645108Y0171417D02*
X0644374Y0170316D01*
X0645108Y0170316D02*
X0642906Y0170316D01*
X0643640Y0174367D02*
X0644741Y0174367D01*
X0645108Y0174734D01*
X0645108Y0175835D01*
X0643640Y0175835D01*
X0643640Y0176577D02*
X0643640Y0177311D01*
X0643273Y0176944D02*
X0644741Y0176944D01*
X0645108Y0177311D01*
X0519324Y0189367D02*
X0518957Y0189734D01*
X0518957Y0191202D01*
X0518590Y0190835D02*
X0519324Y0190835D01*
X0517848Y0190835D02*
X0517848Y0189367D01*
X0516747Y0189367D01*
X0516380Y0189734D01*
X0516380Y0190835D01*
X0515638Y0190468D02*
X0515271Y0190835D01*
X0514537Y0190835D01*
X0514171Y0190468D01*
X0514171Y0189734D01*
X0514537Y0189367D01*
X0515271Y0189367D01*
X0515638Y0189734D01*
X0515638Y0190468D01*
X0513430Y0190835D02*
X0512329Y0190101D01*
X0513430Y0189367D01*
X0512329Y0189367D02*
X0512329Y0191569D01*
X0511587Y0190468D02*
X0511587Y0189367D01*
X0510486Y0189367D01*
X0510119Y0189734D01*
X0510486Y0190101D01*
X0511587Y0190101D01*
X0511587Y0190468D02*
X0511220Y0190835D01*
X0510486Y0190835D01*
X0509377Y0190468D02*
X0509377Y0190101D01*
X0507909Y0190101D01*
X0507909Y0189734D02*
X0507909Y0190468D01*
X0508276Y0190835D01*
X0509010Y0190835D01*
X0509377Y0190468D01*
X0509010Y0189367D02*
X0508276Y0189367D01*
X0507909Y0189734D01*
X0507169Y0190835D02*
X0506802Y0190835D01*
X0506068Y0190101D01*
X0506068Y0189367D02*
X0506068Y0190835D01*
X0505326Y0190835D02*
X0504959Y0190468D01*
X0503858Y0190468D01*
X0503858Y0191569D02*
X0504959Y0191569D01*
X0505326Y0191202D01*
X0505326Y0190835D01*
X0504959Y0190468D02*
X0505326Y0190101D01*
X0505326Y0189734D01*
X0504959Y0189367D01*
X0503858Y0189367D01*
X0503858Y0191569D01*
X0500906Y0190468D02*
X0500906Y0189367D01*
X0499805Y0189367D01*
X0499438Y0189734D01*
X0499805Y0190101D01*
X0500906Y0190101D01*
X0500906Y0190468D02*
X0500539Y0190835D01*
X0499805Y0190835D01*
X0498696Y0191202D02*
X0498696Y0190468D01*
X0498329Y0190101D01*
X0497228Y0190101D01*
X0497962Y0190101D02*
X0498696Y0189367D01*
X0497228Y0189367D02*
X0497228Y0191569D01*
X0498329Y0191569D01*
X0498696Y0191202D01*
X0496486Y0190468D02*
X0496486Y0189734D01*
X0496119Y0189367D01*
X0495385Y0189367D01*
X0495018Y0189734D01*
X0495018Y0190468D01*
X0495385Y0190835D01*
X0496119Y0190835D01*
X0496486Y0190468D01*
X0494276Y0189367D02*
X0492808Y0189367D01*
X0492808Y0191569D01*
X0600933Y0111827D02*
X0600933Y0110359D01*
X0601300Y0109992D01*
X0602034Y0109992D01*
X0602401Y0110359D01*
X0602401Y0111093D01*
X0601667Y0111093D01*
X0600933Y0111827D02*
X0601300Y0112194D01*
X0602034Y0112194D01*
X0602401Y0111827D01*
X0603143Y0111460D02*
X0603143Y0109992D01*
X0603143Y0110726D02*
X0603877Y0111460D01*
X0604244Y0111460D01*
X0604985Y0111460D02*
X0605352Y0111460D01*
X0605352Y0109992D01*
X0604985Y0109992D02*
X0605719Y0109992D01*
X0606458Y0110359D02*
X0606458Y0111093D01*
X0606825Y0111460D01*
X0607926Y0111460D01*
X0607926Y0112194D02*
X0607926Y0109992D01*
X0606825Y0109992D01*
X0606458Y0110359D01*
X0605352Y0112194D02*
X0605352Y0112561D01*
X0608668Y0111093D02*
X0610136Y0111093D01*
X0610878Y0111093D02*
X0611612Y0111093D01*
X0612346Y0112194D02*
X0610878Y0112194D01*
X0610878Y0109992D01*
X0612346Y0109992D01*
X0613822Y0109992D02*
X0613822Y0111093D01*
X0614556Y0111827D01*
X0614556Y0112194D01*
X0615298Y0112194D02*
X0615298Y0109992D01*
X0616765Y0109992D01*
X0616032Y0111093D02*
X0615298Y0111093D01*
X0615298Y0112194D02*
X0616765Y0112194D01*
X0619717Y0112194D02*
X0620818Y0112194D01*
X0621185Y0111827D01*
X0621185Y0111460D01*
X0620818Y0111093D01*
X0619717Y0111093D01*
X0619717Y0109992D02*
X0619717Y0112194D01*
X0620818Y0111093D02*
X0621185Y0110726D01*
X0621185Y0110359D01*
X0620818Y0109992D01*
X0619717Y0109992D01*
X0621927Y0109992D02*
X0621927Y0111460D01*
X0622661Y0111460D02*
X0623028Y0111460D01*
X0622661Y0111460D02*
X0621927Y0110726D01*
X0623769Y0110726D02*
X0625237Y0110726D01*
X0625237Y0111093D01*
X0624870Y0111460D01*
X0624136Y0111460D01*
X0623769Y0111093D01*
X0623769Y0110359D01*
X0624136Y0109992D01*
X0624870Y0109992D01*
X0625979Y0110359D02*
X0626346Y0110726D01*
X0627447Y0110726D01*
X0627447Y0111093D02*
X0627447Y0109992D01*
X0626346Y0109992D01*
X0625979Y0110359D01*
X0626346Y0111460D02*
X0627080Y0111460D01*
X0627447Y0111093D01*
X0628189Y0110726D02*
X0629289Y0111460D01*
X0630030Y0111093D02*
X0630030Y0110359D01*
X0630397Y0109992D01*
X0631131Y0109992D01*
X0631498Y0110359D01*
X0631498Y0111093D01*
X0631131Y0111460D01*
X0630397Y0111460D01*
X0630030Y0111093D01*
X0629289Y0109992D02*
X0628189Y0110726D01*
X0628189Y0109992D02*
X0628189Y0112194D01*
X0632240Y0111460D02*
X0632240Y0110359D01*
X0632607Y0109992D01*
X0633708Y0109992D01*
X0633708Y0111460D01*
X0634450Y0111460D02*
X0635184Y0111460D01*
X0634817Y0111827D02*
X0634817Y0110359D01*
X0635184Y0109992D01*
X0613822Y0111093D02*
X0613088Y0111827D01*
X0613088Y0112194D01*
D11*
X0641608Y0113167D02*
X0642843Y0113167D01*
X0642226Y0113167D02*
X0642226Y0116870D01*
X0642843Y0116870D02*
X0641608Y0116870D01*
X0644064Y0116870D02*
X0646533Y0113167D01*
X0646533Y0116870D01*
X0647747Y0116870D02*
X0650216Y0116870D01*
X0648981Y0116870D02*
X0648981Y0113167D01*
X0644064Y0113167D02*
X0644064Y0116870D01*
X0643460Y0107495D02*
X0642226Y0107495D01*
X0641608Y0106878D01*
X0641608Y0106260D01*
X0642226Y0105643D01*
X0643460Y0105643D01*
X0644077Y0105026D01*
X0644077Y0104409D01*
X0643460Y0103792D01*
X0642226Y0103792D01*
X0641608Y0104409D01*
X0645291Y0104409D02*
X0645909Y0103792D01*
X0647143Y0103792D01*
X0647760Y0104409D01*
X0648975Y0103792D02*
X0651443Y0103792D01*
X0648975Y0103792D02*
X0648975Y0107495D01*
X0647760Y0106878D02*
X0647143Y0107495D01*
X0645909Y0107495D01*
X0645291Y0106878D01*
X0645291Y0104409D01*
X0644077Y0106878D02*
X0643460Y0107495D01*
X0643460Y0096870D02*
X0642226Y0096870D01*
X0641608Y0096253D01*
X0641608Y0095635D01*
X0642226Y0095018D01*
X0643460Y0095018D01*
X0644077Y0094401D01*
X0644077Y0093784D01*
X0643460Y0093167D01*
X0642226Y0093167D01*
X0641608Y0093784D01*
X0645291Y0093167D02*
X0647143Y0093167D01*
X0647760Y0093784D01*
X0647760Y0096253D01*
X0647143Y0096870D01*
X0645291Y0096870D01*
X0645291Y0093167D01*
X0648975Y0093167D02*
X0648975Y0095635D01*
X0650209Y0096870D01*
X0651443Y0095635D01*
X0651443Y0093167D01*
X0651443Y0095018D02*
X0648975Y0095018D01*
X0644077Y0096253D02*
X0643460Y0096870D01*
X0644077Y0086870D02*
X0644077Y0084401D01*
X0642843Y0083167D01*
X0641608Y0084401D01*
X0641608Y0086870D01*
X0645291Y0086253D02*
X0645291Y0083784D01*
X0645909Y0083167D01*
X0647143Y0083167D01*
X0647760Y0083784D01*
X0648975Y0083784D02*
X0649592Y0083167D01*
X0650826Y0083167D01*
X0651443Y0083784D01*
X0648975Y0083784D02*
X0648975Y0086253D01*
X0649592Y0086870D01*
X0650826Y0086870D01*
X0651443Y0086253D01*
X0647760Y0086253D02*
X0647143Y0086870D01*
X0645909Y0086870D01*
X0645291Y0086253D01*
X0645291Y0076870D02*
X0647760Y0073167D01*
X0647760Y0076870D01*
X0648975Y0076870D02*
X0650826Y0076870D01*
X0651443Y0076253D01*
X0651443Y0073784D01*
X0650826Y0073167D01*
X0648975Y0073167D01*
X0648975Y0076870D01*
X0645291Y0076870D02*
X0645291Y0073167D01*
X0644077Y0073784D02*
X0643460Y0073167D01*
X0642226Y0073167D01*
X0641608Y0073784D01*
X0641608Y0076253D01*
X0642226Y0076870D01*
X0643460Y0076870D01*
X0644077Y0076253D01*
X0644077Y0075018D02*
X0642843Y0075018D01*
X0644077Y0075018D02*
X0644077Y0073784D01*
X0575058Y0041135D02*
X0575058Y0039900D01*
X0574441Y0039283D01*
X0573207Y0039900D02*
X0573207Y0041135D01*
X0573824Y0041752D01*
X0574441Y0041752D01*
X0575058Y0041135D01*
X0573207Y0039900D02*
X0572590Y0039283D01*
X0571972Y0039283D01*
X0571355Y0039900D01*
X0571355Y0041135D01*
X0571972Y0041752D01*
X0571355Y0038069D02*
X0571355Y0035600D01*
X0571355Y0036834D02*
X0575058Y0036834D01*
X0575058Y0034385D02*
X0573824Y0033151D01*
X0573824Y0033768D02*
X0573824Y0031917D01*
X0575058Y0031917D02*
X0571355Y0031917D01*
X0571355Y0033768D01*
X0571972Y0034385D01*
X0573207Y0034385D01*
X0573824Y0033768D01*
X0565058Y0033768D02*
X0565058Y0032534D01*
X0564441Y0031917D01*
X0561972Y0031917D01*
X0561355Y0032534D01*
X0561355Y0033768D01*
X0561972Y0034385D01*
X0561355Y0035600D02*
X0561355Y0038069D01*
X0561355Y0036834D02*
X0565058Y0036834D01*
X0564441Y0034385D02*
X0565058Y0033768D01*
X0555058Y0033151D02*
X0551355Y0033151D01*
X0551355Y0031917D02*
X0551355Y0034385D01*
X0551355Y0035600D02*
X0555058Y0038069D01*
X0555058Y0035600D02*
X0551355Y0038069D01*
X0545058Y0038069D02*
X0541355Y0035600D01*
X0541972Y0034385D02*
X0543207Y0034385D01*
X0543824Y0033768D01*
X0543824Y0031917D01*
X0543824Y0033151D02*
X0545058Y0034385D01*
X0545058Y0035600D02*
X0541355Y0038069D01*
X0535058Y0037451D02*
X0535058Y0036217D01*
X0534441Y0035600D01*
X0535058Y0034385D02*
X0533824Y0033151D01*
X0533824Y0033768D02*
X0533824Y0031917D01*
X0535058Y0031917D02*
X0531355Y0031917D01*
X0531355Y0033768D01*
X0531972Y0034385D01*
X0533207Y0034385D01*
X0533824Y0033768D01*
X0532590Y0035600D02*
X0533207Y0036217D01*
X0533207Y0037451D01*
X0533824Y0038069D01*
X0534441Y0038069D01*
X0535058Y0037451D01*
X0532590Y0035600D02*
X0531972Y0035600D01*
X0531355Y0036217D01*
X0531355Y0037451D01*
X0531972Y0038069D01*
X0531355Y0039283D02*
X0531355Y0041752D01*
X0531355Y0040517D02*
X0535058Y0040517D01*
X0535676Y0042966D02*
X0535676Y0045435D01*
X0535058Y0046649D02*
X0531355Y0046649D01*
X0535058Y0049118D01*
X0531355Y0049118D01*
X0524441Y0041752D02*
X0521972Y0041752D01*
X0521355Y0041135D01*
X0521355Y0039283D01*
X0525058Y0039283D01*
X0525058Y0041135D01*
X0524441Y0041752D01*
X0525058Y0038069D02*
X0521355Y0038069D01*
X0521355Y0035600D02*
X0525058Y0038069D01*
X0525058Y0035600D02*
X0521355Y0035600D01*
X0521972Y0034385D02*
X0521355Y0033768D01*
X0521355Y0032534D01*
X0521972Y0031917D01*
X0524441Y0031917D01*
X0525058Y0032534D01*
X0525058Y0033768D01*
X0524441Y0034385D01*
X0523207Y0034385D01*
X0523207Y0033151D01*
X0515683Y0033151D02*
X0514449Y0034385D01*
X0511980Y0034385D01*
X0512597Y0035600D02*
X0511980Y0036217D01*
X0511980Y0037451D01*
X0512597Y0038069D01*
X0512597Y0039283D02*
X0515066Y0039283D01*
X0515683Y0039900D01*
X0515683Y0041135D01*
X0515066Y0041752D01*
X0512597Y0041752D02*
X0511980Y0041135D01*
X0511980Y0039900D01*
X0512597Y0039283D01*
X0515066Y0038069D02*
X0515683Y0037451D01*
X0515683Y0036217D01*
X0515066Y0035600D01*
X0512597Y0035600D01*
X0511980Y0031917D02*
X0514449Y0031917D01*
X0515683Y0033151D01*
X0541355Y0033768D02*
X0541355Y0031917D01*
X0545058Y0031917D01*
X0541972Y0034385D02*
X0541355Y0033768D01*
X0561355Y0039900D02*
X0561972Y0039283D01*
X0562590Y0039283D01*
X0563207Y0039900D01*
X0563207Y0041135D01*
X0563824Y0041752D01*
X0564441Y0041752D01*
X0565058Y0041135D01*
X0565058Y0039900D01*
X0564441Y0039283D01*
X0561355Y0039900D02*
X0561355Y0041135D01*
X0561972Y0041752D01*
X0562068Y0160667D02*
X0559600Y0160667D01*
X0562068Y0163135D01*
X0562068Y0163753D01*
X0561451Y0164370D01*
X0560217Y0164370D01*
X0559600Y0163753D01*
X0558385Y0164370D02*
X0558385Y0160667D01*
X0555916Y0164370D01*
X0555916Y0160667D01*
X0554702Y0160667D02*
X0553468Y0161901D01*
X0554085Y0161901D02*
X0552233Y0161901D01*
X0552233Y0160667D02*
X0552233Y0164370D01*
X0554085Y0164370D01*
X0554702Y0163753D01*
X0554702Y0162518D01*
X0554085Y0161901D01*
X0563283Y0161284D02*
X0563900Y0160667D01*
X0565134Y0160667D01*
X0565752Y0161284D01*
X0565752Y0163753D01*
X0565134Y0164370D01*
X0563900Y0164370D01*
X0563283Y0163753D01*
X0563283Y0163135D01*
X0563900Y0162518D01*
X0565752Y0162518D01*
X0566966Y0161284D02*
X0567583Y0160667D01*
X0568817Y0160667D01*
X0569435Y0161284D01*
X0569435Y0163753D01*
X0566966Y0161284D01*
X0566966Y0163753D01*
X0567583Y0164370D01*
X0568817Y0164370D01*
X0569435Y0163753D01*
X0570649Y0163753D02*
X0571266Y0164370D01*
X0572501Y0164370D01*
X0573118Y0163753D01*
X0573118Y0163135D01*
X0572501Y0162518D01*
X0573118Y0161901D01*
X0573118Y0161284D01*
X0572501Y0160667D01*
X0571266Y0160667D01*
X0570649Y0161284D01*
X0571883Y0162518D02*
X0572501Y0162518D01*
D12*
X0635429Y0169467D02*
X0635429Y0170335D01*
X0640633Y0170335D01*
X0640633Y0171202D02*
X0640633Y0169467D01*
X0640633Y0167780D02*
X0637164Y0167780D01*
X0640633Y0167780D02*
X0640633Y0165178D01*
X0639766Y0164311D01*
X0637164Y0164311D01*
X0637164Y0162624D02*
X0637164Y0160022D01*
X0638031Y0159154D01*
X0639766Y0159154D01*
X0640633Y0160022D01*
X0640633Y0162624D01*
X0640633Y0157468D02*
X0640633Y0154865D01*
X0639766Y0153998D01*
X0638031Y0153998D01*
X0637164Y0154865D01*
X0637164Y0157468D01*
X0636296Y0152311D02*
X0635429Y0151444D01*
X0635429Y0149709D01*
X0636296Y0148842D01*
X0639766Y0148842D01*
X0640633Y0149709D01*
X0640633Y0151444D01*
X0639766Y0152311D01*
X0636296Y0152311D01*
X0638031Y0172905D02*
X0639766Y0172905D01*
X0640633Y0173772D01*
X0640633Y0175507D01*
X0639766Y0176374D01*
X0638031Y0176374D01*
X0637164Y0175507D01*
X0637164Y0173772D01*
X0638031Y0172905D01*
X0637164Y0178061D02*
X0639766Y0178061D01*
X0640633Y0178929D01*
X0639766Y0179796D01*
X0640633Y0180663D01*
X0639766Y0181531D01*
X0637164Y0181531D01*
X0521848Y0194709D02*
X0520980Y0193842D01*
X0520113Y0194709D01*
X0519245Y0193842D01*
X0518378Y0194709D01*
X0518378Y0197311D01*
X0516691Y0196444D02*
X0515824Y0197311D01*
X0514089Y0197311D01*
X0513222Y0196444D01*
X0513222Y0194709D01*
X0514089Y0193842D01*
X0515824Y0193842D01*
X0516691Y0194709D01*
X0516691Y0196444D01*
X0521848Y0197311D02*
X0521848Y0194709D01*
X0511519Y0193842D02*
X0509784Y0193842D01*
X0510651Y0193842D02*
X0510651Y0199046D01*
X0509784Y0199046D01*
X0508097Y0197311D02*
X0508097Y0193842D01*
X0505495Y0193842D01*
X0504628Y0194709D01*
X0504628Y0197311D01*
X0502941Y0197311D02*
X0500339Y0197311D01*
X0499471Y0196444D01*
X0499471Y0194709D01*
X0500339Y0193842D01*
X0502941Y0193842D01*
X0497784Y0193842D02*
X0495182Y0193842D01*
X0494315Y0194709D01*
X0494315Y0196444D01*
X0495182Y0197311D01*
X0497784Y0197311D01*
X0492628Y0198179D02*
X0491761Y0199046D01*
X0490026Y0199046D01*
X0489158Y0198179D01*
X0489158Y0194709D01*
X0490026Y0193842D01*
X0491761Y0193842D01*
X0492628Y0194709D01*
X0492628Y0198179D01*
X0600408Y0119429D02*
X0600408Y0115959D01*
X0601276Y0115092D01*
X0603011Y0115092D01*
X0603878Y0115959D01*
X0603878Y0119429D01*
X0603011Y0120296D01*
X0601276Y0120296D01*
X0600408Y0119429D01*
X0605565Y0117694D02*
X0605565Y0115959D01*
X0606432Y0115092D01*
X0609034Y0115092D01*
X0610721Y0115959D02*
X0611589Y0115092D01*
X0614191Y0115092D01*
X0615878Y0115959D02*
X0615878Y0118561D01*
X0614191Y0118561D02*
X0611589Y0118561D01*
X0610721Y0117694D01*
X0610721Y0115959D01*
X0609034Y0118561D02*
X0606432Y0118561D01*
X0605565Y0117694D01*
X0615878Y0115959D02*
X0616745Y0115092D01*
X0619347Y0115092D01*
X0619347Y0118561D01*
X0621034Y0120296D02*
X0621901Y0120296D01*
X0621901Y0115092D01*
X0621034Y0115092D02*
X0622769Y0115092D01*
X0624472Y0115959D02*
X0625339Y0115092D01*
X0627074Y0115092D01*
X0627941Y0115959D01*
X0627941Y0117694D01*
X0627074Y0118561D01*
X0625339Y0118561D01*
X0624472Y0117694D01*
X0624472Y0115959D01*
X0629628Y0115959D02*
X0629628Y0118561D01*
X0629628Y0115959D02*
X0630495Y0115092D01*
X0631363Y0115959D01*
X0632230Y0115092D01*
X0633098Y0115959D01*
X0633098Y0118561D01*
D13*
X0611458Y0180517D02*
X0603333Y0180517D01*
X0602708Y0201767D02*
X0611458Y0201767D01*
D14*
X0627793Y0173420D02*
X0627793Y0170017D01*
X0628927Y0170017D02*
X0626658Y0170017D01*
X0626658Y0172285D02*
X0627793Y0173420D01*
X0668418Y0117170D02*
X0668418Y0113767D01*
X0669552Y0113767D02*
X0667283Y0113767D01*
X0667283Y0116035D02*
X0668418Y0117170D01*
X0636581Y0082953D02*
X0605085Y0082953D01*
X0605085Y0039331D01*
X0636581Y0039331D01*
X0636581Y0082953D01*
X0625951Y0058386D02*
X0615715Y0058386D01*
X0615715Y0048150D01*
X0625951Y0048150D01*
X0625951Y0058386D01*
X0575608Y0014494D02*
X0575608Y0012226D01*
X0575608Y0013360D02*
X0572205Y0013360D01*
X0573340Y0012226D01*
D15*
X0512958Y0009267D02*
X0509958Y0009267D01*
X0509958Y0012267D01*
X0509958Y0025267D01*
X0509958Y0026267D01*
X0511458Y0026267D01*
X0511458Y0025267D01*
X0511458Y0024267D01*
X0516458Y0024267D01*
X0516458Y0025267D01*
X0517958Y0025267D01*
X0517958Y0012767D01*
X0517458Y0012267D01*
X0509958Y0012267D01*
X0512958Y0009267D02*
X0512958Y0008767D01*
X0514958Y0008767D01*
X0514958Y0009267D01*
X0517958Y0009267D01*
X0517958Y0009767D01*
X0519958Y0009767D01*
X0519958Y0009267D01*
X0522958Y0009267D01*
X0522958Y0008767D01*
X0524958Y0008767D01*
X0524958Y0009267D01*
X0527958Y0009267D01*
X0527958Y0009767D01*
X0529958Y0009767D01*
X0529958Y0009267D01*
X0532958Y0009267D01*
X0532958Y0008767D01*
X0534958Y0008767D01*
X0534958Y0009267D01*
X0537958Y0009267D01*
X0537958Y0009767D01*
X0539958Y0009767D01*
X0539958Y0009267D01*
X0542958Y0009267D01*
X0542958Y0008767D01*
X0544958Y0008767D01*
X0544958Y0009267D01*
X0547958Y0009267D01*
X0547958Y0009767D01*
X0549958Y0009767D01*
X0549958Y0009267D01*
X0552958Y0009267D01*
X0552958Y0008767D01*
X0554958Y0008767D01*
X0554958Y0009267D01*
X0557958Y0009267D01*
X0557958Y0009767D01*
X0559958Y0009767D01*
X0559958Y0009267D01*
X0562958Y0009267D01*
X0562958Y0008767D01*
X0564958Y0008767D01*
X0564958Y0009267D01*
X0567958Y0009267D01*
X0567958Y0009767D01*
X0569958Y0009767D01*
X0569958Y0009267D01*
X0572958Y0009267D01*
X0572958Y0008767D01*
X0574958Y0008767D01*
X0574958Y0009267D01*
X0577958Y0009267D01*
X0577958Y0012267D01*
X0570458Y0012267D01*
X0569958Y0012767D01*
X0569958Y0025267D01*
X0567958Y0025267D01*
X0567958Y0012767D01*
X0567458Y0012267D01*
X0559958Y0012267D01*
X0559958Y0025267D01*
X0557958Y0025267D01*
X0557958Y0012267D01*
X0549958Y0012267D01*
X0547958Y0012267D01*
X0539958Y0012267D01*
X0537958Y0012267D01*
X0529958Y0012267D01*
X0527958Y0012267D01*
X0520458Y0012267D01*
X0519958Y0012767D01*
X0519958Y0025267D01*
X0517958Y0025267D01*
X0516458Y0025267D02*
X0516458Y0026267D01*
X0521458Y0026267D01*
X0521458Y0025267D01*
X0519958Y0025267D01*
X0521458Y0025267D02*
X0521458Y0024267D01*
X0526458Y0024267D01*
X0526458Y0025267D01*
X0527958Y0025267D01*
X0527958Y0012267D01*
X0529958Y0012267D02*
X0529958Y0025267D01*
X0527958Y0025267D01*
X0526458Y0025267D02*
X0526458Y0026267D01*
X0531458Y0026267D01*
X0531458Y0025267D01*
X0529958Y0025267D01*
X0531458Y0025267D02*
X0531458Y0024267D01*
X0536458Y0024267D01*
X0536458Y0025267D01*
X0537958Y0025267D01*
X0537958Y0012267D01*
X0539958Y0012267D02*
X0539958Y0025267D01*
X0537958Y0025267D01*
X0536458Y0025267D02*
X0536458Y0026267D01*
X0541458Y0026267D01*
X0541458Y0025267D01*
X0539958Y0025267D01*
X0541458Y0025267D02*
X0541458Y0024267D01*
X0546458Y0024267D01*
X0546458Y0025267D01*
X0547958Y0025267D01*
X0549958Y0025267D01*
X0551458Y0025267D01*
X0551458Y0024267D01*
X0556458Y0024267D01*
X0556458Y0025267D01*
X0557958Y0025267D01*
X0556458Y0025267D02*
X0556458Y0026267D01*
X0561458Y0026267D01*
X0561458Y0025267D01*
X0559958Y0025267D01*
X0561458Y0025267D02*
X0561458Y0024267D01*
X0566458Y0024267D01*
X0566458Y0025267D01*
X0567958Y0025267D01*
X0566458Y0025267D02*
X0566458Y0026267D01*
X0571458Y0026267D01*
X0571458Y0025267D01*
X0569958Y0025267D01*
X0571458Y0025267D02*
X0571458Y0024267D01*
X0576458Y0024267D01*
X0576458Y0025267D01*
X0577958Y0025267D01*
X0577958Y0026267D01*
X0576458Y0026267D01*
X0576458Y0025267D01*
X0577958Y0025267D02*
X0577958Y0012267D01*
X0569958Y0012767D02*
X0568958Y0013767D01*
X0567958Y0012767D01*
X0559958Y0012267D02*
X0557958Y0012267D01*
X0549958Y0012267D02*
X0549958Y0025267D01*
X0551458Y0025267D02*
X0551458Y0026267D01*
X0546458Y0026267D01*
X0546458Y0025267D01*
X0547958Y0025267D02*
X0547958Y0012267D01*
X0519958Y0012767D02*
X0518958Y0013767D01*
X0517958Y0012767D01*
X0511458Y0025267D02*
X0509958Y0025267D01*
X0509958Y0026267D02*
X0509958Y0028267D01*
X0517958Y0028267D01*
X0517958Y0027767D01*
X0519958Y0027767D01*
X0519958Y0028267D01*
X0527958Y0028267D01*
X0527958Y0027767D01*
X0529958Y0027767D01*
X0529958Y0028267D01*
X0537958Y0028267D01*
X0537958Y0027767D01*
X0539958Y0027767D01*
X0539958Y0028267D01*
X0547958Y0028267D01*
X0547958Y0027767D01*
X0549958Y0027767D01*
X0549958Y0028267D01*
X0557958Y0028267D01*
X0557958Y0027767D01*
X0559958Y0027767D01*
X0559958Y0028267D01*
X0567958Y0028267D01*
X0567958Y0027767D01*
X0569958Y0027767D01*
X0569958Y0028267D01*
X0577958Y0028267D01*
X0577958Y0026267D01*
X0654333Y0071517D02*
X0656333Y0071517D01*
X0657333Y0071517D01*
X0657333Y0073017D01*
X0658333Y0073017D01*
X0658333Y0078017D01*
X0657333Y0078017D01*
X0657333Y0079517D01*
X0669833Y0079517D01*
X0670333Y0079017D01*
X0670333Y0071517D01*
X0657333Y0071517D01*
X0656333Y0071517D02*
X0656333Y0073017D01*
X0657333Y0073017D01*
X0654333Y0071517D02*
X0654333Y0079517D01*
X0654833Y0079517D01*
X0654833Y0081517D01*
X0654333Y0081517D01*
X0654333Y0089517D01*
X0654833Y0089517D01*
X0654833Y0091517D01*
X0654333Y0091517D01*
X0654333Y0099517D01*
X0654833Y0099517D01*
X0654833Y0101517D01*
X0654333Y0101517D01*
X0654333Y0109517D01*
X0654833Y0109517D01*
X0654833Y0111517D01*
X0654333Y0111517D01*
X0654333Y0119517D01*
X0656333Y0119517D01*
X0657333Y0119517D01*
X0657333Y0118017D01*
X0658333Y0118017D01*
X0658333Y0113017D01*
X0657333Y0113017D01*
X0657333Y0111517D01*
X0669833Y0111517D01*
X0668833Y0110517D01*
X0669833Y0109517D01*
X0657333Y0109517D01*
X0657333Y0108017D01*
X0658333Y0108017D01*
X0658333Y0103017D01*
X0657333Y0103017D01*
X0657333Y0101517D01*
X0670333Y0101517D01*
X0670333Y0099517D01*
X0670333Y0091517D01*
X0670333Y0089517D01*
X0670333Y0082017D01*
X0669833Y0081517D01*
X0657333Y0081517D01*
X0657333Y0079517D01*
X0657333Y0078017D02*
X0656333Y0078017D01*
X0656333Y0083017D01*
X0657333Y0083017D01*
X0657333Y0081517D01*
X0657333Y0083017D02*
X0658333Y0083017D01*
X0658333Y0088017D01*
X0657333Y0088017D01*
X0657333Y0089517D01*
X0657333Y0091517D01*
X0657333Y0093017D01*
X0658333Y0093017D01*
X0658333Y0098017D01*
X0657333Y0098017D01*
X0657333Y0099517D01*
X0670333Y0099517D01*
X0670333Y0101517D02*
X0670333Y0109017D01*
X0669833Y0109517D01*
X0669833Y0111517D02*
X0670333Y0112017D01*
X0670333Y0119517D01*
X0657333Y0119517D01*
X0656333Y0119517D02*
X0656333Y0118017D01*
X0657333Y0118017D01*
X0657333Y0113017D02*
X0656333Y0113017D01*
X0656333Y0108017D01*
X0657333Y0108017D01*
X0657333Y0109517D02*
X0657333Y0111517D01*
X0672833Y0111517D02*
X0672833Y0109517D01*
X0673333Y0109517D01*
X0673333Y0106517D01*
X0673833Y0106517D01*
X0673833Y0104517D01*
X0673333Y0104517D01*
X0673333Y0101517D01*
X0672833Y0101517D01*
X0672833Y0099517D01*
X0673333Y0099517D01*
X0673333Y0096517D01*
X0673833Y0096517D01*
X0673833Y0094517D01*
X0673333Y0094517D01*
X0673333Y0091517D01*
X0672833Y0091517D01*
X0672833Y0089517D01*
X0673333Y0089517D01*
X0673333Y0086517D01*
X0673833Y0086517D01*
X0673833Y0084517D01*
X0673333Y0084517D01*
X0673333Y0081517D01*
X0672833Y0081517D01*
X0672833Y0079517D01*
X0673333Y0079517D01*
X0673333Y0076517D01*
X0673833Y0076517D01*
X0673833Y0074517D01*
X0673333Y0074517D01*
X0673333Y0071517D01*
X0670333Y0071517D01*
X0669833Y0079517D02*
X0668833Y0080517D01*
X0669833Y0081517D01*
X0670333Y0089517D02*
X0657333Y0089517D01*
X0657333Y0088017D02*
X0656333Y0088017D01*
X0656333Y0093017D01*
X0657333Y0093017D01*
X0657333Y0091517D02*
X0670333Y0091517D01*
X0657333Y0098017D02*
X0656333Y0098017D01*
X0656333Y0103017D01*
X0657333Y0103017D01*
X0657333Y0101517D02*
X0657333Y0099517D01*
X0672833Y0111517D02*
X0673333Y0111517D01*
X0673333Y0114517D01*
X0673833Y0114517D01*
X0673833Y0116517D01*
X0673333Y0116517D01*
X0673333Y0119517D01*
X0670333Y0119517D01*
X0632708Y0147767D02*
X0632708Y0150767D01*
X0633208Y0150767D01*
X0633208Y0152767D01*
X0632708Y0152767D01*
X0632708Y0155767D01*
X0632208Y0155767D01*
X0632208Y0157767D01*
X0632708Y0157767D01*
X0632708Y0160767D01*
X0633208Y0160767D01*
X0633208Y0162767D01*
X0632708Y0162767D01*
X0632708Y0165767D01*
X0632208Y0165767D01*
X0632208Y0167767D01*
X0632708Y0167767D01*
X0632708Y0170767D01*
X0633208Y0170767D01*
X0633208Y0172767D01*
X0632708Y0172767D01*
X0632708Y0175767D01*
X0629708Y0175767D01*
X0629708Y0168267D01*
X0629208Y0167767D01*
X0616708Y0167767D01*
X0616708Y0165767D01*
X0629208Y0165767D01*
X0629708Y0165267D01*
X0629708Y0158267D01*
X0629208Y0157767D01*
X0616708Y0157767D01*
X0616708Y0155767D01*
X0629208Y0155767D01*
X0629708Y0155267D01*
X0629708Y0147767D01*
X0616708Y0147767D01*
X0615708Y0147767D01*
X0615708Y0149267D01*
X0616708Y0149267D01*
X0617708Y0149267D01*
X0617708Y0154267D01*
X0616708Y0154267D01*
X0616708Y0155767D01*
X0616708Y0154267D02*
X0615708Y0154267D01*
X0615708Y0159267D01*
X0616708Y0159267D01*
X0616708Y0157767D01*
X0616708Y0159267D02*
X0617708Y0159267D01*
X0617708Y0164267D01*
X0616708Y0164267D01*
X0616708Y0165767D01*
X0616708Y0164267D02*
X0615708Y0164267D01*
X0615708Y0169267D01*
X0616708Y0169267D01*
X0616708Y0167767D01*
X0616708Y0169267D02*
X0617708Y0169267D01*
X0617708Y0174267D01*
X0616708Y0174267D01*
X0616708Y0175767D01*
X0615708Y0175767D01*
X0615708Y0174267D01*
X0616708Y0174267D01*
X0616708Y0175767D02*
X0629708Y0175767D01*
X0615708Y0175767D02*
X0613708Y0175767D01*
X0613708Y0167767D01*
X0614208Y0167767D01*
X0614208Y0165767D01*
X0613708Y0165767D01*
X0613708Y0157767D01*
X0614208Y0157767D01*
X0614208Y0155767D01*
X0613708Y0155767D01*
X0613708Y0147767D01*
X0615708Y0147767D01*
X0616708Y0147767D02*
X0616708Y0149267D01*
X0629708Y0147767D02*
X0632708Y0147767D01*
X0629208Y0155767D02*
X0628208Y0156767D01*
X0629208Y0157767D01*
X0629208Y0165767D02*
X0628208Y0166767D01*
X0629208Y0167767D01*
M02*
