G75*
%MOIN*%
%OFA0B0*%
%FSLAX25Y25*%
%IPPOS*%
%LPD*%
%AMOC8*
5,1,8,0,0,1.08239X$1,22.5*
%
%ADD10R,0.07887X0.07099*%
%ADD11R,0.07099X0.07887*%
%ADD12R,0.07898X0.07099*%
%ADD13R,0.07099X0.07898*%
%ADD14R,0.06787X0.04787*%
%ADD15R,0.04787X0.06787*%
%ADD16R,0.11036X0.03556*%
%ADD17R,0.11036X0.03950*%
%ADD18R,0.14973X0.03950*%
%ADD19R,0.10249X0.10249*%
%ADD20R,0.09658X0.09658*%
%ADD21R,0.03162X0.02572*%
%ADD22R,0.03162X0.02375*%
%ADD23C,0.06400*%
%ADD24C,0.05156*%
D10*
X0500208Y0013755D03*
X0500208Y0024778D03*
X0655833Y0061255D03*
X0670208Y0061255D03*
X0670208Y0072278D03*
X0655833Y0072278D03*
X0650208Y0184380D03*
X0650208Y0195403D03*
D11*
X0652197Y0048017D03*
X0663220Y0048017D03*
D12*
X0637083Y0027990D03*
X0624583Y0027990D03*
X0612083Y0027990D03*
X0612083Y0016793D03*
X0624583Y0016793D03*
X0637083Y0016793D03*
X0635208Y0184293D03*
X0635208Y0195490D03*
D13*
X0658360Y0033642D03*
X0669557Y0033642D03*
D14*
X0568958Y0059267D03*
X0568958Y0064267D03*
X0568958Y0069267D03*
X0568958Y0074267D03*
X0568958Y0079267D03*
X0568958Y0084267D03*
X0568958Y0089267D03*
X0568958Y0094267D03*
X0568958Y0099267D03*
X0568958Y0104267D03*
X0568958Y0109267D03*
X0568958Y0114267D03*
X0568958Y0119267D03*
X0568958Y0124267D03*
X0568958Y0129267D03*
X0568958Y0134267D03*
X0568958Y0139267D03*
X0568958Y0144267D03*
X0568958Y0149267D03*
X0568958Y0154267D03*
X0498958Y0154267D03*
X0498958Y0149267D03*
X0498958Y0144267D03*
X0498958Y0139267D03*
X0498958Y0134267D03*
X0498958Y0129267D03*
X0498958Y0124267D03*
X0498958Y0119267D03*
X0498958Y0114267D03*
X0498958Y0109267D03*
X0498958Y0104267D03*
X0498958Y0099267D03*
X0498958Y0094267D03*
X0498958Y0089267D03*
X0498958Y0084267D03*
X0498958Y0079267D03*
X0498958Y0074267D03*
X0498958Y0069267D03*
X0498958Y0064267D03*
X0498958Y0059267D03*
D15*
X0518958Y0159267D03*
X0523958Y0159267D03*
X0528958Y0159267D03*
X0533958Y0159267D03*
X0538958Y0159267D03*
X0543958Y0159267D03*
X0548958Y0159267D03*
D16*
X0610700Y0077392D03*
X0610700Y0072392D03*
X0610740Y0067392D03*
X0610700Y0062392D03*
X0610700Y0057392D03*
X0634716Y0057470D03*
X0634716Y0062392D03*
X0634716Y0067392D03*
X0634716Y0072392D03*
X0634716Y0077392D03*
D17*
X0634716Y0089045D03*
X0634716Y0045738D03*
X0610700Y0045738D03*
D18*
X0612669Y0089045D03*
D19*
X0548958Y0174267D03*
X0528958Y0174267D03*
X0528958Y0194267D03*
X0548958Y0194267D03*
D20*
X0538958Y0184267D03*
D21*
X0616173Y0184537D03*
X0616173Y0190246D03*
D22*
X0616173Y0187392D03*
X0599244Y0193100D03*
X0599244Y0181683D03*
D23*
X0627708Y0165192D02*
X0627708Y0159592D01*
X0637708Y0159592D02*
X0637708Y0165192D01*
X0647708Y0165192D02*
X0647708Y0159592D01*
X0642708Y0110817D02*
X0642708Y0105217D01*
X0632708Y0105217D02*
X0632708Y0110817D01*
X0622708Y0110817D02*
X0622708Y0105217D01*
X0612708Y0105217D02*
X0612708Y0110817D01*
X0602708Y0110817D02*
X0602708Y0105217D01*
X0573958Y0022067D02*
X0573958Y0016467D01*
X0563958Y0016467D02*
X0563958Y0022067D01*
X0553958Y0022067D02*
X0553958Y0016467D01*
X0543958Y0016467D02*
X0543958Y0022067D01*
X0533958Y0022067D02*
X0533958Y0016467D01*
X0523958Y0016467D02*
X0523958Y0022067D01*
X0513958Y0022067D02*
X0513958Y0016467D01*
D24*
X0507083Y0129267D03*
M02*
