G75*
%MOIN*%
%OFA0B0*%
%FSLAX25Y25*%
%IPPOS*%
%LPD*%
%AMOC8*
5,1,8,0,0,1.08239X$1,22.5*
%
%ADD10R,0.07887X0.07099*%
%ADD11R,0.07099X0.07887*%
%ADD12R,0.07898X0.07099*%
%ADD13R,0.07099X0.07898*%
%ADD14R,0.06787X0.04787*%
%ADD15R,0.04787X0.06787*%
%ADD16R,0.11036X0.03556*%
%ADD17R,0.11036X0.03950*%
%ADD18R,0.14973X0.03950*%
%ADD19R,0.10249X0.10249*%
%ADD20R,0.09658X0.09658*%
%ADD21R,0.03162X0.02572*%
%ADD22R,0.03162X0.02375*%
%ADD23C,0.06400*%
%ADD24C,0.05156*%
D10*
X0500208Y0013755D03*
X0500208Y0024778D03*
X0655833Y0046255D03*
X0670208Y0046255D03*
X0670208Y0057278D03*
X0655833Y0057278D03*
X0639583Y0185005D03*
X0639583Y0196028D03*
D11*
X0652197Y0033017D03*
X0663220Y0033017D03*
D12*
X0637083Y0027990D03*
X0624583Y0027990D03*
X0612083Y0027990D03*
X0612083Y0016793D03*
X0624583Y0016793D03*
X0637083Y0016793D03*
X0627708Y0184918D03*
X0627708Y0196115D03*
D13*
X0658360Y0018642D03*
X0669557Y0018642D03*
D14*
X0568958Y0059267D03*
X0568958Y0064267D03*
X0568958Y0069267D03*
X0568958Y0074267D03*
X0568958Y0079267D03*
X0568958Y0084267D03*
X0568958Y0089267D03*
X0568958Y0094267D03*
X0568958Y0099267D03*
X0568958Y0104267D03*
X0568958Y0109267D03*
X0568958Y0114267D03*
X0568958Y0119267D03*
X0568958Y0124267D03*
X0568958Y0129267D03*
X0568958Y0134267D03*
X0568958Y0139267D03*
X0568958Y0144267D03*
X0568958Y0149267D03*
X0568958Y0154267D03*
X0498958Y0154267D03*
X0498958Y0149267D03*
X0498958Y0144267D03*
X0498958Y0139267D03*
X0498958Y0134267D03*
X0498958Y0129267D03*
X0498958Y0124267D03*
X0498958Y0119267D03*
X0498958Y0114267D03*
X0498958Y0109267D03*
X0498958Y0104267D03*
X0498958Y0099267D03*
X0498958Y0094267D03*
X0498958Y0089267D03*
X0498958Y0084267D03*
X0498958Y0079267D03*
X0498958Y0074267D03*
X0498958Y0069267D03*
X0498958Y0064267D03*
X0498958Y0059267D03*
D15*
X0518958Y0159267D03*
X0523958Y0159267D03*
X0528958Y0159267D03*
X0533958Y0159267D03*
X0538958Y0159267D03*
X0543958Y0159267D03*
X0548958Y0159267D03*
D16*
X0608825Y0071142D03*
X0608825Y0066142D03*
X0608865Y0061142D03*
X0608825Y0056142D03*
X0608825Y0051142D03*
X0632841Y0051220D03*
X0632841Y0056142D03*
X0632841Y0061142D03*
X0632841Y0066142D03*
X0632841Y0071142D03*
D17*
X0632841Y0082795D03*
X0632841Y0039488D03*
X0608825Y0039488D03*
D18*
X0610794Y0082795D03*
D19*
X0548958Y0174267D03*
X0528958Y0174267D03*
X0528958Y0194267D03*
X0548958Y0194267D03*
D20*
X0538958Y0184267D03*
D21*
X0615548Y0188287D03*
X0615548Y0193996D03*
D22*
X0615548Y0191142D03*
X0598619Y0196850D03*
X0598619Y0185433D03*
D23*
X0619908Y0171767D02*
X0625508Y0171767D01*
X0625508Y0161767D02*
X0619908Y0161767D01*
X0619908Y0151767D02*
X0625508Y0151767D01*
X0660533Y0115517D02*
X0666133Y0115517D01*
X0666133Y0105517D02*
X0660533Y0105517D01*
X0660533Y0095517D02*
X0666133Y0095517D01*
X0666133Y0085517D02*
X0660533Y0085517D01*
X0660533Y0075517D02*
X0666133Y0075517D01*
X0573958Y0022067D02*
X0573958Y0016467D01*
X0563958Y0016467D02*
X0563958Y0022067D01*
X0553958Y0022067D02*
X0553958Y0016467D01*
X0543958Y0016467D02*
X0543958Y0022067D01*
X0533958Y0022067D02*
X0533958Y0016467D01*
X0523958Y0016467D02*
X0523958Y0022067D01*
X0513958Y0022067D02*
X0513958Y0016467D01*
D24*
X0507083Y0129267D03*
M02*
