%
M48
M72
T01C0.02756
T02C0.03600
T03C0.05906
T04C0.06299
%
T01
X507083Y129267
T02
X602708Y108017
X612708Y108017
X622708Y108017
X632708Y108017
X642708Y108017
X637708Y162392
X647708Y162392
X627708Y162392
X573958Y19267
X563958Y19267
X553958Y19267
X543958Y19267
X533958Y19267
X523958Y19267
X513958Y19267
T03
X538958Y184267
T04
X528958Y194267
X548958Y194267
X548958Y174267
X528958Y174267
M30
