G75*
%MOIN*%
%OFA0B0*%
%FSLAX25Y25*%
%IPPOS*%
%LPD*%
%AMOC8*
5,1,8,0,0,1.08239X$1,22.5*
%
%ADD10C,0.05400*%
%ADD11R,0.08299X0.08299*%
%ADD12R,0.07906X0.07906*%
%ADD13C,0.04134*%
%ADD14C,0.07400*%
%ADD15C,0.04356*%
%ADD16C,0.01600*%
%ADD17C,0.01000*%
%ADD18C,0.04000*%
D10*
X0051750Y0036800D02*
X0051750Y0042200D01*
X0061750Y0042200D02*
X0061750Y0036800D01*
X0071750Y0036800D02*
X0071750Y0042200D01*
X0081750Y0042200D02*
X0081750Y0036800D01*
X0091750Y0036800D02*
X0091750Y0042200D01*
X0101750Y0042200D02*
X0101750Y0036800D01*
X0114750Y0036800D02*
X0114750Y0042200D01*
X0124750Y0042200D02*
X0124750Y0036800D01*
X0134750Y0036800D02*
X0134750Y0042200D01*
X0154050Y0109250D02*
X0159450Y0109250D01*
X0159450Y0119250D02*
X0154050Y0119250D01*
X0154050Y0129250D02*
X0159450Y0129250D01*
X0159450Y0139250D02*
X0154050Y0139250D01*
X0154050Y0149250D02*
X0159450Y0149250D01*
X0162000Y0179800D02*
X0162000Y0185200D01*
X0152000Y0185200D02*
X0152000Y0179800D01*
X0142000Y0179800D02*
X0142000Y0185200D01*
X0132000Y0185200D02*
X0132000Y0179800D01*
X0122000Y0179800D02*
X0122000Y0185200D01*
X0112000Y0185200D02*
X0112000Y0179800D01*
X0102000Y0179800D02*
X0102000Y0185200D01*
X0093200Y0183500D02*
X0087800Y0183500D01*
X0087800Y0173500D02*
X0093200Y0173500D01*
X0096000Y0249800D02*
X0096000Y0255200D01*
X0086000Y0255200D02*
X0086000Y0249800D01*
X0076000Y0249800D02*
X0076000Y0255200D01*
X0066000Y0255200D02*
X0066000Y0249800D01*
X0056000Y0249800D02*
X0056000Y0255200D01*
X0046000Y0255200D02*
X0046000Y0249800D01*
X0036000Y0249800D02*
X0036000Y0255200D01*
X0152800Y0387500D02*
X0158200Y0387500D01*
X0158200Y0397500D02*
X0152800Y0397500D01*
X0152800Y0407500D02*
X0158200Y0407500D01*
X0158200Y0417500D02*
X0152800Y0417500D01*
X0152800Y0427500D02*
X0158200Y0427500D01*
D11*
X0080000Y0425000D03*
X0080000Y0405000D03*
X0060000Y0405000D03*
X0060000Y0425000D03*
D12*
X0070000Y0415000D03*
D13*
X0052000Y0063000D03*
X0052000Y0058000D03*
X0047000Y0058000D03*
X0047000Y0063000D03*
X0042000Y0063000D03*
X0042000Y0058000D03*
X0037000Y0058000D03*
X0037000Y0063000D03*
X0032000Y0063000D03*
X0032000Y0058000D03*
D14*
X0028000Y0182000D03*
X0038000Y0182000D03*
X0048000Y0182000D03*
X0058000Y0182000D03*
X0068000Y0182000D03*
X0078000Y0182000D03*
D15*
X0064000Y0196000D03*
X0048000Y0197000D03*
X0037000Y0223000D03*
X0027000Y0245000D03*
X0027000Y0255000D03*
X0027000Y0265000D03*
X0027000Y0275000D03*
X0055000Y0280000D03*
X0065000Y0280000D03*
X0075000Y0280000D03*
X0105000Y0275000D03*
X0105000Y0265000D03*
X0105000Y0255000D03*
X0105000Y0245000D03*
X0090000Y0360000D03*
X0090000Y0370000D03*
X0090000Y0390000D03*
X0090000Y0400000D03*
X0090000Y0410000D03*
X0090000Y0420000D03*
X0090000Y0428000D03*
X0100000Y0428000D03*
X0100000Y0420000D03*
X0100000Y0410000D03*
X0100000Y0400000D03*
X0100000Y0390000D03*
X0080000Y0370000D03*
X0080000Y0360000D03*
X0070000Y0360000D03*
X0070000Y0370000D03*
X0060000Y0370000D03*
X0060000Y0360000D03*
X0050000Y0360000D03*
X0050000Y0370000D03*
X0043500Y0351500D03*
X0040000Y0360000D03*
X0040000Y0370000D03*
X0040000Y0390000D03*
X0040000Y0400000D03*
X0040000Y0410000D03*
X0040000Y0420000D03*
X0040000Y0428000D03*
X0030000Y0428000D03*
X0030000Y0420000D03*
X0030000Y0410000D03*
X0030000Y0400000D03*
X0030000Y0390000D03*
X0050000Y0390000D03*
X0050000Y0400000D03*
X0050000Y0410000D03*
X0050000Y0420000D03*
X0050000Y0428000D03*
X0139000Y0126500D03*
X0141500Y0104000D03*
X0151000Y0092500D03*
X0130500Y0055500D03*
X0114000Y0081000D03*
X0105000Y0062000D03*
X0099000Y0092000D03*
X0093500Y0083000D03*
X0085500Y0119500D03*
X0064000Y0115000D03*
X0064000Y0107500D03*
X0071000Y0057000D03*
X0112500Y0102500D03*
D16*
X0093500Y0085500D02*
X0093500Y0083000D01*
X0093500Y0064500D01*
X0105500Y0052500D01*
X0127500Y0052500D01*
X0130500Y0055500D01*
X0141500Y0104000D02*
X0141500Y0124000D01*
X0139000Y0126500D01*
X0093500Y0085500D02*
X0064000Y0115000D01*
X0048000Y0182000D02*
X0043750Y0186250D01*
X0043750Y0192750D01*
X0048000Y0197000D01*
X0047658Y0241000D02*
X0047229Y0241178D01*
X0044771Y0241178D01*
X0044342Y0241000D01*
X0043658Y0241000D01*
X0043229Y0241178D01*
X0040771Y0241178D01*
X0040342Y0241000D01*
X0039658Y0241000D01*
X0039229Y0241178D01*
X0036771Y0241178D01*
X0036342Y0241000D01*
X0035658Y0241000D01*
X0035229Y0241178D01*
X0032771Y0241178D01*
X0032342Y0241000D01*
X0031658Y0241000D01*
X0031229Y0241178D01*
X0028771Y0241178D01*
X0028342Y0241000D01*
X0027658Y0241000D01*
X0027229Y0241178D01*
X0024800Y0241178D01*
X0024800Y0430200D01*
X0054378Y0430200D01*
X0054173Y0429844D01*
X0054050Y0429387D01*
X0054050Y0425775D01*
X0059225Y0425775D01*
X0059225Y0424225D01*
X0060775Y0424225D01*
X0060775Y0425775D01*
X0065950Y0425775D01*
X0065950Y0429387D01*
X0065827Y0429844D01*
X0065622Y0430200D01*
X0074378Y0430200D01*
X0074173Y0429844D01*
X0074050Y0429387D01*
X0074050Y0425775D01*
X0079225Y0425775D01*
X0079225Y0424225D01*
X0074050Y0424225D01*
X0074050Y0420953D01*
X0065950Y0420953D01*
X0065950Y0424225D01*
X0060775Y0424225D01*
X0060775Y0425775D01*
X0065950Y0425775D01*
X0065950Y0429387D01*
X0065827Y0429844D01*
X0065622Y0430200D01*
X0074378Y0430200D01*
X0074173Y0429844D01*
X0074050Y0429387D01*
X0074050Y0425775D01*
X0079225Y0425775D01*
X0079225Y0424225D01*
X0080775Y0424225D01*
X0080775Y0425775D01*
X0085950Y0425775D01*
X0085950Y0429387D01*
X0085827Y0429844D01*
X0085622Y0430200D01*
X0107000Y0430200D01*
X0107000Y0241178D01*
X0106922Y0241178D01*
X0100700Y0255325D01*
X0100700Y0256135D01*
X0099984Y0257862D01*
X0099270Y0258577D01*
X0024800Y0427907D01*
X0024800Y0430200D01*
X0054378Y0430200D01*
X0054173Y0429844D01*
X0054050Y0429387D01*
X0054050Y0425775D01*
X0059225Y0425775D01*
X0059225Y0424225D01*
X0059225Y0419050D01*
X0055613Y0419050D01*
X0055156Y0419173D01*
X0054745Y0419410D01*
X0054410Y0419745D01*
X0054173Y0420156D01*
X0054050Y0420613D01*
X0054050Y0424225D01*
X0059225Y0424225D01*
X0060775Y0424225D01*
X0065950Y0424225D01*
X0065950Y0420953D01*
X0074050Y0420953D01*
X0074050Y0424225D01*
X0079225Y0424225D01*
X0079225Y0419050D01*
X0075953Y0419050D01*
X0075953Y0410950D01*
X0079225Y0410950D01*
X0079225Y0405775D01*
X0080775Y0405775D01*
X0080775Y0410950D01*
X0084387Y0410950D01*
X0084844Y0410827D01*
X0085255Y0410590D01*
X0085590Y0410255D01*
X0085827Y0409844D01*
X0085950Y0409387D01*
X0085950Y0405775D01*
X0080775Y0405775D01*
X0080775Y0404225D01*
X0085950Y0404225D01*
X0085950Y0400613D01*
X0085827Y0400156D01*
X0085590Y0399745D01*
X0085255Y0399410D01*
X0084844Y0399173D01*
X0084387Y0399050D01*
X0080775Y0399050D01*
X0080775Y0404225D01*
X0080775Y0405775D01*
X0079225Y0405775D01*
X0079225Y0410950D01*
X0075953Y0410950D01*
X0075953Y0419050D01*
X0079225Y0419050D01*
X0079225Y0424225D01*
X0080775Y0424225D01*
X0085950Y0424225D01*
X0085950Y0420613D01*
X0085827Y0420156D01*
X0085590Y0419745D01*
X0085255Y0419410D01*
X0084844Y0419173D01*
X0084387Y0419050D01*
X0080775Y0419050D01*
X0080775Y0424225D01*
X0080775Y0425775D01*
X0085950Y0425775D01*
X0085950Y0429387D01*
X0085827Y0429844D01*
X0085622Y0430200D01*
X0107000Y0430200D01*
X0107000Y0241178D01*
X0104771Y0241178D01*
X0104342Y0241000D01*
X0103658Y0241000D01*
X0103229Y0241178D01*
X0100771Y0241178D01*
X0100342Y0241000D01*
X0099658Y0241000D01*
X0099229Y0241178D01*
X0096771Y0241178D01*
X0096342Y0241000D01*
X0095658Y0241000D01*
X0095229Y0241178D01*
X0092771Y0241178D01*
X0092342Y0241000D01*
X0091658Y0241000D01*
X0091229Y0241178D01*
X0088771Y0241178D01*
X0088342Y0241000D01*
X0087658Y0241000D01*
X0087229Y0241178D01*
X0084771Y0241178D01*
X0084342Y0241000D01*
X0083658Y0241000D01*
X0083229Y0241178D01*
X0080771Y0241178D01*
X0080342Y0241000D01*
X0079658Y0241000D01*
X0079229Y0241178D01*
X0076771Y0241178D01*
X0076342Y0241000D01*
X0075658Y0241000D01*
X0075229Y0241178D01*
X0072771Y0241178D01*
X0072342Y0241000D01*
X0071658Y0241000D01*
X0071229Y0241178D01*
X0068771Y0241178D01*
X0068342Y0241000D01*
X0067658Y0241000D01*
X0067229Y0241178D01*
X0064771Y0241178D01*
X0064342Y0241000D01*
X0063658Y0241000D01*
X0063229Y0241178D01*
X0060771Y0241178D01*
X0060342Y0241000D01*
X0059658Y0241000D01*
X0059229Y0241178D01*
X0056771Y0241178D01*
X0056342Y0241000D01*
X0055658Y0241000D01*
X0055229Y0241178D01*
X0052771Y0241178D01*
X0052342Y0241000D01*
X0051658Y0241000D01*
X0051229Y0241178D01*
X0048771Y0241178D01*
X0048342Y0241000D01*
X0047658Y0241000D01*
X0046935Y0245100D02*
X0048662Y0245816D01*
X0049984Y0247138D01*
X0050700Y0248865D01*
X0050700Y0256135D01*
X0049984Y0257862D01*
X0048662Y0259184D01*
X0046935Y0259900D01*
X0045065Y0259900D01*
X0043338Y0259184D01*
X0042016Y0257862D01*
X0041300Y0256135D01*
X0041300Y0248865D01*
X0042016Y0247138D01*
X0043338Y0245816D01*
X0045065Y0245100D01*
X0046935Y0245100D01*
X0048129Y0245595D02*
X0053871Y0245595D01*
X0053338Y0245816D02*
X0055065Y0245100D01*
X0056935Y0245100D01*
X0058662Y0245816D01*
X0059984Y0247138D01*
X0060700Y0248865D01*
X0060700Y0256135D01*
X0059984Y0257862D01*
X0058662Y0259184D01*
X0058000Y0259459D01*
X0058000Y0269997D01*
X0057619Y0270916D01*
X0056916Y0271619D01*
X0046000Y0282536D01*
X0046000Y0348091D01*
X0047042Y0349133D01*
X0047678Y0350669D01*
X0047678Y0352331D01*
X0047042Y0353867D01*
X0045867Y0355042D01*
X0044331Y0355678D01*
X0042669Y0355678D01*
X0041133Y0355042D01*
X0039958Y0353867D01*
X0039322Y0352331D01*
X0039322Y0350669D01*
X0039958Y0349133D01*
X0041000Y0348091D01*
X0041000Y0281003D01*
X0041381Y0280084D01*
X0053000Y0268464D01*
X0053000Y0258847D01*
X0052016Y0257862D01*
X0051300Y0256135D01*
X0051300Y0248865D01*
X0052016Y0247138D01*
X0053338Y0245816D01*
X0051993Y0247193D02*
X0050007Y0247193D01*
X0050670Y0248792D02*
X0051330Y0248792D01*
X0051300Y0250390D02*
X0050700Y0250390D01*
X0050700Y0251989D02*
X0051300Y0251989D01*
X0051300Y0253587D02*
X0050700Y0253587D01*
X0050700Y0255186D02*
X0051300Y0255186D01*
X0051569Y0256784D02*
X0050431Y0256784D01*
X0049464Y0258383D02*
X0052536Y0258383D01*
X0053000Y0259981D02*
X0024800Y0259981D01*
X0024800Y0258383D02*
X0032819Y0258383D01*
X0033068Y0258632D02*
X0032568Y0258132D01*
X0032151Y0257559D01*
X0031830Y0256927D01*
X0031611Y0256254D01*
X0031500Y0255554D01*
X0031500Y0252600D01*
X0035900Y0252600D01*
X0035900Y0259700D01*
X0035646Y0259700D01*
X0034946Y0259589D01*
X0034273Y0259370D01*
X0033641Y0259049D01*
X0033068Y0258632D01*
X0031783Y0256784D02*
X0024800Y0256784D01*
X0024800Y0255186D02*
X0031500Y0255186D01*
X0031500Y0253587D02*
X0024800Y0253587D01*
X0024800Y0251989D02*
X0031500Y0251989D01*
X0031500Y0252400D02*
X0031500Y0249446D01*
X0031611Y0248746D01*
X0031830Y0248073D01*
X0032151Y0247441D01*
X0032568Y0246868D01*
X0033068Y0246368D01*
X0033641Y0245951D01*
X0034273Y0245630D01*
X0034946Y0245411D01*
X0035646Y0245300D01*
X0035900Y0245300D01*
X0035900Y0252400D01*
X0036100Y0252400D01*
X0036100Y0252600D01*
X0040500Y0252600D01*
X0040500Y0255554D01*
X0040389Y0256254D01*
X0040170Y0256927D01*
X0039849Y0257559D01*
X0039432Y0258132D01*
X0038932Y0258632D01*
X0038359Y0259049D01*
X0037727Y0259370D01*
X0037054Y0259589D01*
X0036354Y0259700D01*
X0036100Y0259700D01*
X0036100Y0252600D01*
X0035900Y0252600D01*
X0035900Y0252400D01*
X0031500Y0252400D01*
X0031500Y0250390D02*
X0024800Y0250390D01*
X0024800Y0248792D02*
X0031604Y0248792D01*
X0032332Y0247193D02*
X0024800Y0247193D01*
X0024800Y0245595D02*
X0034381Y0245595D01*
X0035900Y0245595D02*
X0036100Y0245595D01*
X0036100Y0245300D02*
X0036354Y0245300D01*
X0037054Y0245411D01*
X0037727Y0245630D01*
X0038359Y0245951D01*
X0038932Y0246368D01*
X0039432Y0246868D01*
X0039849Y0247441D01*
X0040170Y0248073D01*
X0040389Y0248746D01*
X0040500Y0249446D01*
X0040500Y0252400D01*
X0036100Y0252400D01*
X0036100Y0245300D01*
X0037619Y0245595D02*
X0043871Y0245595D01*
X0041993Y0247193D02*
X0039668Y0247193D01*
X0040396Y0248792D02*
X0041330Y0248792D01*
X0041300Y0250390D02*
X0040500Y0250390D01*
X0040500Y0251989D02*
X0041300Y0251989D01*
X0041300Y0253587D02*
X0040500Y0253587D01*
X0040500Y0255186D02*
X0041300Y0255186D01*
X0041569Y0256784D02*
X0040217Y0256784D01*
X0039181Y0258383D02*
X0042536Y0258383D01*
X0048695Y0272769D02*
X0024800Y0272769D01*
X0024800Y0271171D02*
X0050294Y0271171D01*
X0051892Y0269572D02*
X0024800Y0269572D01*
X0024800Y0267974D02*
X0053000Y0267974D01*
X0053000Y0266375D02*
X0024800Y0266375D01*
X0024800Y0264777D02*
X0053000Y0264777D01*
X0053000Y0263178D02*
X0024800Y0263178D01*
X0024800Y0261580D02*
X0053000Y0261580D01*
X0057365Y0271171D02*
X0107000Y0271171D01*
X0093731Y0271171D01*
X0093028Y0272769D02*
X0107000Y0272769D01*
X0055766Y0272769D01*
X0054168Y0274368D02*
X0107000Y0274368D01*
X0092325Y0274368D01*
X0091622Y0275966D02*
X0107000Y0275966D01*
X0052569Y0275966D01*
X0050971Y0277565D02*
X0107000Y0277565D01*
X0090919Y0277565D01*
X0090216Y0279163D02*
X0107000Y0279163D01*
X0049372Y0279163D01*
X0047774Y0280762D02*
X0107000Y0280762D01*
X0089513Y0280762D01*
X0088810Y0282360D02*
X0107000Y0282360D01*
X0046175Y0282360D01*
X0046000Y0283959D02*
X0107000Y0283959D01*
X0088107Y0283959D01*
X0087404Y0285557D02*
X0107000Y0285557D01*
X0046000Y0285557D01*
X0046000Y0287156D02*
X0107000Y0287156D01*
X0086701Y0287156D01*
X0085998Y0288754D02*
X0107000Y0288754D01*
X0046000Y0288754D01*
X0046000Y0290353D02*
X0107000Y0290353D01*
X0085295Y0290353D01*
X0084592Y0291951D02*
X0107000Y0291951D01*
X0046000Y0291951D01*
X0046000Y0293550D02*
X0107000Y0293550D01*
X0083889Y0293550D01*
X0083186Y0295148D02*
X0107000Y0295148D01*
X0046000Y0295148D01*
X0046000Y0296747D02*
X0107000Y0296747D01*
X0082483Y0296747D01*
X0081780Y0298345D02*
X0107000Y0298345D01*
X0046000Y0298345D01*
X0046000Y0299944D02*
X0107000Y0299944D01*
X0081077Y0299944D01*
X0080374Y0301542D02*
X0107000Y0301542D01*
X0046000Y0301542D01*
X0046000Y0303141D02*
X0107000Y0303141D01*
X0079671Y0303141D01*
X0078968Y0304739D02*
X0107000Y0304739D01*
X0046000Y0304739D01*
X0046000Y0306338D02*
X0107000Y0306338D01*
X0078265Y0306338D01*
X0077562Y0307937D02*
X0107000Y0307937D01*
X0046000Y0307937D01*
X0046000Y0309535D02*
X0107000Y0309535D01*
X0076859Y0309535D01*
X0076156Y0311134D02*
X0107000Y0311134D01*
X0046000Y0311134D01*
X0046000Y0312732D02*
X0107000Y0312732D01*
X0075453Y0312732D01*
X0074750Y0314331D02*
X0107000Y0314331D01*
X0046000Y0314331D01*
X0046000Y0315929D02*
X0107000Y0315929D01*
X0074047Y0315929D01*
X0073344Y0317528D02*
X0107000Y0317528D01*
X0046000Y0317528D01*
X0046000Y0319126D02*
X0107000Y0319126D01*
X0072641Y0319126D01*
X0071938Y0320725D02*
X0107000Y0320725D01*
X0046000Y0320725D01*
X0046000Y0322323D02*
X0107000Y0322323D01*
X0071235Y0322323D01*
X0070532Y0323922D02*
X0107000Y0323922D01*
X0046000Y0323922D01*
X0046000Y0325520D02*
X0107000Y0325520D01*
X0069829Y0325520D01*
X0069126Y0327119D02*
X0107000Y0327119D01*
X0046000Y0327119D01*
X0046000Y0328717D02*
X0107000Y0328717D01*
X0068423Y0328717D01*
X0067720Y0330316D02*
X0107000Y0330316D01*
X0046000Y0330316D01*
X0046000Y0331914D02*
X0107000Y0331914D01*
X0067017Y0331914D01*
X0066314Y0333513D02*
X0107000Y0333513D01*
X0046000Y0333513D01*
X0046000Y0335111D02*
X0107000Y0335111D01*
X0065611Y0335111D01*
X0064908Y0336710D02*
X0107000Y0336710D01*
X0046000Y0336710D01*
X0046000Y0338308D02*
X0107000Y0338308D01*
X0064205Y0338308D01*
X0063502Y0339907D02*
X0107000Y0339907D01*
X0046000Y0339907D01*
X0046000Y0341505D02*
X0107000Y0341505D01*
X0062799Y0341505D01*
X0062096Y0343104D02*
X0107000Y0343104D01*
X0046000Y0343104D01*
X0046000Y0344702D02*
X0107000Y0344702D01*
X0061393Y0344702D01*
X0060690Y0346301D02*
X0107000Y0346301D01*
X0046000Y0346301D01*
X0046000Y0347899D02*
X0107000Y0347899D01*
X0059987Y0347899D01*
X0059284Y0349498D02*
X0107000Y0349498D01*
X0047193Y0349498D01*
X0047678Y0351096D02*
X0107000Y0351096D01*
X0058581Y0351096D01*
X0057878Y0352695D02*
X0107000Y0352695D01*
X0047527Y0352695D01*
X0046615Y0354293D02*
X0107000Y0354293D01*
X0057175Y0354293D01*
X0056472Y0355892D02*
X0107000Y0355892D01*
X0024800Y0355892D01*
X0024800Y0357490D02*
X0107000Y0357490D01*
X0055769Y0357490D01*
X0055066Y0359089D02*
X0107000Y0359089D01*
X0024800Y0359089D01*
X0024800Y0360687D02*
X0107000Y0360687D01*
X0054363Y0360687D01*
X0053660Y0362286D02*
X0107000Y0362286D01*
X0024800Y0362286D01*
X0024800Y0363884D02*
X0107000Y0363884D01*
X0052957Y0363884D01*
X0052254Y0365483D02*
X0107000Y0365483D01*
X0024800Y0365483D01*
X0024800Y0367081D02*
X0107000Y0367081D01*
X0051551Y0367081D01*
X0050848Y0368680D02*
X0107000Y0368680D01*
X0024800Y0368680D01*
X0024800Y0370278D02*
X0107000Y0370278D01*
X0050145Y0370278D01*
X0049442Y0371877D02*
X0107000Y0371877D01*
X0024800Y0371877D01*
X0024800Y0373475D02*
X0107000Y0373475D01*
X0048739Y0373475D01*
X0048036Y0375074D02*
X0107000Y0375074D01*
X0024800Y0375074D01*
X0024800Y0376672D02*
X0107000Y0376672D01*
X0047333Y0376672D01*
X0046630Y0378271D02*
X0107000Y0378271D01*
X0024800Y0378271D01*
X0024800Y0379870D02*
X0107000Y0379870D01*
X0045927Y0379870D01*
X0045223Y0381468D02*
X0107000Y0381468D01*
X0024800Y0381468D01*
X0024800Y0383067D02*
X0107000Y0383067D01*
X0044520Y0383067D01*
X0043817Y0384665D02*
X0107000Y0384665D01*
X0024800Y0384665D01*
X0024800Y0386264D02*
X0107000Y0386264D01*
X0043114Y0386264D01*
X0042411Y0387862D02*
X0107000Y0387862D01*
X0024800Y0387862D01*
X0024800Y0389461D02*
X0107000Y0389461D01*
X0041708Y0389461D01*
X0041005Y0391059D02*
X0107000Y0391059D01*
X0024800Y0391059D01*
X0024800Y0392658D02*
X0107000Y0392658D01*
X0040302Y0392658D01*
X0039599Y0394256D02*
X0107000Y0394256D01*
X0024800Y0394256D01*
X0024800Y0395855D02*
X0107000Y0395855D01*
X0038896Y0395855D01*
X0038193Y0397453D02*
X0107000Y0397453D01*
X0024800Y0397453D01*
X0024800Y0399052D02*
X0055609Y0399052D01*
X0037490Y0399052D01*
X0036787Y0400650D02*
X0054050Y0400650D01*
X0024800Y0400650D01*
X0024800Y0402249D02*
X0054050Y0402249D01*
X0036084Y0402249D01*
X0035381Y0403847D02*
X0054050Y0403847D01*
X0024800Y0403847D01*
X0024800Y0405446D02*
X0059225Y0405446D01*
X0034678Y0405446D01*
X0033975Y0407044D02*
X0054050Y0407044D01*
X0024800Y0407044D01*
X0024800Y0408643D02*
X0054050Y0408643D01*
X0033272Y0408643D01*
X0032569Y0410241D02*
X0054402Y0410241D01*
X0024800Y0410241D01*
X0024800Y0411840D02*
X0064047Y0411840D01*
X0031866Y0411840D01*
X0031163Y0413438D02*
X0064047Y0413438D01*
X0024800Y0413438D01*
X0024800Y0415037D02*
X0064047Y0415037D01*
X0030460Y0415037D01*
X0029757Y0416635D02*
X0064047Y0416635D01*
X0024800Y0416635D01*
X0024800Y0418234D02*
X0064047Y0418234D01*
X0029054Y0418234D01*
X0028351Y0419832D02*
X0054360Y0419832D01*
X0024800Y0419832D01*
X0024800Y0421431D02*
X0054050Y0421431D01*
X0027648Y0421431D01*
X0026945Y0423029D02*
X0054050Y0423029D01*
X0024800Y0423029D01*
X0024800Y0424628D02*
X0059225Y0424628D01*
X0026242Y0424628D01*
X0025539Y0426226D02*
X0054050Y0426226D01*
X0024800Y0426226D01*
X0024800Y0427825D02*
X0054050Y0427825D01*
X0024836Y0427825D01*
X0024800Y0429423D02*
X0054060Y0429423D01*
X0024800Y0429423D01*
X0054050Y0424225D02*
X0054050Y0420613D01*
X0054173Y0420156D01*
X0054410Y0419745D01*
X0054745Y0419410D01*
X0055156Y0419173D01*
X0055613Y0419050D01*
X0059225Y0419050D01*
X0059225Y0424225D01*
X0054050Y0424225D01*
X0059225Y0423029D02*
X0060775Y0423029D01*
X0059225Y0423029D01*
X0059225Y0421431D02*
X0060775Y0421431D01*
X0059225Y0421431D01*
X0059225Y0419832D02*
X0060775Y0419832D01*
X0059225Y0419832D01*
X0060775Y0419050D02*
X0064047Y0419050D01*
X0064047Y0410950D01*
X0060775Y0410950D01*
X0060775Y0405775D01*
X0065950Y0405775D01*
X0065950Y0409047D01*
X0074050Y0409047D01*
X0074050Y0405775D01*
X0079225Y0405775D01*
X0079225Y0404225D01*
X0080775Y0404225D01*
X0085950Y0404225D01*
X0085950Y0400613D01*
X0085827Y0400156D01*
X0085590Y0399745D01*
X0085255Y0399410D01*
X0084844Y0399173D01*
X0084387Y0399050D01*
X0080775Y0399050D01*
X0080775Y0404225D01*
X0079225Y0404225D01*
X0079225Y0399050D01*
X0075613Y0399050D01*
X0075156Y0399173D01*
X0074745Y0399410D01*
X0074410Y0399745D01*
X0074173Y0400156D01*
X0074050Y0400613D01*
X0074050Y0404225D01*
X0079225Y0404225D01*
X0079225Y0399050D01*
X0075613Y0399050D01*
X0075156Y0399173D01*
X0074745Y0399410D01*
X0074410Y0399745D01*
X0074173Y0400156D01*
X0074050Y0400613D01*
X0074050Y0404225D01*
X0079225Y0404225D01*
X0079225Y0405775D01*
X0074050Y0405775D01*
X0074050Y0409047D01*
X0065950Y0409047D01*
X0065950Y0405775D01*
X0060775Y0405775D01*
X0060775Y0404225D01*
X0065950Y0404225D01*
X0065950Y0400613D01*
X0065827Y0400156D01*
X0065590Y0399745D01*
X0065255Y0399410D01*
X0064844Y0399173D01*
X0064387Y0399050D01*
X0060775Y0399050D01*
X0060775Y0404225D01*
X0060775Y0405775D01*
X0059225Y0405775D01*
X0059225Y0410950D01*
X0055613Y0410950D01*
X0055156Y0410827D01*
X0054745Y0410590D01*
X0054410Y0410255D01*
X0054173Y0409844D01*
X0054050Y0409387D01*
X0054050Y0405775D01*
X0059225Y0405775D01*
X0059225Y0410950D01*
X0055613Y0410950D01*
X0055156Y0410827D01*
X0054745Y0410590D01*
X0054410Y0410255D01*
X0054173Y0409844D01*
X0054050Y0409387D01*
X0054050Y0405775D01*
X0059225Y0405775D01*
X0060775Y0405775D01*
X0060775Y0410950D01*
X0064047Y0410950D01*
X0064047Y0419050D01*
X0060775Y0419050D01*
X0060775Y0424225D01*
X0060775Y0419050D01*
X0060775Y0424628D02*
X0079225Y0424628D01*
X0060775Y0424628D01*
X0065950Y0426226D02*
X0074050Y0426226D01*
X0065950Y0426226D01*
X0065950Y0427825D02*
X0074050Y0427825D01*
X0065950Y0427825D01*
X0065940Y0429423D02*
X0074060Y0429423D01*
X0065940Y0429423D01*
X0065950Y0423029D02*
X0074050Y0423029D01*
X0065950Y0423029D01*
X0065950Y0421431D02*
X0074050Y0421431D01*
X0065950Y0421431D01*
X0060775Y0410241D02*
X0059225Y0410241D01*
X0060775Y0410241D01*
X0060775Y0408643D02*
X0059225Y0408643D01*
X0060775Y0408643D01*
X0060775Y0407044D02*
X0059225Y0407044D01*
X0060775Y0407044D01*
X0060775Y0405446D02*
X0079225Y0405446D01*
X0060775Y0405446D01*
X0060775Y0404225D02*
X0065950Y0404225D01*
X0065950Y0400613D01*
X0065827Y0400156D01*
X0065590Y0399745D01*
X0065255Y0399410D01*
X0064844Y0399173D01*
X0064387Y0399050D01*
X0060775Y0399050D01*
X0060775Y0404225D01*
X0059225Y0404225D01*
X0059225Y0399050D01*
X0055613Y0399050D01*
X0055156Y0399173D01*
X0054745Y0399410D01*
X0054410Y0399745D01*
X0054173Y0400156D01*
X0054050Y0400613D01*
X0054050Y0404225D01*
X0059225Y0404225D01*
X0059225Y0405775D01*
X0059225Y0404225D01*
X0060775Y0404225D01*
X0060775Y0403847D02*
X0059225Y0403847D01*
X0060775Y0403847D01*
X0059225Y0404225D02*
X0059225Y0399050D01*
X0055613Y0399050D01*
X0055156Y0399173D01*
X0054745Y0399410D01*
X0054410Y0399745D01*
X0054173Y0400156D01*
X0054050Y0400613D01*
X0054050Y0404225D01*
X0059225Y0404225D01*
X0059225Y0402249D02*
X0060775Y0402249D01*
X0059225Y0402249D01*
X0059225Y0400650D02*
X0060775Y0400650D01*
X0059225Y0400650D01*
X0059225Y0399052D02*
X0060775Y0399052D01*
X0059225Y0399052D01*
X0064391Y0399052D02*
X0075609Y0399052D01*
X0064391Y0399052D01*
X0065950Y0400650D02*
X0074050Y0400650D01*
X0065950Y0400650D01*
X0065950Y0402249D02*
X0074050Y0402249D01*
X0065950Y0402249D01*
X0065950Y0403847D02*
X0074050Y0403847D01*
X0065950Y0403847D01*
X0065950Y0407044D02*
X0074050Y0407044D01*
X0065950Y0407044D01*
X0065950Y0408643D02*
X0074050Y0408643D01*
X0065950Y0408643D01*
X0075953Y0411840D02*
X0107000Y0411840D01*
X0075953Y0411840D01*
X0075953Y0413438D02*
X0107000Y0413438D01*
X0075953Y0413438D01*
X0075953Y0415037D02*
X0107000Y0415037D01*
X0075953Y0415037D01*
X0075953Y0416635D02*
X0107000Y0416635D01*
X0075953Y0416635D01*
X0075953Y0418234D02*
X0107000Y0418234D01*
X0075953Y0418234D01*
X0079225Y0419832D02*
X0080775Y0419832D01*
X0079225Y0419832D01*
X0079225Y0421431D02*
X0080775Y0421431D01*
X0079225Y0421431D01*
X0079225Y0423029D02*
X0080775Y0423029D01*
X0079225Y0423029D01*
X0080775Y0424225D02*
X0080775Y0419050D01*
X0084387Y0419050D01*
X0084844Y0419173D01*
X0085255Y0419410D01*
X0085590Y0419745D01*
X0085827Y0420156D01*
X0085950Y0420613D01*
X0085950Y0424225D01*
X0080775Y0424225D01*
X0080775Y0424628D02*
X0107000Y0424628D01*
X0080775Y0424628D01*
X0085950Y0426226D02*
X0107000Y0426226D01*
X0085950Y0426226D01*
X0085950Y0427825D02*
X0107000Y0427825D01*
X0085950Y0427825D01*
X0085940Y0429423D02*
X0107000Y0429423D01*
X0085940Y0429423D01*
X0085950Y0423029D02*
X0107000Y0423029D01*
X0085950Y0423029D01*
X0085950Y0421431D02*
X0107000Y0421431D01*
X0085950Y0421431D01*
X0085640Y0419832D02*
X0107000Y0419832D01*
X0085640Y0419832D01*
X0084387Y0410950D02*
X0080775Y0410950D01*
X0080775Y0405775D01*
X0085950Y0405775D01*
X0085950Y0409387D01*
X0085827Y0409844D01*
X0085590Y0410255D01*
X0085255Y0410590D01*
X0084844Y0410827D01*
X0084387Y0410950D01*
X0085598Y0410241D02*
X0107000Y0410241D01*
X0085598Y0410241D01*
X0085950Y0408643D02*
X0107000Y0408643D01*
X0085950Y0408643D01*
X0085950Y0407044D02*
X0107000Y0407044D01*
X0085950Y0407044D01*
X0085950Y0403847D02*
X0107000Y0403847D01*
X0085950Y0403847D01*
X0085950Y0402249D02*
X0107000Y0402249D01*
X0085950Y0402249D01*
X0085950Y0400650D02*
X0107000Y0400650D01*
X0085950Y0400650D01*
X0084391Y0399052D02*
X0107000Y0399052D01*
X0084391Y0399052D01*
X0080775Y0399052D02*
X0079225Y0399052D01*
X0080775Y0399052D01*
X0080775Y0400650D02*
X0079225Y0400650D01*
X0080775Y0400650D01*
X0080775Y0402249D02*
X0079225Y0402249D01*
X0080775Y0402249D01*
X0080775Y0403847D02*
X0079225Y0403847D01*
X0080775Y0403847D01*
X0080775Y0405446D02*
X0107000Y0405446D01*
X0080775Y0405446D01*
X0080775Y0407044D02*
X0079225Y0407044D01*
X0080775Y0407044D01*
X0080775Y0408643D02*
X0079225Y0408643D01*
X0080775Y0408643D01*
X0080775Y0410241D02*
X0079225Y0410241D01*
X0080775Y0410241D01*
X0040385Y0354293D02*
X0024800Y0354293D01*
X0024800Y0352695D02*
X0039473Y0352695D01*
X0039322Y0351096D02*
X0024800Y0351096D01*
X0024800Y0349498D02*
X0039807Y0349498D01*
X0041000Y0347899D02*
X0024800Y0347899D01*
X0024800Y0346301D02*
X0041000Y0346301D01*
X0041000Y0344702D02*
X0024800Y0344702D01*
X0024800Y0343104D02*
X0041000Y0343104D01*
X0041000Y0341505D02*
X0024800Y0341505D01*
X0024800Y0339907D02*
X0041000Y0339907D01*
X0041000Y0338308D02*
X0024800Y0338308D01*
X0024800Y0336710D02*
X0041000Y0336710D01*
X0041000Y0335111D02*
X0024800Y0335111D01*
X0024800Y0333513D02*
X0041000Y0333513D01*
X0041000Y0331914D02*
X0024800Y0331914D01*
X0024800Y0330316D02*
X0041000Y0330316D01*
X0041000Y0328717D02*
X0024800Y0328717D01*
X0024800Y0327119D02*
X0041000Y0327119D01*
X0041000Y0325520D02*
X0024800Y0325520D01*
X0024800Y0323922D02*
X0041000Y0323922D01*
X0041000Y0322323D02*
X0024800Y0322323D01*
X0024800Y0320725D02*
X0041000Y0320725D01*
X0041000Y0319126D02*
X0024800Y0319126D01*
X0024800Y0317528D02*
X0041000Y0317528D01*
X0041000Y0315929D02*
X0024800Y0315929D01*
X0024800Y0314331D02*
X0041000Y0314331D01*
X0041000Y0312732D02*
X0024800Y0312732D01*
X0024800Y0311134D02*
X0041000Y0311134D01*
X0041000Y0309535D02*
X0024800Y0309535D01*
X0024800Y0307937D02*
X0041000Y0307937D01*
X0041000Y0306338D02*
X0024800Y0306338D01*
X0024800Y0304739D02*
X0041000Y0304739D01*
X0041000Y0303141D02*
X0024800Y0303141D01*
X0024800Y0301542D02*
X0041000Y0301542D01*
X0041000Y0299944D02*
X0024800Y0299944D01*
X0024800Y0298345D02*
X0041000Y0298345D01*
X0041000Y0296747D02*
X0024800Y0296747D01*
X0024800Y0295148D02*
X0041000Y0295148D01*
X0041000Y0293550D02*
X0024800Y0293550D01*
X0024800Y0291951D02*
X0041000Y0291951D01*
X0041000Y0290353D02*
X0024800Y0290353D01*
X0024800Y0288754D02*
X0041000Y0288754D01*
X0041000Y0287156D02*
X0024800Y0287156D01*
X0024800Y0285557D02*
X0041000Y0285557D01*
X0041000Y0283959D02*
X0024800Y0283959D01*
X0024800Y0282360D02*
X0041000Y0282360D01*
X0041100Y0280762D02*
X0024800Y0280762D01*
X0024800Y0279163D02*
X0042301Y0279163D01*
X0043900Y0277565D02*
X0024800Y0277565D01*
X0024800Y0275966D02*
X0045498Y0275966D01*
X0047097Y0274368D02*
X0024800Y0274368D01*
X0035900Y0258383D02*
X0036100Y0258383D01*
X0036100Y0256784D02*
X0035900Y0256784D01*
X0035900Y0255186D02*
X0036100Y0255186D01*
X0036100Y0253587D02*
X0035900Y0253587D01*
X0035900Y0251989D02*
X0036100Y0251989D01*
X0036100Y0250390D02*
X0035900Y0250390D01*
X0035900Y0248792D02*
X0036100Y0248792D01*
X0036100Y0247193D02*
X0035900Y0247193D01*
X0024800Y0243996D02*
X0107000Y0243996D01*
X0105682Y0243996D01*
X0104979Y0245595D02*
X0107000Y0245595D01*
X0098129Y0245595D01*
X0098662Y0245816D02*
X0099984Y0247138D01*
X0100700Y0248865D01*
X0100700Y0256135D01*
X0099984Y0257862D01*
X0098662Y0259184D01*
X0096935Y0259900D01*
X0095065Y0259900D01*
X0093338Y0259184D01*
X0092016Y0257862D01*
X0091300Y0256135D01*
X0091300Y0248865D01*
X0092016Y0247138D01*
X0093338Y0245816D01*
X0095065Y0245100D01*
X0096935Y0245100D01*
X0098662Y0245816D01*
X0100007Y0247193D02*
X0107000Y0247193D01*
X0104276Y0247193D01*
X0103573Y0248792D02*
X0107000Y0248792D01*
X0100670Y0248792D01*
X0100700Y0250390D02*
X0107000Y0250390D01*
X0102870Y0250390D01*
X0102167Y0251989D02*
X0107000Y0251989D01*
X0100700Y0251989D01*
X0100700Y0253587D02*
X0107000Y0253587D01*
X0101464Y0253587D01*
X0100761Y0255186D02*
X0107000Y0255186D01*
X0100700Y0255186D01*
X0100431Y0256784D02*
X0107000Y0256784D01*
X0100431Y0256784D01*
X0099464Y0258383D02*
X0107000Y0258383D01*
X0099464Y0258383D01*
X0098652Y0259981D02*
X0107000Y0259981D01*
X0058000Y0259981D01*
X0058000Y0261580D02*
X0107000Y0261580D01*
X0097949Y0261580D01*
X0097246Y0263178D02*
X0107000Y0263178D01*
X0058000Y0263178D01*
X0058000Y0264777D02*
X0107000Y0264777D01*
X0096543Y0264777D01*
X0095840Y0266375D02*
X0107000Y0266375D01*
X0058000Y0266375D01*
X0058000Y0267974D02*
X0107000Y0267974D01*
X0095137Y0267974D01*
X0094434Y0269572D02*
X0107000Y0269572D01*
X0058000Y0269572D01*
X0059464Y0258383D02*
X0062536Y0258383D01*
X0062016Y0257862D02*
X0061300Y0256135D01*
X0061300Y0248865D01*
X0062016Y0247138D01*
X0063338Y0245816D01*
X0065065Y0245100D01*
X0066935Y0245100D01*
X0068662Y0245816D01*
X0069984Y0247138D01*
X0070700Y0248865D01*
X0070700Y0256135D01*
X0069984Y0257862D01*
X0068662Y0259184D01*
X0066935Y0259900D01*
X0065065Y0259900D01*
X0063338Y0259184D01*
X0062016Y0257862D01*
X0061569Y0256784D02*
X0060431Y0256784D01*
X0060700Y0255186D02*
X0061300Y0255186D01*
X0061300Y0253587D02*
X0060700Y0253587D01*
X0060700Y0251989D02*
X0061300Y0251989D01*
X0061300Y0250390D02*
X0060700Y0250390D01*
X0060670Y0248792D02*
X0061330Y0248792D01*
X0061993Y0247193D02*
X0060007Y0247193D01*
X0058129Y0245595D02*
X0063871Y0245595D01*
X0068129Y0245595D02*
X0073871Y0245595D01*
X0073338Y0245816D02*
X0075065Y0245100D01*
X0076935Y0245100D01*
X0078662Y0245816D01*
X0079984Y0247138D01*
X0080700Y0248865D01*
X0080700Y0256135D01*
X0079984Y0257862D01*
X0078662Y0259184D01*
X0076935Y0259900D01*
X0075065Y0259900D01*
X0073338Y0259184D01*
X0072016Y0257862D01*
X0071300Y0256135D01*
X0071300Y0248865D01*
X0072016Y0247138D01*
X0073338Y0245816D01*
X0071993Y0247193D02*
X0070007Y0247193D01*
X0070670Y0248792D02*
X0071330Y0248792D01*
X0071300Y0250390D02*
X0070700Y0250390D01*
X0070700Y0251989D02*
X0071300Y0251989D01*
X0071300Y0253587D02*
X0070700Y0253587D01*
X0070700Y0255186D02*
X0071300Y0255186D01*
X0071569Y0256784D02*
X0070431Y0256784D01*
X0069464Y0258383D02*
X0072536Y0258383D01*
X0078129Y0245595D02*
X0083871Y0245595D01*
X0083338Y0245816D02*
X0085065Y0245100D01*
X0086935Y0245100D01*
X0088662Y0245816D01*
X0089984Y0247138D01*
X0090700Y0248865D01*
X0090700Y0256135D01*
X0089984Y0257862D01*
X0088662Y0259184D01*
X0086935Y0259900D01*
X0085065Y0259900D01*
X0083338Y0259184D01*
X0082016Y0257862D01*
X0081300Y0256135D01*
X0081300Y0248865D01*
X0082016Y0247138D01*
X0083338Y0245816D01*
X0081993Y0247193D02*
X0080007Y0247193D01*
X0080670Y0248792D02*
X0081330Y0248792D01*
X0081300Y0250390D02*
X0080700Y0250390D01*
X0080700Y0251989D02*
X0081300Y0251989D01*
X0081300Y0253587D02*
X0080700Y0253587D01*
X0080700Y0255186D02*
X0081300Y0255186D01*
X0081569Y0256784D02*
X0080431Y0256784D01*
X0079464Y0258383D02*
X0082536Y0258383D01*
X0088129Y0245595D02*
X0093871Y0245595D01*
X0091993Y0247193D02*
X0090007Y0247193D01*
X0090670Y0248792D02*
X0091330Y0248792D01*
X0091300Y0250390D02*
X0090700Y0250390D01*
X0090700Y0251989D02*
X0091300Y0251989D01*
X0091300Y0253587D02*
X0090700Y0253587D01*
X0090700Y0255186D02*
X0091300Y0255186D01*
X0091569Y0256784D02*
X0090431Y0256784D01*
X0089464Y0258383D02*
X0092536Y0258383D01*
X0106385Y0242398D02*
X0107000Y0242398D01*
X0024800Y0242398D01*
D17*
X0024500Y0062000D02*
X0028500Y0058000D01*
X0032000Y0058000D01*
X0024500Y0062000D02*
X0024500Y0071000D01*
X0061000Y0107500D01*
X0064000Y0107500D01*
X0060500Y0107500D01*
X0053000Y0115000D01*
X0053000Y0185000D01*
X0064000Y0196000D01*
X0078000Y0211000D02*
X0075000Y0214000D01*
X0046000Y0214000D01*
X0037000Y0223000D01*
X0056000Y0252500D02*
X0055500Y0253000D01*
X0055500Y0269500D01*
X0043500Y0281500D01*
X0043500Y0351500D01*
X0078000Y0211000D02*
X0078000Y0182000D01*
X0085500Y0119500D02*
X0089250Y0115750D01*
X0105750Y0115750D01*
X0105000Y0116500D01*
X0105750Y0115750D02*
X0112500Y0109000D01*
X0112500Y0102500D01*
X0103000Y0092000D02*
X0114000Y0081000D01*
X0120500Y0062000D02*
X0151000Y0092500D01*
X0120500Y0062000D02*
X0105000Y0062000D01*
X0103000Y0092000D02*
X0099000Y0092000D01*
X0071000Y0057000D02*
X0053000Y0057000D01*
X0052000Y0058000D01*
X0128800Y0304000D02*
X0128800Y0322733D01*
X0162400Y0356333D01*
X0162400Y0389900D01*
X0162500Y0390000D01*
X0162500Y0390500D01*
X0155500Y0397500D01*
X0157200Y0396000D01*
X0155500Y0387500D02*
X0143800Y0375800D01*
X0143800Y0343133D01*
X0128800Y0328133D01*
X0128800Y0327400D01*
X0140500Y0344500D02*
X0140500Y0412900D01*
X0151300Y0423700D01*
X0155500Y0427500D01*
X0155500Y0387500D02*
X0151300Y0384100D01*
D18*
X0140500Y0344500D03*
X0128800Y0327400D03*
X0128800Y0304000D03*
M02*
