G75*
%MOIN*%
%OFA0B0*%
%FSLAX25Y25*%
%IPPOS*%
%LPD*%
%AMOC8*
5,1,8,0,0,1.08239X$1,22.5*
%
%ADD10C,0.05600*%
%ADD11C,0.04000*%
%ADD12R,0.09449X0.09449*%
%ADD13R,0.08858X0.08858*%
%ADD14C,0.04356*%
%ADD15C,0.01600*%
%ADD16C,0.01000*%
D10*
X0051750Y0036700D02*
X0051750Y0042300D01*
X0061750Y0042300D02*
X0061750Y0036700D01*
X0071750Y0036700D02*
X0071750Y0042300D01*
X0081750Y0042300D02*
X0081750Y0036700D01*
X0091750Y0036700D02*
X0091750Y0042300D01*
X0101750Y0042300D02*
X0101750Y0036700D01*
X0114750Y0036700D02*
X0114750Y0042300D01*
X0124750Y0042300D02*
X0124750Y0036700D01*
X0134750Y0036700D02*
X0134750Y0042300D01*
X0153950Y0109250D02*
X0159550Y0109250D01*
X0159550Y0119250D02*
X0153950Y0119250D01*
X0153950Y0129250D02*
X0159550Y0129250D01*
X0159550Y0139250D02*
X0153950Y0139250D01*
X0153950Y0149250D02*
X0159550Y0149250D01*
X0162000Y0179700D02*
X0162000Y0185300D01*
X0152000Y0185300D02*
X0152000Y0179700D01*
X0142000Y0179700D02*
X0142000Y0185300D01*
X0132000Y0185300D02*
X0132000Y0179700D01*
X0122000Y0179700D02*
X0122000Y0185300D01*
X0112000Y0185300D02*
X0112000Y0179700D01*
X0102000Y0179700D02*
X0102000Y0185300D01*
X0088750Y0185300D02*
X0088750Y0179700D01*
X0078750Y0179700D02*
X0078750Y0185300D01*
X0068750Y0185300D02*
X0068750Y0179700D01*
X0058750Y0179700D02*
X0058750Y0185300D01*
X0048750Y0185300D02*
X0048750Y0179700D01*
X0038750Y0179700D02*
X0038750Y0185300D01*
X0028750Y0185300D02*
X0028750Y0179700D01*
X0036000Y0239700D02*
X0036000Y0245300D01*
X0046000Y0245300D02*
X0046000Y0239700D01*
X0056000Y0239700D02*
X0056000Y0245300D01*
X0066000Y0245300D02*
X0066000Y0239700D01*
X0076000Y0239700D02*
X0076000Y0245300D01*
X0086000Y0245300D02*
X0086000Y0239700D01*
X0096000Y0239700D02*
X0096000Y0245300D01*
X0152700Y0377500D02*
X0158300Y0377500D01*
X0158300Y0387500D02*
X0152700Y0387500D01*
X0152700Y0397500D02*
X0158300Y0397500D01*
X0158300Y0407500D02*
X0152700Y0407500D01*
X0152700Y0417500D02*
X0158300Y0417500D01*
D11*
X0140500Y0334500D03*
X0128800Y0317400D03*
X0128800Y0294000D03*
X0049500Y0062000D03*
X0049500Y0057000D03*
X0044500Y0057000D03*
X0044500Y0062000D03*
X0039500Y0062000D03*
X0039500Y0057000D03*
X0034500Y0057000D03*
X0034500Y0062000D03*
X0029500Y0062000D03*
X0029500Y0057000D03*
D12*
X0060000Y0395000D03*
X0060000Y0415000D03*
X0080000Y0415000D03*
X0080000Y0395000D03*
D13*
X0070000Y0405000D03*
D14*
X0070000Y0360000D03*
X0070000Y0350000D03*
X0080000Y0350000D03*
X0080000Y0360000D03*
X0090000Y0360000D03*
X0090000Y0350000D03*
X0090000Y0380000D03*
X0090000Y0390000D03*
X0090000Y0400000D03*
X0090000Y0410000D03*
X0090000Y0418000D03*
X0100000Y0418000D03*
X0100000Y0410000D03*
X0100000Y0400000D03*
X0100000Y0390000D03*
X0100000Y0380000D03*
X0060000Y0360000D03*
X0060000Y0350000D03*
X0050000Y0350000D03*
X0050000Y0360000D03*
X0043500Y0341500D03*
X0040000Y0350000D03*
X0040000Y0360000D03*
X0040000Y0380000D03*
X0040000Y0390000D03*
X0040000Y0400000D03*
X0040000Y0410000D03*
X0040000Y0418000D03*
X0030000Y0418000D03*
X0030000Y0410000D03*
X0030000Y0400000D03*
X0030000Y0390000D03*
X0030000Y0380000D03*
X0050000Y0380000D03*
X0050000Y0390000D03*
X0050000Y0400000D03*
X0050000Y0410000D03*
X0050000Y0418000D03*
X0055000Y0270000D03*
X0065000Y0270000D03*
X0075000Y0270000D03*
X0105000Y0265000D03*
X0105000Y0255000D03*
X0105000Y0245000D03*
X0105000Y0235000D03*
X0125000Y0125000D03*
X0134500Y0105000D03*
X0151000Y0092500D03*
X0130500Y0055500D03*
X0112500Y0102500D03*
X0097000Y0094000D03*
X0093500Y0083000D03*
X0105000Y0062000D03*
X0085500Y0119500D03*
X0064000Y0107500D03*
X0060000Y0115000D03*
X0064000Y0081500D03*
X0071000Y0057000D03*
X0027000Y0235000D03*
X0027000Y0245000D03*
X0027000Y0255000D03*
X0027000Y0265000D03*
D15*
X0024800Y0264777D02*
X0046688Y0264777D01*
X0045089Y0266375D02*
X0024800Y0266375D01*
X0024800Y0267974D02*
X0043491Y0267974D01*
X0041892Y0269572D02*
X0024800Y0269572D01*
X0024800Y0271171D02*
X0041000Y0271171D01*
X0041000Y0271003D02*
X0041381Y0270084D01*
X0053000Y0258464D01*
X0053000Y0249088D01*
X0051931Y0248019D01*
X0051200Y0246255D01*
X0051200Y0238745D01*
X0051931Y0236981D01*
X0053281Y0235631D01*
X0055045Y0234900D01*
X0056955Y0234900D01*
X0058719Y0235631D01*
X0060069Y0236981D01*
X0060800Y0238745D01*
X0060800Y0246255D01*
X0060069Y0248019D01*
X0058719Y0249369D01*
X0058000Y0249667D01*
X0058000Y0259997D01*
X0057619Y0260916D01*
X0056916Y0261619D01*
X0046000Y0272536D01*
X0046000Y0338091D01*
X0047042Y0339133D01*
X0047678Y0340669D01*
X0047678Y0342331D01*
X0047042Y0343867D01*
X0045867Y0345042D01*
X0044331Y0345678D01*
X0042669Y0345678D01*
X0041133Y0345042D01*
X0039958Y0343867D01*
X0039322Y0342331D01*
X0039322Y0340669D01*
X0039958Y0339133D01*
X0041000Y0338091D01*
X0041000Y0271003D01*
X0041000Y0272769D02*
X0024800Y0272769D01*
X0024800Y0274368D02*
X0041000Y0274368D01*
X0041000Y0275966D02*
X0024800Y0275966D01*
X0024800Y0277565D02*
X0041000Y0277565D01*
X0041000Y0279163D02*
X0024800Y0279163D01*
X0024800Y0280762D02*
X0041000Y0280762D01*
X0041000Y0282360D02*
X0024800Y0282360D01*
X0024800Y0283959D02*
X0041000Y0283959D01*
X0041000Y0285557D02*
X0024800Y0285557D01*
X0024800Y0287156D02*
X0041000Y0287156D01*
X0041000Y0288754D02*
X0024800Y0288754D01*
X0024800Y0290353D02*
X0041000Y0290353D01*
X0041000Y0291951D02*
X0024800Y0291951D01*
X0024800Y0293550D02*
X0041000Y0293550D01*
X0041000Y0295148D02*
X0024800Y0295148D01*
X0024800Y0296747D02*
X0041000Y0296747D01*
X0041000Y0298345D02*
X0024800Y0298345D01*
X0024800Y0299944D02*
X0041000Y0299944D01*
X0041000Y0301542D02*
X0024800Y0301542D01*
X0024800Y0303141D02*
X0041000Y0303141D01*
X0041000Y0304739D02*
X0024800Y0304739D01*
X0024800Y0306338D02*
X0041000Y0306338D01*
X0041000Y0307937D02*
X0024800Y0307937D01*
X0024800Y0309535D02*
X0041000Y0309535D01*
X0041000Y0311134D02*
X0024800Y0311134D01*
X0024800Y0312732D02*
X0041000Y0312732D01*
X0041000Y0314331D02*
X0024800Y0314331D01*
X0024800Y0315929D02*
X0041000Y0315929D01*
X0041000Y0317528D02*
X0024800Y0317528D01*
X0024800Y0319126D02*
X0041000Y0319126D01*
X0041000Y0320725D02*
X0024800Y0320725D01*
X0024800Y0322323D02*
X0041000Y0322323D01*
X0041000Y0323922D02*
X0024800Y0323922D01*
X0024800Y0325520D02*
X0041000Y0325520D01*
X0041000Y0327119D02*
X0024800Y0327119D01*
X0024800Y0328717D02*
X0041000Y0328717D01*
X0041000Y0330316D02*
X0024800Y0330316D01*
X0024800Y0331914D02*
X0041000Y0331914D01*
X0041000Y0333513D02*
X0024800Y0333513D01*
X0024800Y0335111D02*
X0041000Y0335111D01*
X0041000Y0336710D02*
X0024800Y0336710D01*
X0024800Y0338308D02*
X0040783Y0338308D01*
X0039638Y0339907D02*
X0024800Y0339907D01*
X0024800Y0341505D02*
X0039322Y0341505D01*
X0039642Y0343104D02*
X0024800Y0343104D01*
X0024800Y0344702D02*
X0040794Y0344702D01*
X0046206Y0344702D02*
X0107000Y0344702D01*
X0056995Y0344702D01*
X0057698Y0343104D02*
X0107000Y0343104D01*
X0047358Y0343104D01*
X0047678Y0341505D02*
X0107000Y0341505D01*
X0058401Y0341505D01*
X0059104Y0339907D02*
X0107000Y0339907D01*
X0047362Y0339907D01*
X0046217Y0338308D02*
X0107000Y0338308D01*
X0059807Y0338308D01*
X0060510Y0336710D02*
X0107000Y0336710D01*
X0046000Y0336710D01*
X0046000Y0335111D02*
X0107000Y0335111D01*
X0061213Y0335111D01*
X0061916Y0333513D02*
X0107000Y0333513D01*
X0046000Y0333513D01*
X0046000Y0331914D02*
X0107000Y0331914D01*
X0062619Y0331914D01*
X0063322Y0330316D02*
X0107000Y0330316D01*
X0046000Y0330316D01*
X0046000Y0328717D02*
X0107000Y0328717D01*
X0064025Y0328717D01*
X0064728Y0327119D02*
X0107000Y0327119D01*
X0046000Y0327119D01*
X0046000Y0325520D02*
X0107000Y0325520D01*
X0065431Y0325520D01*
X0066134Y0323922D02*
X0107000Y0323922D01*
X0046000Y0323922D01*
X0046000Y0322323D02*
X0107000Y0322323D01*
X0066837Y0322323D01*
X0067540Y0320725D02*
X0107000Y0320725D01*
X0046000Y0320725D01*
X0046000Y0319126D02*
X0107000Y0319126D01*
X0068243Y0319126D01*
X0068946Y0317528D02*
X0107000Y0317528D01*
X0046000Y0317528D01*
X0046000Y0315929D02*
X0107000Y0315929D01*
X0069649Y0315929D01*
X0070352Y0314331D02*
X0107000Y0314331D01*
X0046000Y0314331D01*
X0046000Y0312732D02*
X0107000Y0312732D01*
X0071055Y0312732D01*
X0071758Y0311134D02*
X0107000Y0311134D01*
X0046000Y0311134D01*
X0046000Y0309535D02*
X0107000Y0309535D01*
X0072461Y0309535D01*
X0073164Y0307937D02*
X0107000Y0307937D01*
X0046000Y0307937D01*
X0046000Y0306338D02*
X0107000Y0306338D01*
X0073867Y0306338D01*
X0074570Y0304739D02*
X0107000Y0304739D01*
X0046000Y0304739D01*
X0046000Y0303141D02*
X0107000Y0303141D01*
X0075273Y0303141D01*
X0075976Y0301542D02*
X0107000Y0301542D01*
X0046000Y0301542D01*
X0046000Y0299944D02*
X0107000Y0299944D01*
X0076679Y0299944D01*
X0077382Y0298345D02*
X0107000Y0298345D01*
X0046000Y0298345D01*
X0046000Y0296747D02*
X0107000Y0296747D01*
X0078085Y0296747D01*
X0078788Y0295148D02*
X0107000Y0295148D01*
X0046000Y0295148D01*
X0046000Y0293550D02*
X0107000Y0293550D01*
X0079491Y0293550D01*
X0080194Y0291951D02*
X0107000Y0291951D01*
X0046000Y0291951D01*
X0046000Y0290353D02*
X0107000Y0290353D01*
X0080897Y0290353D01*
X0081600Y0288754D02*
X0107000Y0288754D01*
X0046000Y0288754D01*
X0046000Y0287156D02*
X0107000Y0287156D01*
X0082303Y0287156D01*
X0083006Y0285557D02*
X0107000Y0285557D01*
X0046000Y0285557D01*
X0046000Y0283959D02*
X0107000Y0283959D01*
X0083709Y0283959D01*
X0084412Y0282360D02*
X0107000Y0282360D01*
X0046000Y0282360D01*
X0046000Y0280762D02*
X0107000Y0280762D01*
X0085115Y0280762D01*
X0085818Y0279163D02*
X0107000Y0279163D01*
X0046000Y0279163D01*
X0046000Y0277565D02*
X0107000Y0277565D01*
X0086521Y0277565D01*
X0087224Y0275966D02*
X0107000Y0275966D01*
X0046000Y0275966D01*
X0046000Y0274368D02*
X0107000Y0274368D01*
X0087927Y0274368D01*
X0088630Y0272769D02*
X0107000Y0272769D01*
X0046000Y0272769D01*
X0047365Y0271171D02*
X0107000Y0271171D01*
X0089333Y0271171D01*
X0090036Y0269572D02*
X0107000Y0269572D01*
X0048963Y0269572D01*
X0050562Y0267974D02*
X0107000Y0267974D01*
X0090739Y0267974D01*
X0091442Y0266375D02*
X0107000Y0266375D01*
X0052160Y0266375D01*
X0053759Y0264777D02*
X0107000Y0264777D01*
X0092145Y0264777D01*
X0092848Y0263178D02*
X0107000Y0263178D01*
X0055357Y0263178D01*
X0056956Y0261580D02*
X0107000Y0261580D01*
X0093551Y0261580D01*
X0094254Y0259981D02*
X0107000Y0259981D01*
X0058000Y0259981D01*
X0058000Y0258383D02*
X0107000Y0258383D01*
X0094957Y0258383D01*
X0095660Y0256784D02*
X0107000Y0256784D01*
X0058000Y0256784D01*
X0058000Y0255186D02*
X0107000Y0255186D01*
X0096363Y0255186D01*
X0097066Y0253587D02*
X0107000Y0253587D01*
X0058000Y0253587D01*
X0058000Y0251989D02*
X0107000Y0251989D01*
X0097769Y0251989D01*
X0098472Y0250390D02*
X0107000Y0250390D01*
X0058000Y0250390D01*
X0059297Y0248792D02*
X0062703Y0248792D01*
X0063281Y0249369D02*
X0061931Y0248019D01*
X0061200Y0246255D01*
X0061200Y0238745D01*
X0061931Y0236981D01*
X0063281Y0235631D01*
X0065045Y0234900D01*
X0066955Y0234900D01*
X0068719Y0235631D01*
X0070069Y0236981D01*
X0070800Y0238745D01*
X0070800Y0246255D01*
X0070069Y0248019D01*
X0068719Y0249369D01*
X0066955Y0250100D01*
X0065045Y0250100D01*
X0063281Y0249369D01*
X0061589Y0247193D02*
X0060411Y0247193D01*
X0060800Y0245595D02*
X0061200Y0245595D01*
X0061200Y0243996D02*
X0060800Y0243996D01*
X0060800Y0242398D02*
X0061200Y0242398D01*
X0061200Y0240799D02*
X0060800Y0240799D01*
X0060800Y0239201D02*
X0061200Y0239201D01*
X0061674Y0237602D02*
X0060326Y0237602D01*
X0059092Y0236003D02*
X0062908Y0236003D01*
X0063229Y0231178D02*
X0060771Y0231178D01*
X0060342Y0231000D01*
X0059658Y0231000D01*
X0059229Y0231178D01*
X0056771Y0231178D01*
X0056342Y0231000D01*
X0055658Y0231000D01*
X0055229Y0231178D01*
X0052771Y0231178D01*
X0052342Y0231000D01*
X0051658Y0231000D01*
X0051229Y0231178D01*
X0048771Y0231178D01*
X0048342Y0231000D01*
X0047658Y0231000D01*
X0047229Y0231178D01*
X0044771Y0231178D01*
X0044342Y0231000D01*
X0043658Y0231000D01*
X0043229Y0231178D01*
X0040771Y0231178D01*
X0040342Y0231000D01*
X0039658Y0231000D01*
X0039229Y0231178D01*
X0036771Y0231178D01*
X0036342Y0231000D01*
X0035658Y0231000D01*
X0035229Y0231178D01*
X0032771Y0231178D01*
X0032342Y0231000D01*
X0031658Y0231000D01*
X0031229Y0231178D01*
X0028771Y0231178D01*
X0028342Y0231000D01*
X0027658Y0231000D01*
X0027229Y0231178D01*
X0024800Y0231178D01*
X0024800Y0420200D01*
X0053540Y0420200D01*
X0053476Y0419961D01*
X0053476Y0415775D01*
X0059225Y0415775D01*
X0059225Y0414225D01*
X0060775Y0414225D01*
X0060775Y0415775D01*
X0066524Y0415775D01*
X0066524Y0419961D01*
X0066460Y0420200D01*
X0073540Y0420200D01*
X0073476Y0419961D01*
X0073476Y0415775D01*
X0079225Y0415775D01*
X0079225Y0414225D01*
X0073476Y0414225D01*
X0073476Y0411429D01*
X0066524Y0411429D01*
X0066524Y0414225D01*
X0060775Y0414225D01*
X0060775Y0415775D01*
X0066524Y0415775D01*
X0066524Y0419961D01*
X0066460Y0420200D01*
X0073540Y0420200D01*
X0073476Y0419961D01*
X0073476Y0415775D01*
X0079225Y0415775D01*
X0079225Y0414225D01*
X0080775Y0414225D01*
X0080775Y0415775D01*
X0086524Y0415775D01*
X0086524Y0419961D01*
X0086460Y0420200D01*
X0107000Y0420200D01*
X0107000Y0231178D01*
X0106922Y0231178D01*
X0100800Y0245098D01*
X0100800Y0246255D01*
X0100069Y0248019D01*
X0099080Y0249008D01*
X0024800Y0417907D01*
X0024800Y0420200D01*
X0053540Y0420200D01*
X0053476Y0419961D01*
X0053476Y0415775D01*
X0059225Y0415775D01*
X0059225Y0414225D01*
X0059225Y0408476D01*
X0055039Y0408476D01*
X0054581Y0408598D01*
X0054170Y0408835D01*
X0053835Y0409170D01*
X0053598Y0409581D01*
X0053476Y0410039D01*
X0053476Y0414225D01*
X0059225Y0414225D01*
X0060775Y0414225D01*
X0066524Y0414225D01*
X0066524Y0411429D01*
X0073476Y0411429D01*
X0073476Y0414225D01*
X0079225Y0414225D01*
X0079225Y0408476D01*
X0076429Y0408476D01*
X0076429Y0401524D01*
X0079225Y0401524D01*
X0079225Y0395775D01*
X0080775Y0395775D01*
X0080775Y0401524D01*
X0084961Y0401524D01*
X0085419Y0401402D01*
X0085830Y0401165D01*
X0086165Y0400830D01*
X0086402Y0400419D01*
X0086524Y0399961D01*
X0086524Y0395775D01*
X0080775Y0395775D01*
X0080775Y0394225D01*
X0086524Y0394225D01*
X0086524Y0390039D01*
X0086402Y0389581D01*
X0086165Y0389170D01*
X0085830Y0388835D01*
X0085419Y0388598D01*
X0084961Y0388476D01*
X0080775Y0388476D01*
X0080775Y0394225D01*
X0080775Y0395775D01*
X0079225Y0395775D01*
X0079225Y0401524D01*
X0076429Y0401524D01*
X0076429Y0408476D01*
X0079225Y0408476D01*
X0079225Y0414225D01*
X0080775Y0414225D01*
X0086524Y0414225D01*
X0086524Y0410039D01*
X0086402Y0409581D01*
X0086165Y0409170D01*
X0085830Y0408835D01*
X0085419Y0408598D01*
X0084961Y0408476D01*
X0080775Y0408476D01*
X0080775Y0414225D01*
X0080775Y0415775D01*
X0086524Y0415775D01*
X0086524Y0419961D01*
X0086460Y0420200D01*
X0107000Y0420200D01*
X0107000Y0231178D01*
X0104771Y0231178D01*
X0104342Y0231000D01*
X0103658Y0231000D01*
X0103229Y0231178D01*
X0100771Y0231178D01*
X0100342Y0231000D01*
X0099658Y0231000D01*
X0099229Y0231178D01*
X0096771Y0231178D01*
X0096342Y0231000D01*
X0095658Y0231000D01*
X0095229Y0231178D01*
X0092771Y0231178D01*
X0092342Y0231000D01*
X0091658Y0231000D01*
X0091229Y0231178D01*
X0088771Y0231178D01*
X0088342Y0231000D01*
X0087658Y0231000D01*
X0087229Y0231178D01*
X0084771Y0231178D01*
X0084342Y0231000D01*
X0083658Y0231000D01*
X0083229Y0231178D01*
X0080771Y0231178D01*
X0080342Y0231000D01*
X0079658Y0231000D01*
X0079229Y0231178D01*
X0076771Y0231178D01*
X0076342Y0231000D01*
X0075658Y0231000D01*
X0075229Y0231178D01*
X0072771Y0231178D01*
X0072342Y0231000D01*
X0071658Y0231000D01*
X0071229Y0231178D01*
X0068771Y0231178D01*
X0068342Y0231000D01*
X0067658Y0231000D01*
X0067229Y0231178D01*
X0064771Y0231178D01*
X0064342Y0231000D01*
X0063658Y0231000D01*
X0063229Y0231178D01*
X0069092Y0236003D02*
X0072908Y0236003D01*
X0073281Y0235631D02*
X0075045Y0234900D01*
X0076955Y0234900D01*
X0078719Y0235631D01*
X0080069Y0236981D01*
X0080800Y0238745D01*
X0080800Y0246255D01*
X0080069Y0248019D01*
X0078719Y0249369D01*
X0076955Y0250100D01*
X0075045Y0250100D01*
X0073281Y0249369D01*
X0071931Y0248019D01*
X0071200Y0246255D01*
X0071200Y0238745D01*
X0071931Y0236981D01*
X0073281Y0235631D01*
X0071674Y0237602D02*
X0070326Y0237602D01*
X0070800Y0239201D02*
X0071200Y0239201D01*
X0071200Y0240799D02*
X0070800Y0240799D01*
X0070800Y0242398D02*
X0071200Y0242398D01*
X0071200Y0243996D02*
X0070800Y0243996D01*
X0070800Y0245595D02*
X0071200Y0245595D01*
X0071589Y0247193D02*
X0070411Y0247193D01*
X0069297Y0248792D02*
X0072703Y0248792D01*
X0079297Y0248792D02*
X0082703Y0248792D01*
X0083281Y0249369D02*
X0081931Y0248019D01*
X0081200Y0246255D01*
X0081200Y0238745D01*
X0081931Y0236981D01*
X0083281Y0235631D01*
X0085045Y0234900D01*
X0086955Y0234900D01*
X0088719Y0235631D01*
X0090069Y0236981D01*
X0090800Y0238745D01*
X0090800Y0246255D01*
X0090069Y0248019D01*
X0088719Y0249369D01*
X0086955Y0250100D01*
X0085045Y0250100D01*
X0083281Y0249369D01*
X0081589Y0247193D02*
X0080411Y0247193D01*
X0080800Y0245595D02*
X0081200Y0245595D01*
X0081200Y0243996D02*
X0080800Y0243996D01*
X0080800Y0242398D02*
X0081200Y0242398D01*
X0081200Y0240799D02*
X0080800Y0240799D01*
X0080800Y0239201D02*
X0081200Y0239201D01*
X0081674Y0237602D02*
X0080326Y0237602D01*
X0079092Y0236003D02*
X0082908Y0236003D01*
X0089092Y0236003D02*
X0092908Y0236003D01*
X0093281Y0235631D02*
X0095045Y0234900D01*
X0096955Y0234900D01*
X0098719Y0235631D01*
X0100069Y0236981D01*
X0100800Y0238745D01*
X0100800Y0246255D01*
X0100069Y0248019D01*
X0098719Y0249369D01*
X0096955Y0250100D01*
X0095045Y0250100D01*
X0093281Y0249369D01*
X0091931Y0248019D01*
X0091200Y0246255D01*
X0091200Y0238745D01*
X0091931Y0236981D01*
X0093281Y0235631D01*
X0091674Y0237602D02*
X0090326Y0237602D01*
X0090800Y0239201D02*
X0091200Y0239201D01*
X0091200Y0240799D02*
X0090800Y0240799D01*
X0090800Y0242398D02*
X0091200Y0242398D01*
X0091200Y0243996D02*
X0090800Y0243996D01*
X0090800Y0245595D02*
X0091200Y0245595D01*
X0091589Y0247193D02*
X0090411Y0247193D01*
X0089297Y0248792D02*
X0092703Y0248792D01*
X0099297Y0248792D02*
X0107000Y0248792D01*
X0099297Y0248792D01*
X0100411Y0247193D02*
X0107000Y0247193D01*
X0100411Y0247193D01*
X0100800Y0245595D02*
X0107000Y0245595D01*
X0100800Y0245595D01*
X0100800Y0243996D02*
X0107000Y0243996D01*
X0101284Y0243996D01*
X0100800Y0242398D02*
X0107000Y0242398D01*
X0101987Y0242398D01*
X0102690Y0240799D02*
X0107000Y0240799D01*
X0100800Y0240799D01*
X0100800Y0239201D02*
X0107000Y0239201D01*
X0103393Y0239201D01*
X0104097Y0237602D02*
X0107000Y0237602D01*
X0100326Y0237602D01*
X0099092Y0236003D02*
X0107000Y0236003D01*
X0104800Y0236003D01*
X0105503Y0234405D02*
X0107000Y0234405D01*
X0024800Y0234405D01*
X0024800Y0236003D02*
X0033262Y0236003D01*
X0033003Y0236191D02*
X0033589Y0235766D01*
X0034234Y0235437D01*
X0034923Y0235213D01*
X0035638Y0235100D01*
X0035900Y0235100D01*
X0035900Y0242400D01*
X0036100Y0242400D01*
X0036100Y0242600D01*
X0040600Y0242600D01*
X0040600Y0245662D01*
X0040487Y0246377D01*
X0040263Y0247066D01*
X0039934Y0247711D01*
X0039509Y0248297D01*
X0038997Y0248809D01*
X0038411Y0249234D01*
X0037766Y0249563D01*
X0037077Y0249787D01*
X0036362Y0249900D01*
X0036100Y0249900D01*
X0036100Y0242600D01*
X0035900Y0242600D01*
X0035900Y0249900D01*
X0035638Y0249900D01*
X0034923Y0249787D01*
X0034234Y0249563D01*
X0033589Y0249234D01*
X0033003Y0248809D01*
X0032491Y0248297D01*
X0032066Y0247711D01*
X0031737Y0247066D01*
X0031513Y0246377D01*
X0031400Y0245662D01*
X0031400Y0242600D01*
X0035900Y0242600D01*
X0035900Y0242400D01*
X0031400Y0242400D01*
X0031400Y0239338D01*
X0031513Y0238623D01*
X0031737Y0237934D01*
X0032066Y0237289D01*
X0032491Y0236703D01*
X0033003Y0236191D01*
X0031906Y0237602D02*
X0024800Y0237602D01*
X0024800Y0239201D02*
X0031422Y0239201D01*
X0031400Y0240799D02*
X0024800Y0240799D01*
X0024800Y0242398D02*
X0031400Y0242398D01*
X0031400Y0243996D02*
X0024800Y0243996D01*
X0024800Y0245595D02*
X0031400Y0245595D01*
X0031802Y0247193D02*
X0024800Y0247193D01*
X0024800Y0248792D02*
X0032986Y0248792D01*
X0035900Y0248792D02*
X0036100Y0248792D01*
X0036100Y0247193D02*
X0035900Y0247193D01*
X0035900Y0245595D02*
X0036100Y0245595D01*
X0036100Y0243996D02*
X0035900Y0243996D01*
X0035900Y0242398D02*
X0036100Y0242398D01*
X0036100Y0242400D02*
X0036100Y0235100D01*
X0036362Y0235100D01*
X0037077Y0235213D01*
X0037766Y0235437D01*
X0038411Y0235766D01*
X0038997Y0236191D01*
X0039509Y0236703D01*
X0039934Y0237289D01*
X0040263Y0237934D01*
X0040487Y0238623D01*
X0040600Y0239338D01*
X0040600Y0242400D01*
X0036100Y0242400D01*
X0036100Y0240799D02*
X0035900Y0240799D01*
X0035900Y0239201D02*
X0036100Y0239201D01*
X0036100Y0237602D02*
X0035900Y0237602D01*
X0035900Y0236003D02*
X0036100Y0236003D01*
X0038738Y0236003D02*
X0042908Y0236003D01*
X0043281Y0235631D02*
X0045045Y0234900D01*
X0046955Y0234900D01*
X0048719Y0235631D01*
X0050069Y0236981D01*
X0050800Y0238745D01*
X0050800Y0246255D01*
X0050069Y0248019D01*
X0048719Y0249369D01*
X0046955Y0250100D01*
X0045045Y0250100D01*
X0043281Y0249369D01*
X0041931Y0248019D01*
X0041200Y0246255D01*
X0041200Y0238745D01*
X0041931Y0236981D01*
X0043281Y0235631D01*
X0041674Y0237602D02*
X0040094Y0237602D01*
X0040578Y0239201D02*
X0041200Y0239201D01*
X0041200Y0240799D02*
X0040600Y0240799D01*
X0040600Y0242398D02*
X0041200Y0242398D01*
X0041200Y0243996D02*
X0040600Y0243996D01*
X0040600Y0245595D02*
X0041200Y0245595D01*
X0041589Y0247193D02*
X0040198Y0247193D01*
X0039014Y0248792D02*
X0042703Y0248792D01*
X0049297Y0248792D02*
X0052703Y0248792D01*
X0053000Y0250390D02*
X0024800Y0250390D01*
X0024800Y0251989D02*
X0053000Y0251989D01*
X0053000Y0253587D02*
X0024800Y0253587D01*
X0024800Y0255186D02*
X0053000Y0255186D01*
X0053000Y0256784D02*
X0024800Y0256784D01*
X0024800Y0258383D02*
X0053000Y0258383D01*
X0051483Y0259981D02*
X0024800Y0259981D01*
X0024800Y0261580D02*
X0049885Y0261580D01*
X0048286Y0263178D02*
X0024800Y0263178D01*
X0024800Y0232806D02*
X0107000Y0232806D01*
X0106206Y0232806D01*
X0106909Y0231208D02*
X0107000Y0231208D01*
X0024800Y0231208D01*
X0049092Y0236003D02*
X0052908Y0236003D01*
X0051674Y0237602D02*
X0050326Y0237602D01*
X0050800Y0239201D02*
X0051200Y0239201D01*
X0051200Y0240799D02*
X0050800Y0240799D01*
X0050800Y0242398D02*
X0051200Y0242398D01*
X0051200Y0243996D02*
X0050800Y0243996D01*
X0050800Y0245595D02*
X0051200Y0245595D01*
X0051589Y0247193D02*
X0050411Y0247193D01*
X0056292Y0346301D02*
X0107000Y0346301D01*
X0024800Y0346301D01*
X0024800Y0347899D02*
X0107000Y0347899D01*
X0055589Y0347899D01*
X0054886Y0349498D02*
X0107000Y0349498D01*
X0024800Y0349498D01*
X0024800Y0351096D02*
X0107000Y0351096D01*
X0054183Y0351096D01*
X0053480Y0352695D02*
X0107000Y0352695D01*
X0024800Y0352695D01*
X0024800Y0354293D02*
X0107000Y0354293D01*
X0052777Y0354293D01*
X0052074Y0355892D02*
X0107000Y0355892D01*
X0024800Y0355892D01*
X0024800Y0357490D02*
X0107000Y0357490D01*
X0051371Y0357490D01*
X0050668Y0359089D02*
X0107000Y0359089D01*
X0024800Y0359089D01*
X0024800Y0360687D02*
X0107000Y0360687D01*
X0049965Y0360687D01*
X0049262Y0362286D02*
X0107000Y0362286D01*
X0024800Y0362286D01*
X0024800Y0363884D02*
X0107000Y0363884D01*
X0048559Y0363884D01*
X0047856Y0365483D02*
X0107000Y0365483D01*
X0024800Y0365483D01*
X0024800Y0367081D02*
X0107000Y0367081D01*
X0047153Y0367081D01*
X0046450Y0368680D02*
X0107000Y0368680D01*
X0024800Y0368680D01*
X0024800Y0370278D02*
X0107000Y0370278D01*
X0045747Y0370278D01*
X0045044Y0371877D02*
X0107000Y0371877D01*
X0024800Y0371877D01*
X0024800Y0373475D02*
X0107000Y0373475D01*
X0044341Y0373475D01*
X0043638Y0375074D02*
X0107000Y0375074D01*
X0024800Y0375074D01*
X0024800Y0376672D02*
X0107000Y0376672D01*
X0042935Y0376672D01*
X0042232Y0378271D02*
X0107000Y0378271D01*
X0024800Y0378271D01*
X0024800Y0379870D02*
X0107000Y0379870D01*
X0041529Y0379870D01*
X0040826Y0381468D02*
X0107000Y0381468D01*
X0024800Y0381468D01*
X0024800Y0383067D02*
X0107000Y0383067D01*
X0040123Y0383067D01*
X0039420Y0384665D02*
X0107000Y0384665D01*
X0024800Y0384665D01*
X0024800Y0386264D02*
X0107000Y0386264D01*
X0038717Y0386264D01*
X0038014Y0387862D02*
X0107000Y0387862D01*
X0024800Y0387862D01*
X0024800Y0389461D02*
X0053668Y0389461D01*
X0037311Y0389461D01*
X0036608Y0391059D02*
X0053476Y0391059D01*
X0024800Y0391059D01*
X0024800Y0392658D02*
X0053476Y0392658D01*
X0035905Y0392658D01*
X0035202Y0394256D02*
X0059225Y0394256D01*
X0024800Y0394256D01*
X0024800Y0395855D02*
X0053476Y0395855D01*
X0034498Y0395855D01*
X0033795Y0397453D02*
X0053476Y0397453D01*
X0024800Y0397453D01*
X0024800Y0399052D02*
X0053476Y0399052D01*
X0033092Y0399052D01*
X0032389Y0400650D02*
X0053732Y0400650D01*
X0024800Y0400650D01*
X0024800Y0402249D02*
X0063571Y0402249D01*
X0031686Y0402249D01*
X0030983Y0403847D02*
X0063571Y0403847D01*
X0024800Y0403847D01*
X0024800Y0405446D02*
X0063571Y0405446D01*
X0030280Y0405446D01*
X0029577Y0407044D02*
X0063571Y0407044D01*
X0024800Y0407044D01*
X0024800Y0408643D02*
X0054504Y0408643D01*
X0028874Y0408643D01*
X0028171Y0410241D02*
X0053476Y0410241D01*
X0024800Y0410241D01*
X0024800Y0411840D02*
X0053476Y0411840D01*
X0027468Y0411840D01*
X0026765Y0413438D02*
X0053476Y0413438D01*
X0024800Y0413438D01*
X0024800Y0415037D02*
X0059225Y0415037D01*
X0026062Y0415037D01*
X0025359Y0416635D02*
X0053476Y0416635D01*
X0024800Y0416635D01*
X0024800Y0418234D02*
X0053476Y0418234D01*
X0024800Y0418234D01*
X0024800Y0419832D02*
X0053476Y0419832D01*
X0024800Y0419832D01*
X0053476Y0414225D02*
X0053476Y0410039D01*
X0053598Y0409581D01*
X0053835Y0409170D01*
X0054170Y0408835D01*
X0054581Y0408598D01*
X0055039Y0408476D01*
X0059225Y0408476D01*
X0059225Y0414225D01*
X0053476Y0414225D01*
X0059225Y0413438D02*
X0060775Y0413438D01*
X0059225Y0413438D01*
X0059225Y0411840D02*
X0060775Y0411840D01*
X0059225Y0411840D01*
X0059225Y0410241D02*
X0060775Y0410241D01*
X0059225Y0410241D01*
X0059225Y0408643D02*
X0060775Y0408643D01*
X0059225Y0408643D01*
X0060775Y0408476D02*
X0063571Y0408476D01*
X0063571Y0401524D01*
X0060775Y0401524D01*
X0060775Y0395775D01*
X0066524Y0395775D01*
X0066524Y0398571D01*
X0073476Y0398571D01*
X0073476Y0395775D01*
X0079225Y0395775D01*
X0079225Y0394225D01*
X0080775Y0394225D01*
X0086524Y0394225D01*
X0086524Y0390039D01*
X0086402Y0389581D01*
X0086165Y0389170D01*
X0085830Y0388835D01*
X0085419Y0388598D01*
X0084961Y0388476D01*
X0080775Y0388476D01*
X0080775Y0394225D01*
X0079225Y0394225D01*
X0079225Y0388476D01*
X0075039Y0388476D01*
X0074581Y0388598D01*
X0074170Y0388835D01*
X0073835Y0389170D01*
X0073598Y0389581D01*
X0073476Y0390039D01*
X0073476Y0394225D01*
X0079225Y0394225D01*
X0079225Y0388476D01*
X0075039Y0388476D01*
X0074581Y0388598D01*
X0074170Y0388835D01*
X0073835Y0389170D01*
X0073598Y0389581D01*
X0073476Y0390039D01*
X0073476Y0394225D01*
X0079225Y0394225D01*
X0079225Y0395775D01*
X0073476Y0395775D01*
X0073476Y0398571D01*
X0066524Y0398571D01*
X0066524Y0395775D01*
X0060775Y0395775D01*
X0060775Y0394225D01*
X0066524Y0394225D01*
X0066524Y0390039D01*
X0066402Y0389581D01*
X0066165Y0389170D01*
X0065830Y0388835D01*
X0065419Y0388598D01*
X0064961Y0388476D01*
X0060775Y0388476D01*
X0060775Y0394225D01*
X0060775Y0395775D01*
X0059225Y0395775D01*
X0059225Y0401524D01*
X0055039Y0401524D01*
X0054581Y0401402D01*
X0054170Y0401165D01*
X0053835Y0400830D01*
X0053598Y0400419D01*
X0053476Y0399961D01*
X0053476Y0395775D01*
X0059225Y0395775D01*
X0059225Y0401524D01*
X0055039Y0401524D01*
X0054581Y0401402D01*
X0054170Y0401165D01*
X0053835Y0400830D01*
X0053598Y0400419D01*
X0053476Y0399961D01*
X0053476Y0395775D01*
X0059225Y0395775D01*
X0060775Y0395775D01*
X0060775Y0401524D01*
X0063571Y0401524D01*
X0063571Y0408476D01*
X0060775Y0408476D01*
X0060775Y0414225D01*
X0060775Y0408476D01*
X0060775Y0415037D02*
X0079225Y0415037D01*
X0060775Y0415037D01*
X0066524Y0416635D02*
X0073476Y0416635D01*
X0066524Y0416635D01*
X0066524Y0418234D02*
X0073476Y0418234D01*
X0066524Y0418234D01*
X0066524Y0419832D02*
X0073476Y0419832D01*
X0066524Y0419832D01*
X0066524Y0413438D02*
X0073476Y0413438D01*
X0066524Y0413438D01*
X0066524Y0411840D02*
X0073476Y0411840D01*
X0066524Y0411840D01*
X0066524Y0397453D02*
X0073476Y0397453D01*
X0066524Y0397453D01*
X0066524Y0395855D02*
X0073476Y0395855D01*
X0066524Y0395855D01*
X0066524Y0394225D02*
X0060775Y0394225D01*
X0059225Y0394225D01*
X0059225Y0388476D01*
X0055039Y0388476D01*
X0054581Y0388598D01*
X0054170Y0388835D01*
X0053835Y0389170D01*
X0053598Y0389581D01*
X0053476Y0390039D01*
X0053476Y0394225D01*
X0059225Y0394225D01*
X0059225Y0395775D01*
X0059225Y0394225D01*
X0060775Y0394225D01*
X0060775Y0388476D01*
X0064961Y0388476D01*
X0065419Y0388598D01*
X0065830Y0388835D01*
X0066165Y0389170D01*
X0066402Y0389581D01*
X0066524Y0390039D01*
X0066524Y0394225D01*
X0066524Y0392658D02*
X0073476Y0392658D01*
X0066524Y0392658D01*
X0066524Y0391059D02*
X0073476Y0391059D01*
X0066524Y0391059D01*
X0066332Y0389461D02*
X0073668Y0389461D01*
X0066332Y0389461D01*
X0060775Y0389461D02*
X0059225Y0389461D01*
X0060775Y0389461D01*
X0060775Y0391059D02*
X0059225Y0391059D01*
X0060775Y0391059D01*
X0060775Y0392658D02*
X0059225Y0392658D01*
X0060775Y0392658D01*
X0060775Y0394256D02*
X0079225Y0394256D01*
X0060775Y0394256D01*
X0059225Y0394225D02*
X0059225Y0388476D01*
X0055039Y0388476D01*
X0054581Y0388598D01*
X0054170Y0388835D01*
X0053835Y0389170D01*
X0053598Y0389581D01*
X0053476Y0390039D01*
X0053476Y0394225D01*
X0059225Y0394225D01*
X0059225Y0395855D02*
X0060775Y0395855D01*
X0059225Y0395855D01*
X0059225Y0397453D02*
X0060775Y0397453D01*
X0059225Y0397453D01*
X0059225Y0399052D02*
X0060775Y0399052D01*
X0059225Y0399052D01*
X0059225Y0400650D02*
X0060775Y0400650D01*
X0059225Y0400650D01*
X0076429Y0402249D02*
X0107000Y0402249D01*
X0076429Y0402249D01*
X0076429Y0403847D02*
X0107000Y0403847D01*
X0076429Y0403847D01*
X0076429Y0405446D02*
X0107000Y0405446D01*
X0076429Y0405446D01*
X0076429Y0407044D02*
X0107000Y0407044D01*
X0076429Y0407044D01*
X0079225Y0408643D02*
X0080775Y0408643D01*
X0079225Y0408643D01*
X0080775Y0408476D02*
X0084961Y0408476D01*
X0085419Y0408598D01*
X0085830Y0408835D01*
X0086165Y0409170D01*
X0086402Y0409581D01*
X0086524Y0410039D01*
X0086524Y0414225D01*
X0080775Y0414225D01*
X0080775Y0408476D01*
X0080775Y0410241D02*
X0079225Y0410241D01*
X0080775Y0410241D01*
X0080775Y0411840D02*
X0079225Y0411840D01*
X0080775Y0411840D01*
X0080775Y0413438D02*
X0079225Y0413438D01*
X0080775Y0413438D01*
X0080775Y0415037D02*
X0107000Y0415037D01*
X0080775Y0415037D01*
X0085496Y0408643D02*
X0107000Y0408643D01*
X0085496Y0408643D01*
X0086524Y0410241D02*
X0107000Y0410241D01*
X0086524Y0410241D01*
X0086524Y0411840D02*
X0107000Y0411840D01*
X0086524Y0411840D01*
X0086524Y0413438D02*
X0107000Y0413438D01*
X0086524Y0413438D01*
X0086524Y0416635D02*
X0107000Y0416635D01*
X0086524Y0416635D01*
X0086524Y0418234D02*
X0107000Y0418234D01*
X0086524Y0418234D01*
X0086524Y0419832D02*
X0107000Y0419832D01*
X0086524Y0419832D01*
X0084961Y0401524D02*
X0080775Y0401524D01*
X0080775Y0395775D01*
X0086524Y0395775D01*
X0086524Y0399961D01*
X0086402Y0400419D01*
X0086165Y0400830D01*
X0085830Y0401165D01*
X0085419Y0401402D01*
X0084961Y0401524D01*
X0086268Y0400650D02*
X0107000Y0400650D01*
X0086268Y0400650D01*
X0086524Y0399052D02*
X0107000Y0399052D01*
X0086524Y0399052D01*
X0086524Y0397453D02*
X0107000Y0397453D01*
X0086524Y0397453D01*
X0086524Y0395855D02*
X0107000Y0395855D01*
X0086524Y0395855D01*
X0086524Y0392658D02*
X0107000Y0392658D01*
X0086524Y0392658D01*
X0086524Y0391059D02*
X0107000Y0391059D01*
X0086524Y0391059D01*
X0086332Y0389461D02*
X0107000Y0389461D01*
X0086332Y0389461D01*
X0080775Y0389461D02*
X0079225Y0389461D01*
X0080775Y0389461D01*
X0080775Y0391059D02*
X0079225Y0391059D01*
X0080775Y0391059D01*
X0080775Y0392658D02*
X0079225Y0392658D01*
X0080775Y0392658D01*
X0080775Y0394256D02*
X0107000Y0394256D01*
X0080775Y0394256D01*
X0080775Y0395855D02*
X0079225Y0395855D01*
X0080775Y0395855D01*
X0080775Y0397453D02*
X0079225Y0397453D01*
X0080775Y0397453D01*
X0080775Y0399052D02*
X0079225Y0399052D01*
X0080775Y0399052D01*
X0080775Y0400650D02*
X0079225Y0400650D01*
X0080775Y0400650D01*
X0125000Y0125000D02*
X0123500Y0123500D01*
X0123500Y0110000D01*
X0128500Y0105000D01*
X0134500Y0105000D01*
X0123500Y0110000D02*
X0123500Y0096500D01*
X0121000Y0094000D01*
X0097000Y0094000D01*
X0093500Y0083000D02*
X0093500Y0064500D01*
X0105500Y0052500D01*
X0127500Y0052500D01*
X0130500Y0055500D01*
X0070500Y0088000D02*
X0070500Y0110000D01*
X0069000Y0111500D01*
X0063500Y0111500D01*
X0060000Y0115000D01*
X0070500Y0088000D02*
X0064000Y0081500D01*
X0064000Y0076500D01*
X0049500Y0062000D01*
D16*
X0029500Y0057000D02*
X0024500Y0062000D01*
X0024500Y0071000D01*
X0061000Y0107500D01*
X0064000Y0107500D01*
X0071000Y0057000D02*
X0049500Y0057000D01*
X0089250Y0115750D02*
X0085500Y0119500D01*
X0089250Y0115750D02*
X0105750Y0115750D01*
X0105000Y0116500D01*
X0105750Y0115750D02*
X0112500Y0109000D01*
X0112500Y0102500D01*
X0151000Y0092500D02*
X0120500Y0062000D01*
X0105000Y0062000D01*
X0056000Y0242500D02*
X0055500Y0243000D01*
X0055500Y0259500D01*
X0043500Y0271500D01*
X0043500Y0341500D01*
X0128800Y0318133D02*
X0143800Y0333133D01*
X0143800Y0365800D01*
X0155500Y0377500D01*
X0151300Y0374100D01*
X0162500Y0380500D02*
X0155500Y0387500D01*
X0157200Y0386000D01*
X0162500Y0380500D02*
X0162500Y0380000D01*
X0162400Y0379900D01*
X0162400Y0346333D01*
X0128800Y0312733D01*
X0128800Y0294000D01*
X0128800Y0317400D02*
X0128800Y0318133D01*
X0140500Y0334500D02*
X0140500Y0402900D01*
X0151300Y0413700D01*
X0155500Y0417500D01*
M02*
