G75*
%MOIN*%
%OFA0B0*%
%FSLAX25Y25*%
%IPPOS*%
%LPD*%
%AMOC8*
5,1,8,0,0,1.08239X$1,22.5*
%
%ADD10R,0.07087X0.06299*%
%ADD11R,0.06299X0.07087*%
%ADD12R,0.07098X0.06299*%
%ADD13R,0.06299X0.07098*%
%ADD14R,0.06000X0.04000*%
%ADD15R,0.04000X0.06000*%
%ADD16R,0.10236X0.02756*%
%ADD17R,0.10236X0.03150*%
%ADD18R,0.14173X0.03150*%
%ADD19R,0.02362X0.01772*%
%ADD20R,0.02362X0.01575*%
D10*
X0500833Y0016255D03*
X0500833Y0027278D03*
X0655833Y0046255D03*
X0670208Y0046255D03*
X0670208Y0057278D03*
X0655833Y0057278D03*
X0639583Y0185005D03*
X0639583Y0196028D03*
D11*
X0652197Y0033017D03*
X0663220Y0033017D03*
D12*
X0637083Y0027990D03*
X0624583Y0027990D03*
X0612083Y0027990D03*
X0612083Y0016793D03*
X0624583Y0016793D03*
X0637083Y0016793D03*
X0627708Y0184918D03*
X0627708Y0196115D03*
D13*
X0658360Y0018642D03*
X0669557Y0018642D03*
D14*
X0568958Y0059267D03*
X0568958Y0064267D03*
X0568958Y0069267D03*
X0568958Y0074267D03*
X0568958Y0079267D03*
X0568958Y0084267D03*
X0568958Y0089267D03*
X0568958Y0094267D03*
X0568958Y0099267D03*
X0568958Y0104267D03*
X0568958Y0109267D03*
X0568958Y0114267D03*
X0568958Y0119267D03*
X0568958Y0124267D03*
X0568958Y0129267D03*
X0568958Y0134267D03*
X0568958Y0139267D03*
X0568958Y0144267D03*
X0568958Y0149267D03*
X0568958Y0154267D03*
X0498958Y0154267D03*
X0498958Y0149267D03*
X0498958Y0144267D03*
X0498958Y0139267D03*
X0498958Y0134267D03*
X0498958Y0129267D03*
X0498958Y0124267D03*
X0498958Y0119267D03*
X0498958Y0114267D03*
X0498958Y0109267D03*
X0498958Y0104267D03*
X0498958Y0099267D03*
X0498958Y0094267D03*
X0498958Y0089267D03*
X0498958Y0084267D03*
X0498958Y0079267D03*
X0498958Y0074267D03*
X0498958Y0069267D03*
X0498958Y0064267D03*
X0498958Y0059267D03*
D15*
X0518958Y0159267D03*
X0523958Y0159267D03*
X0528958Y0159267D03*
X0533958Y0159267D03*
X0538958Y0159267D03*
X0543958Y0159267D03*
X0548958Y0159267D03*
D16*
X0608825Y0071142D03*
X0608825Y0066142D03*
X0608865Y0061142D03*
X0608825Y0056142D03*
X0608825Y0051142D03*
X0632841Y0051220D03*
X0632841Y0056142D03*
X0632841Y0061142D03*
X0632841Y0066142D03*
X0632841Y0071142D03*
D17*
X0632841Y0082795D03*
X0632841Y0039488D03*
X0608825Y0039488D03*
D18*
X0610794Y0082795D03*
D19*
X0615548Y0188287D03*
X0615548Y0193996D03*
D20*
X0615548Y0191142D03*
X0598619Y0196850D03*
X0598619Y0185433D03*
M02*
