G75*
%MOIN*%
%OFA0B0*%
%FSLAX25Y25*%
%IPPOS*%
%LPD*%
%AMOC8*
5,1,8,0,0,1.08239X$1,22.5*
%
%ADD10C,0.03556*%
%ADD11C,0.06200*%
%ADD12R,0.09099X0.09099*%
%ADD13R,0.08706X0.08706*%
%ADD14C,0.13800*%
%ADD15C,0.04934*%
%ADD16C,0.08200*%
%ADD17C,0.05156*%
%ADD18C,0.04800*%
D10*
X0022000Y0235000D03*
X0026000Y0235000D03*
X0030000Y0235000D03*
X0034000Y0235000D03*
X0038000Y0235000D03*
X0042000Y0235000D03*
X0046000Y0235000D03*
X0050000Y0235000D03*
X0054000Y0235000D03*
X0058000Y0235000D03*
X0062000Y0235000D03*
X0066000Y0235000D03*
X0070000Y0235000D03*
X0074000Y0235000D03*
X0078000Y0235000D03*
X0082000Y0235000D03*
X0086000Y0235000D03*
X0090000Y0235000D03*
X0094000Y0235000D03*
X0098000Y0235000D03*
X0102000Y0235000D03*
X0106000Y0235000D03*
X0110000Y0235000D03*
X0114000Y0235000D03*
X0114000Y0239000D03*
X0114000Y0243000D03*
X0114000Y0247000D03*
X0114000Y0251000D03*
X0114000Y0255000D03*
X0114000Y0259000D03*
X0114000Y0263000D03*
X0114000Y0267000D03*
X0114000Y0271000D03*
X0114000Y0275000D03*
X0114000Y0279000D03*
X0114000Y0283000D03*
X0114000Y0287000D03*
X0114000Y0291000D03*
X0114000Y0295000D03*
X0114000Y0299000D03*
X0114000Y0303000D03*
X0114000Y0307000D03*
X0114000Y0311000D03*
X0114000Y0315000D03*
X0114000Y0319000D03*
X0114000Y0323000D03*
X0114000Y0327000D03*
X0114000Y0331000D03*
X0114000Y0335000D03*
X0114000Y0339000D03*
X0114000Y0343000D03*
X0114000Y0347000D03*
X0114000Y0351000D03*
X0114000Y0355000D03*
X0114000Y0359000D03*
X0114000Y0363000D03*
X0114000Y0367000D03*
X0114000Y0371000D03*
X0114000Y0375000D03*
X0114000Y0379000D03*
X0114000Y0383000D03*
X0114000Y0387000D03*
X0114000Y0391000D03*
X0114000Y0395000D03*
X0114000Y0399000D03*
X0114000Y0403000D03*
X0114000Y0407000D03*
X0114000Y0411000D03*
X0114000Y0415000D03*
X0114000Y0419000D03*
X0114000Y0423000D03*
X0114000Y0427000D03*
X0114000Y0431000D03*
X0119500Y0287000D03*
X0123500Y0287000D03*
X0127500Y0287000D03*
X0131500Y0287000D03*
X0135500Y0287000D03*
X0139500Y0287000D03*
X0143500Y0287000D03*
X0147500Y0287000D03*
X0151500Y0287000D03*
X0155500Y0287000D03*
X0159500Y0287000D03*
X0163500Y0287000D03*
X0167500Y0287000D03*
X0166000Y0235000D03*
X0162000Y0235000D03*
X0158000Y0235000D03*
X0154000Y0235000D03*
X0150000Y0235000D03*
X0146000Y0235000D03*
X0142000Y0235000D03*
X0138000Y0235000D03*
X0134000Y0235000D03*
X0130000Y0235000D03*
X0126000Y0235000D03*
X0122000Y0235000D03*
X0118000Y0235000D03*
D11*
X0122000Y0185200D02*
X0122000Y0179800D01*
X0112000Y0179800D02*
X0112000Y0185200D01*
X0102000Y0185200D02*
X0102000Y0179800D01*
X0093200Y0183500D02*
X0087800Y0183500D01*
X0087800Y0173500D02*
X0093200Y0173500D01*
X0096000Y0249800D02*
X0096000Y0255200D01*
X0086000Y0255200D02*
X0086000Y0249800D01*
X0076000Y0249800D02*
X0076000Y0255200D01*
X0066000Y0255200D02*
X0066000Y0249800D01*
X0056000Y0249800D02*
X0056000Y0255200D01*
X0046000Y0255200D02*
X0046000Y0249800D01*
X0036000Y0249800D02*
X0036000Y0255200D01*
X0051750Y0042200D02*
X0051750Y0036800D01*
X0061750Y0036800D02*
X0061750Y0042200D01*
X0071750Y0042200D02*
X0071750Y0036800D01*
X0081750Y0036800D02*
X0081750Y0042200D01*
X0091750Y0042200D02*
X0091750Y0036800D01*
X0101750Y0036800D02*
X0101750Y0042200D01*
X0114750Y0042200D02*
X0114750Y0036800D01*
X0124750Y0036800D02*
X0124750Y0042200D01*
X0134750Y0042200D02*
X0134750Y0036800D01*
X0154050Y0109250D02*
X0159450Y0109250D01*
X0159450Y0119250D02*
X0154050Y0119250D01*
X0154050Y0129250D02*
X0159450Y0129250D01*
X0159450Y0139250D02*
X0154050Y0139250D01*
X0154050Y0149250D02*
X0159450Y0149250D01*
X0162000Y0179800D02*
X0162000Y0185200D01*
X0152000Y0185200D02*
X0152000Y0179800D01*
X0142000Y0179800D02*
X0142000Y0185200D01*
X0132000Y0185200D02*
X0132000Y0179800D01*
X0152800Y0387500D02*
X0158200Y0387500D01*
X0158200Y0397500D02*
X0152800Y0397500D01*
X0152800Y0407500D02*
X0158200Y0407500D01*
X0158200Y0417500D02*
X0152800Y0417500D01*
X0152800Y0427500D02*
X0158200Y0427500D01*
D12*
X0080000Y0425000D03*
X0080000Y0405000D03*
X0060000Y0405000D03*
X0060000Y0425000D03*
D13*
X0070000Y0415000D03*
D14*
X0033000Y0038000D03*
X0034500Y0205500D03*
X0155000Y0205000D03*
X0156500Y0038000D03*
D15*
X0052000Y0058000D03*
X0052000Y0063000D03*
X0047000Y0063000D03*
X0047000Y0058000D03*
X0042000Y0058000D03*
X0042000Y0063000D03*
X0037000Y0063000D03*
X0037000Y0058000D03*
X0032000Y0058000D03*
X0032000Y0063000D03*
D16*
X0028000Y0182000D03*
X0038000Y0182000D03*
X0048000Y0182000D03*
X0058000Y0182000D03*
X0068000Y0182000D03*
X0078000Y0182000D03*
D17*
X0064000Y0196000D03*
X0048000Y0197000D03*
X0037000Y0223000D03*
X0027000Y0245000D03*
X0027000Y0255000D03*
X0027000Y0265000D03*
X0027000Y0275000D03*
X0055000Y0280000D03*
X0065000Y0280000D03*
X0075000Y0280000D03*
X0105000Y0275000D03*
X0105000Y0265000D03*
X0105000Y0255000D03*
X0105000Y0245000D03*
X0090000Y0360000D03*
X0090000Y0370000D03*
X0090000Y0390000D03*
X0090000Y0400000D03*
X0090000Y0410000D03*
X0090000Y0420000D03*
X0090000Y0428000D03*
X0100000Y0428000D03*
X0100000Y0420000D03*
X0100000Y0410000D03*
X0100000Y0400000D03*
X0100000Y0390000D03*
X0080000Y0370000D03*
X0080000Y0360000D03*
X0070000Y0360000D03*
X0070000Y0370000D03*
X0060000Y0370000D03*
X0060000Y0360000D03*
X0050000Y0360000D03*
X0050000Y0370000D03*
X0043500Y0351500D03*
X0040000Y0360000D03*
X0040000Y0370000D03*
X0040000Y0390000D03*
X0040000Y0400000D03*
X0040000Y0410000D03*
X0040000Y0420000D03*
X0040000Y0428000D03*
X0030000Y0428000D03*
X0030000Y0420000D03*
X0030000Y0410000D03*
X0030000Y0400000D03*
X0030000Y0390000D03*
X0050000Y0390000D03*
X0050000Y0400000D03*
X0050000Y0410000D03*
X0050000Y0420000D03*
X0050000Y0428000D03*
X0139000Y0126500D03*
X0141500Y0104000D03*
X0151000Y0092500D03*
X0130500Y0055500D03*
X0114000Y0081000D03*
X0105000Y0062000D03*
X0099000Y0092000D03*
X0093500Y0083000D03*
X0085500Y0119500D03*
X0064000Y0115000D03*
X0064000Y0107500D03*
X0071000Y0057000D03*
X0112500Y0102500D03*
D18*
X0128800Y0304000D03*
X0128800Y0327400D03*
X0140500Y0344500D03*
M02*
