G75*
%MOIN*%
%OFA0B0*%
%FSLAX25Y25*%
%IPPOS*%
%LPD*%
%AMOC8*
5,1,8,0,0,1.08239X$1,22.5*
%
%ADD10C,0.00000*%
%ADD11R,0.07087X0.06299*%
%ADD12R,0.06299X0.07087*%
%ADD13R,0.07098X0.06299*%
%ADD14R,0.06299X0.07098*%
%ADD15R,0.06000X0.04000*%
%ADD16R,0.04000X0.06000*%
%ADD17R,0.10236X0.02756*%
%ADD18R,0.10236X0.03150*%
%ADD19R,0.14173X0.03150*%
%ADD20R,0.09449X0.09449*%
%ADD21R,0.08858X0.08858*%
%ADD22R,0.02362X0.01772*%
%ADD23R,0.02362X0.01575*%
%ADD24C,0.05600*%
%ADD25C,0.01000*%
%ADD26C,0.04000*%
%ADD27C,0.01600*%
%ADD28C,0.04356*%
D10*
X0483333Y0004267D02*
X0583333Y0004267D01*
X0583333Y0204267D01*
X0483333Y0204267D01*
X0483333Y0004267D01*
X0593333Y0004267D02*
X0678333Y0004267D01*
X0678333Y0124267D01*
X0593333Y0124267D01*
X0593333Y0004267D01*
X0593333Y0149267D02*
X0593333Y0204267D01*
X0658333Y0204267D01*
X0658333Y0149267D01*
X0593333Y0149267D01*
D11*
X0650208Y0184380D03*
X0650208Y0195403D03*
X0655833Y0072278D03*
X0670208Y0072278D03*
X0670208Y0061255D03*
X0655833Y0061255D03*
X0500208Y0024778D03*
X0500208Y0013755D03*
D12*
X0652197Y0048017D03*
X0663220Y0048017D03*
D13*
X0637083Y0027990D03*
X0624583Y0027990D03*
X0612083Y0027990D03*
X0612083Y0016793D03*
X0624583Y0016793D03*
X0637083Y0016793D03*
X0635208Y0184293D03*
X0635208Y0195490D03*
D14*
X0658360Y0033642D03*
X0669557Y0033642D03*
D15*
X0568958Y0059267D03*
X0568958Y0064267D03*
X0568958Y0069267D03*
X0568958Y0074267D03*
X0568958Y0079267D03*
X0568958Y0084267D03*
X0568958Y0089267D03*
X0568958Y0094267D03*
X0568958Y0099267D03*
X0568958Y0104267D03*
X0568958Y0109267D03*
X0568958Y0114267D03*
X0568958Y0119267D03*
X0568958Y0124267D03*
X0568958Y0129267D03*
X0568958Y0134267D03*
X0568958Y0139267D03*
X0568958Y0144267D03*
X0568958Y0149267D03*
X0568958Y0154267D03*
X0498958Y0154267D03*
X0498958Y0149267D03*
X0498958Y0144267D03*
X0498958Y0139267D03*
X0498958Y0134267D03*
X0498958Y0129267D03*
X0498958Y0124267D03*
X0498958Y0119267D03*
X0498958Y0114267D03*
X0498958Y0109267D03*
X0498958Y0104267D03*
X0498958Y0099267D03*
X0498958Y0094267D03*
X0498958Y0089267D03*
X0498958Y0084267D03*
X0498958Y0079267D03*
X0498958Y0074267D03*
X0498958Y0069267D03*
X0498958Y0064267D03*
X0498958Y0059267D03*
D16*
X0518958Y0159267D03*
X0523958Y0159267D03*
X0528958Y0159267D03*
X0533958Y0159267D03*
X0538958Y0159267D03*
X0543958Y0159267D03*
X0548958Y0159267D03*
D17*
X0610700Y0077392D03*
X0610700Y0072392D03*
X0610740Y0067392D03*
X0610700Y0062392D03*
X0610700Y0057392D03*
X0634716Y0057470D03*
X0634716Y0062392D03*
X0634716Y0067392D03*
X0634716Y0072392D03*
X0634716Y0077392D03*
D18*
X0634716Y0089045D03*
X0634716Y0045738D03*
X0610700Y0045738D03*
D19*
X0612669Y0089045D03*
D20*
X0548958Y0174267D03*
X0528958Y0174267D03*
X0528958Y0194267D03*
X0548958Y0194267D03*
D21*
X0538958Y0184267D03*
D22*
X0616173Y0184537D03*
X0616173Y0190246D03*
D23*
X0616173Y0187392D03*
X0599244Y0193100D03*
X0599244Y0181683D03*
D24*
X0627708Y0165192D02*
X0627708Y0159592D01*
X0637708Y0159592D02*
X0637708Y0165192D01*
X0647708Y0165192D02*
X0647708Y0159592D01*
X0642708Y0110817D02*
X0642708Y0105217D01*
X0632708Y0105217D02*
X0632708Y0110817D01*
X0622708Y0110817D02*
X0622708Y0105217D01*
X0612708Y0105217D02*
X0612708Y0110817D01*
X0602708Y0110817D02*
X0602708Y0105217D01*
X0573958Y0022067D02*
X0573958Y0016467D01*
X0563958Y0016467D02*
X0563958Y0022067D01*
X0553958Y0022067D02*
X0553958Y0016467D01*
X0543958Y0016467D02*
X0543958Y0022067D01*
X0533958Y0022067D02*
X0533958Y0016467D01*
X0523958Y0016467D02*
X0523958Y0022067D01*
X0513958Y0022067D02*
X0513958Y0016467D01*
D25*
X0515833Y0011142D02*
X0523958Y0019267D01*
X0512708Y0030517D01*
X0502083Y0030517D01*
X0498958Y0033642D01*
X0498958Y0059267D01*
X0502708Y0059267D01*
X0503958Y0060517D01*
X0503958Y0088017D01*
X0502708Y0089267D01*
X0498958Y0089267D01*
X0556458Y0080517D02*
X0556458Y0031767D01*
X0543958Y0019267D01*
X0553958Y0019267D02*
X0558958Y0024267D01*
X0558958Y0079267D01*
X0563958Y0084267D01*
X0568958Y0084267D01*
X0568958Y0089267D02*
X0565208Y0089267D01*
X0556458Y0080517D01*
X0572083Y0094267D02*
X0573958Y0092392D01*
X0573958Y0060517D01*
X0572708Y0059267D01*
X0568958Y0059267D01*
X0566458Y0064267D02*
X0563958Y0061767D01*
X0563958Y0029267D01*
X0573958Y0019267D01*
X0563958Y0019267D02*
X0561458Y0021767D01*
X0561458Y0064267D01*
X0566458Y0069267D01*
X0568958Y0069267D01*
X0568958Y0064267D02*
X0566458Y0064267D01*
X0598958Y0072392D02*
X0603958Y0067392D01*
X0610740Y0067392D01*
X0616458Y0067392D01*
X0617708Y0066142D01*
X0617708Y0040517D01*
X0612083Y0034892D01*
X0612083Y0027990D01*
X0624583Y0027990D02*
X0624583Y0035517D01*
X0619583Y0040517D01*
X0619583Y0069267D01*
X0616458Y0072392D01*
X0610700Y0072392D01*
X0603958Y0072392D01*
X0601458Y0074892D01*
X0601458Y0093017D01*
X0607083Y0098642D01*
X0611458Y0098642D01*
X0612708Y0099892D01*
X0612708Y0108017D01*
X0602708Y0108017D02*
X0602708Y0097392D01*
X0598958Y0093642D01*
X0598958Y0072392D01*
X0603958Y0078017D02*
X0603958Y0092392D01*
X0607708Y0096142D01*
X0615833Y0096142D01*
X0622708Y0103017D01*
X0622708Y0108017D01*
X0642708Y0108017D02*
X0642708Y0096142D01*
X0661458Y0077392D01*
X0661458Y0062392D01*
X0660322Y0061255D01*
X0655833Y0061255D01*
X0660322Y0061255D02*
X0670208Y0061255D01*
X0670208Y0034293D01*
X0669557Y0033642D01*
X0647057Y0011142D01*
X0607083Y0011142D01*
X0603333Y0014892D01*
X0603333Y0047392D01*
X0610700Y0054759D01*
X0610700Y0057392D01*
X0610700Y0062392D01*
X0634716Y0062392D02*
X0644583Y0062392D01*
X0652083Y0054892D01*
X0652083Y0048130D01*
X0652197Y0048017D01*
X0658360Y0043156D02*
X0663220Y0048017D01*
X0658360Y0043156D02*
X0658360Y0033642D01*
X0637083Y0027990D02*
X0635235Y0027990D01*
X0622083Y0041142D01*
X0622083Y0071767D01*
X0616458Y0077392D01*
X0610700Y0077392D01*
X0604583Y0077392D01*
X0603958Y0078017D01*
X0634716Y0072392D02*
X0655720Y0072392D01*
X0655833Y0072278D01*
X0669557Y0060603D02*
X0670208Y0061255D01*
X0572083Y0094267D02*
X0568958Y0094267D01*
X0565833Y0094267D01*
X0564583Y0095517D01*
X0564583Y0107392D01*
X0566458Y0109267D01*
X0568958Y0109267D01*
X0572083Y0109267D01*
X0573333Y0110517D01*
X0573333Y0151767D01*
X0570833Y0154267D01*
X0568958Y0154267D01*
X0553958Y0154267D01*
X0548958Y0159267D01*
X0543958Y0159267D01*
X0543958Y0164267D01*
X0548958Y0169267D01*
X0548958Y0174267D01*
X0548958Y0194267D01*
X0528958Y0194267D01*
X0528958Y0174267D01*
X0528958Y0169267D01*
X0523958Y0164267D01*
X0523958Y0159267D01*
X0523958Y0157392D01*
X0526458Y0154892D01*
X0532083Y0154892D01*
X0533958Y0156767D01*
X0533958Y0159267D01*
X0523958Y0159267D02*
X0518958Y0159267D01*
X0513958Y0154267D01*
X0498958Y0154267D01*
X0495833Y0154267D01*
X0493958Y0152392D01*
X0493958Y0130517D01*
X0494583Y0129892D01*
X0490208Y0125517D01*
X0490208Y0019267D01*
X0495720Y0013755D01*
X0500208Y0013755D01*
X0508845Y0013755D01*
X0511458Y0011142D01*
X0515833Y0011142D01*
X0507083Y0129267D02*
X0507083Y0135517D01*
X0503333Y0139267D01*
X0498958Y0139267D01*
X0494583Y0129892D02*
X0495208Y0129267D01*
X0498958Y0129267D01*
X0627708Y0162392D02*
X0627708Y0177392D01*
X0620563Y0184537D01*
X0616173Y0184537D01*
X0616173Y0187392D02*
X0604952Y0187392D01*
X0599244Y0193100D01*
X0599244Y0181683D01*
X0616173Y0187392D02*
X0621458Y0187392D01*
X0632083Y0176767D01*
X0632083Y0158017D01*
X0635833Y0154267D01*
X0639583Y0154267D01*
X0647708Y0162392D01*
X0647708Y0181880D01*
X0650208Y0184380D01*
D26*
X0538958Y0184267D02*
X0538958Y0159267D01*
D27*
X0616173Y0190246D02*
X0629964Y0190246D01*
X0635208Y0195490D01*
X0650122Y0195490D01*
X0650208Y0195403D01*
X0637708Y0181793D02*
X0635208Y0184293D01*
X0637708Y0181793D02*
X0637708Y0162392D01*
X0563958Y0114267D02*
X0553958Y0124267D01*
X0498958Y0124267D01*
X0495208Y0124267D01*
X0492708Y0121767D01*
X0492708Y0032278D01*
X0500208Y0024778D01*
X0508447Y0024778D01*
X0513958Y0019267D01*
X0612083Y0016793D02*
X0624583Y0016793D01*
X0637083Y0016793D01*
X0642110Y0016793D01*
X0643333Y0018017D01*
X0643333Y0046142D01*
X0640208Y0049267D01*
X0635833Y0049267D01*
X0634583Y0050517D01*
X0634583Y0057338D01*
X0634716Y0057470D01*
X0629505Y0057470D01*
X0627708Y0059267D01*
X0627708Y0075517D01*
X0629583Y0077392D01*
X0634716Y0077392D01*
X0635833Y0077392D01*
X0641458Y0083017D01*
X0641458Y0091767D01*
X0632708Y0100517D01*
X0632708Y0108017D01*
X0632708Y0113017D01*
X0636458Y0116767D01*
X0643958Y0116767D01*
X0648333Y0112392D01*
X0648333Y0097392D01*
X0670208Y0075517D01*
X0670208Y0072278D01*
X0635208Y0077392D02*
X0634716Y0077392D01*
X0568958Y0114267D02*
X0563958Y0114267D01*
D28*
X0507083Y0129267D03*
M02*
