%
M48
M72
T01C0.02000
T02C0.02400
T03C0.02756
T04C0.03600
T05C0.05906
T06C0.06299
T07C0.13000
%
T01
X29500Y57000
X29500Y62000
X34500Y62000
X34500Y57000
X39500Y57000
X39500Y62000
X44500Y62000
X44500Y57000
X49500Y57000
X49500Y62000
T02
X128800Y294000
X128800Y317400
X140500Y334500
T03
X139500Y277000
X135500Y277000
X131500Y277000
X127500Y277000
X123500Y277000
X119500Y277000
X114000Y277000
X114000Y273000
X114000Y269000
X114000Y265000
X114000Y261000
X114000Y257000
X114000Y253000
X114000Y249000
X114000Y245000
X114000Y241000
X114000Y237000
X114000Y233000
X114000Y229000
X114000Y225000
X118000Y225000
X122000Y225000
X126000Y225000
X130000Y225000
X134000Y225000
X138000Y225000
X142000Y225000
X146000Y225000
X150000Y225000
X154000Y225000
X158000Y225000
X162000Y225000
X166000Y225000
X167500Y277000
X163500Y277000
X159500Y277000
X155500Y277000
X151500Y277000
X147500Y277000
X143500Y277000
X114000Y281000
X114000Y285000
X114000Y289000
X114000Y293000
X114000Y297000
X114000Y301000
X114000Y305000
X114000Y309000
X114000Y313000
X114000Y317000
X114000Y321000
X114000Y325000
X114000Y329000
X114000Y333000
X114000Y337000
X114000Y341000
X114000Y345000
X114000Y349000
X114000Y353000
X114000Y357000
X114000Y361000
X114000Y365000
X114000Y369000
X114000Y373000
X114000Y377000
X114000Y381000
X114000Y385000
X114000Y389000
X114000Y393000
X114000Y397000
X114000Y401000
X114000Y405000
X114000Y409000
X114000Y413000
X114000Y417000
X114000Y421000
X100000Y418000
X100000Y410000
X100000Y400000
X100000Y390000
X100000Y380000
X90000Y380000
X90000Y390000
X90000Y400000
X90000Y410000
X90000Y418000
X90000Y360000
X90000Y350000
X80000Y350000
X80000Y360000
X70000Y360000
X70000Y350000
X60000Y350000
X60000Y360000
X50000Y360000
X50000Y350000
X43500Y341500
X40000Y350000
X40000Y360000
X40000Y380000
X40000Y390000
X40000Y400000
X40000Y410000
X40000Y418000
X30000Y418000
X30000Y410000
X30000Y400000
X30000Y390000
X30000Y380000
X50000Y380000
X50000Y390000
X50000Y400000
X50000Y410000
X50000Y418000
X55000Y270000
X65000Y270000
X75000Y270000
X74000Y225000
X70000Y225000
X66000Y225000
X62000Y225000
X58000Y225000
X54000Y225000
X50000Y225000
X46000Y225000
X42000Y225000
X38000Y225000
X34000Y225000
X30000Y225000
X27000Y235000
X27000Y245000
X27000Y255000
X27000Y265000
X26000Y225000
X22000Y225000
X60000Y115000
X64000Y107500
X64000Y81500
X71000Y57000
X93500Y83000
X97000Y94000
X85500Y119500
X105000Y62000
X112500Y102500
X125000Y125000
X134500Y105000
X151000Y92500
X130500Y55500
X110000Y225000
X106000Y225000
X102000Y225000
X98000Y225000
X94000Y225000
X90000Y225000
X86000Y225000
X82000Y225000
X78000Y225000
X105000Y235000
X105000Y245000
X105000Y255000
X105000Y265000
T04
X96000Y242500
X86000Y242500
X76000Y242500
X66000Y242500
X56000Y242500
X46000Y242500
X36000Y242500
X38750Y182500
X48750Y182500
X58750Y182500
X68750Y182500
X78750Y182500
X88750Y182500
X102000Y182500
X112000Y182500
X122000Y182500
X132000Y182500
X142000Y182500
X152000Y182500
X162000Y182500
X156750Y149250
X156750Y139250
X156750Y129250
X156750Y119250
X156750Y109250
X134750Y39500
X124750Y39500
X114750Y39500
X101750Y39500
X91750Y39500
X81750Y39500
X71750Y39500
X61750Y39500
X51750Y39500
X28750Y182500
X155500Y377500
X155500Y387500
X155500Y397500
X155500Y407500
X155500Y417500
T05
X70000Y405000
T06
X80000Y395000
X80000Y415000
X60000Y415000
X60000Y395000
T07
X34500Y205500
X33000Y38000
X155000Y205000
X156500Y38000
M30
