G75*
%MOIN*%
%OFA0B0*%
%FSLAX25Y25*%
%IPPOS*%
%LPD*%
%AMOC8*
5,1,8,0,0,1.08239X$1,22.5*
%
%ADD10C,0.00600*%
%ADD11C,0.00500*%
D10*
X0509958Y0009267D02*
X0512958Y0009267D01*
X0512958Y0008767D01*
X0514958Y0008767D01*
X0514958Y0009267D01*
X0517958Y0009267D01*
X0517958Y0009767D01*
X0519958Y0009767D01*
X0519958Y0009267D01*
X0522958Y0009267D01*
X0522958Y0008767D01*
X0524958Y0008767D01*
X0524958Y0009267D01*
X0527958Y0009267D01*
X0527958Y0009767D01*
X0529958Y0009767D01*
X0529958Y0009267D01*
X0532958Y0009267D01*
X0532958Y0008767D01*
X0534958Y0008767D01*
X0534958Y0009267D01*
X0537958Y0009267D01*
X0537958Y0009767D01*
X0539958Y0009767D01*
X0539958Y0009267D01*
X0542958Y0009267D01*
X0542958Y0008767D01*
X0544958Y0008767D01*
X0544958Y0009267D01*
X0547958Y0009267D01*
X0547958Y0009767D01*
X0549958Y0009767D01*
X0549958Y0009267D01*
X0552958Y0009267D01*
X0552958Y0008767D01*
X0554958Y0008767D01*
X0554958Y0009267D01*
X0557958Y0009267D01*
X0557958Y0009767D01*
X0559958Y0009767D01*
X0559958Y0009267D01*
X0562958Y0009267D01*
X0562958Y0008767D01*
X0564958Y0008767D01*
X0564958Y0009267D01*
X0567958Y0009267D01*
X0567958Y0009767D01*
X0569958Y0009767D01*
X0569958Y0009267D01*
X0572958Y0009267D01*
X0572958Y0008767D01*
X0574958Y0008767D01*
X0574958Y0009267D01*
X0577958Y0009267D01*
X0577958Y0012267D01*
X0570458Y0012267D01*
X0569958Y0012767D01*
X0569958Y0025267D01*
X0567958Y0025267D01*
X0567958Y0012767D01*
X0567458Y0012267D01*
X0559958Y0012267D01*
X0559958Y0025267D01*
X0557958Y0025267D01*
X0557958Y0012267D01*
X0549958Y0012267D01*
X0547958Y0012267D01*
X0539958Y0012267D01*
X0537958Y0012267D01*
X0529958Y0012267D01*
X0527958Y0012267D01*
X0520458Y0012267D01*
X0519958Y0012767D01*
X0519958Y0025267D01*
X0517958Y0025267D01*
X0517958Y0012767D01*
X0517458Y0012267D01*
X0509958Y0012267D01*
X0509958Y0025267D01*
X0509958Y0026267D01*
X0511458Y0026267D01*
X0511458Y0025267D01*
X0511458Y0024267D01*
X0516458Y0024267D01*
X0516458Y0025267D01*
X0517958Y0025267D01*
X0516458Y0025267D02*
X0516458Y0026267D01*
X0521458Y0026267D01*
X0521458Y0025267D01*
X0519958Y0025267D01*
X0521458Y0025267D02*
X0521458Y0024267D01*
X0526458Y0024267D01*
X0526458Y0025267D01*
X0527958Y0025267D01*
X0527958Y0012267D01*
X0529958Y0012267D02*
X0529958Y0025267D01*
X0527958Y0025267D01*
X0526458Y0025267D02*
X0526458Y0026267D01*
X0531458Y0026267D01*
X0531458Y0025267D01*
X0529958Y0025267D01*
X0531458Y0025267D02*
X0531458Y0024267D01*
X0536458Y0024267D01*
X0536458Y0025267D01*
X0537958Y0025267D01*
X0537958Y0012267D01*
X0539958Y0012267D02*
X0539958Y0025267D01*
X0537958Y0025267D01*
X0536458Y0025267D02*
X0536458Y0026267D01*
X0541458Y0026267D01*
X0541458Y0025267D01*
X0539958Y0025267D01*
X0541458Y0025267D02*
X0541458Y0024267D01*
X0546458Y0024267D01*
X0546458Y0025267D01*
X0547958Y0025267D01*
X0549958Y0025267D01*
X0551458Y0025267D01*
X0551458Y0024267D01*
X0556458Y0024267D01*
X0556458Y0025267D01*
X0557958Y0025267D01*
X0556458Y0025267D02*
X0556458Y0026267D01*
X0561458Y0026267D01*
X0561458Y0025267D01*
X0559958Y0025267D01*
X0561458Y0025267D02*
X0561458Y0024267D01*
X0566458Y0024267D01*
X0566458Y0025267D01*
X0567958Y0025267D01*
X0566458Y0025267D02*
X0566458Y0026267D01*
X0571458Y0026267D01*
X0571458Y0025267D01*
X0569958Y0025267D01*
X0571458Y0025267D02*
X0571458Y0024267D01*
X0576458Y0024267D01*
X0576458Y0025267D01*
X0577958Y0025267D01*
X0577958Y0026267D01*
X0576458Y0026267D01*
X0576458Y0025267D01*
X0577958Y0025267D02*
X0577958Y0012267D01*
X0569958Y0012767D02*
X0568958Y0013767D01*
X0567958Y0012767D01*
X0559958Y0012267D02*
X0557958Y0012267D01*
X0549958Y0012267D02*
X0549958Y0025267D01*
X0551458Y0025267D02*
X0551458Y0026267D01*
X0546458Y0026267D01*
X0546458Y0025267D01*
X0547958Y0025267D02*
X0547958Y0012267D01*
X0519958Y0012767D02*
X0518958Y0013767D01*
X0517958Y0012767D01*
X0509958Y0012267D02*
X0509958Y0009267D01*
X0509958Y0025267D02*
X0511458Y0025267D01*
X0509958Y0026267D02*
X0509958Y0028267D01*
X0517958Y0028267D01*
X0517958Y0027767D01*
X0519958Y0027767D01*
X0519958Y0028267D01*
X0527958Y0028267D01*
X0527958Y0027767D01*
X0529958Y0027767D01*
X0529958Y0028267D01*
X0537958Y0028267D01*
X0537958Y0027767D01*
X0539958Y0027767D01*
X0539958Y0028267D01*
X0547958Y0028267D01*
X0547958Y0027767D01*
X0549958Y0027767D01*
X0549958Y0028267D01*
X0557958Y0028267D01*
X0557958Y0027767D01*
X0559958Y0027767D01*
X0559958Y0028267D01*
X0567958Y0028267D01*
X0567958Y0027767D01*
X0569958Y0027767D01*
X0569958Y0028267D01*
X0577958Y0028267D01*
X0577958Y0026267D01*
X0598708Y0099017D02*
X0598708Y0101017D01*
X0598708Y0102017D01*
X0600208Y0102017D01*
X0600208Y0103017D01*
X0605208Y0103017D01*
X0605208Y0102017D01*
X0606708Y0102017D01*
X0606708Y0114517D01*
X0607708Y0113517D01*
X0608708Y0114517D01*
X0608708Y0102017D01*
X0610208Y0102017D01*
X0610208Y0103017D01*
X0615208Y0103017D01*
X0615208Y0102017D01*
X0616708Y0102017D01*
X0616708Y0115017D01*
X0618708Y0115017D01*
X0626708Y0115017D01*
X0628708Y0115017D01*
X0636208Y0115017D01*
X0636708Y0114517D01*
X0636708Y0102017D01*
X0638708Y0102017D01*
X0638708Y0114517D01*
X0639208Y0115017D01*
X0646708Y0115017D01*
X0646708Y0102017D01*
X0646708Y0101017D01*
X0645208Y0101017D01*
X0645208Y0102017D01*
X0645208Y0103017D01*
X0640208Y0103017D01*
X0640208Y0102017D01*
X0638708Y0102017D01*
X0640208Y0102017D02*
X0640208Y0101017D01*
X0635208Y0101017D01*
X0635208Y0102017D01*
X0636708Y0102017D01*
X0635208Y0102017D02*
X0635208Y0103017D01*
X0630208Y0103017D01*
X0630208Y0102017D01*
X0628708Y0102017D01*
X0626708Y0102017D01*
X0625208Y0102017D01*
X0625208Y0103017D01*
X0620208Y0103017D01*
X0620208Y0102017D01*
X0618708Y0102017D01*
X0618708Y0115017D01*
X0616708Y0115017D02*
X0609208Y0115017D01*
X0608708Y0114517D01*
X0606708Y0114517D02*
X0606208Y0115017D01*
X0598708Y0115017D01*
X0598708Y0102017D01*
X0598708Y0101017D02*
X0600208Y0101017D01*
X0600208Y0102017D01*
X0598708Y0099017D02*
X0606708Y0099017D01*
X0606708Y0099517D01*
X0608708Y0099517D01*
X0608708Y0099017D01*
X0616708Y0099017D01*
X0616708Y0099517D01*
X0618708Y0099517D01*
X0618708Y0099017D01*
X0626708Y0099017D01*
X0626708Y0099517D01*
X0628708Y0099517D01*
X0628708Y0099017D01*
X0636708Y0099017D01*
X0636708Y0099517D01*
X0638708Y0099517D01*
X0638708Y0099017D01*
X0646708Y0099017D01*
X0646708Y0101017D01*
X0646708Y0102017D02*
X0645208Y0102017D01*
X0630208Y0102017D02*
X0630208Y0101017D01*
X0625208Y0101017D01*
X0625208Y0102017D01*
X0626708Y0102017D02*
X0626708Y0115017D01*
X0628708Y0115017D02*
X0628708Y0102017D01*
X0620208Y0102017D02*
X0620208Y0101017D01*
X0615208Y0101017D01*
X0615208Y0102017D01*
X0616708Y0102017D02*
X0618708Y0102017D01*
X0610208Y0102017D02*
X0610208Y0101017D01*
X0605208Y0101017D01*
X0605208Y0102017D01*
X0606708Y0102017D02*
X0608708Y0102017D01*
X0598708Y0115017D02*
X0598708Y0118017D01*
X0601708Y0118017D01*
X0601708Y0118517D01*
X0603708Y0118517D01*
X0603708Y0118017D01*
X0606708Y0118017D01*
X0606708Y0117517D01*
X0608708Y0117517D01*
X0608708Y0118017D01*
X0611708Y0118017D01*
X0611708Y0118517D01*
X0613708Y0118517D01*
X0613708Y0118017D01*
X0616708Y0118017D01*
X0616708Y0117517D01*
X0618708Y0117517D01*
X0618708Y0118017D01*
X0621708Y0118017D01*
X0621708Y0118517D01*
X0623708Y0118517D01*
X0623708Y0118017D01*
X0626708Y0118017D01*
X0626708Y0117517D01*
X0628708Y0117517D01*
X0628708Y0118017D01*
X0631708Y0118017D01*
X0631708Y0118517D01*
X0633708Y0118517D01*
X0633708Y0118017D01*
X0636708Y0118017D01*
X0636708Y0117517D01*
X0638708Y0117517D01*
X0638708Y0118017D01*
X0641708Y0118017D01*
X0641708Y0118517D01*
X0643708Y0118517D01*
X0643708Y0118017D01*
X0646708Y0118017D01*
X0646708Y0115017D01*
X0638708Y0114517D02*
X0637708Y0113517D01*
X0636708Y0114517D01*
X0633708Y0153392D02*
X0641708Y0153392D01*
X0641708Y0153892D01*
X0643708Y0153892D01*
X0643708Y0153392D01*
X0651708Y0153392D01*
X0651708Y0155392D01*
X0651708Y0156392D01*
X0650208Y0156392D01*
X0650208Y0157392D01*
X0645208Y0157392D01*
X0645208Y0156392D01*
X0643708Y0156392D01*
X0643708Y0168892D01*
X0644208Y0169392D01*
X0651708Y0169392D01*
X0651708Y0156392D01*
X0651708Y0155392D02*
X0650208Y0155392D01*
X0650208Y0156392D01*
X0645208Y0156392D02*
X0645208Y0155392D01*
X0640208Y0155392D01*
X0640208Y0156392D01*
X0641708Y0156392D01*
X0641708Y0168892D01*
X0642708Y0167892D01*
X0643708Y0168892D01*
X0641708Y0168892D02*
X0641208Y0169392D01*
X0634208Y0169392D01*
X0633708Y0168892D01*
X0633708Y0156392D01*
X0635208Y0156392D01*
X0635208Y0157392D01*
X0640208Y0157392D01*
X0640208Y0156392D01*
X0641708Y0156392D02*
X0643708Y0156392D01*
X0635208Y0156392D02*
X0635208Y0155392D01*
X0630208Y0155392D01*
X0630208Y0156392D01*
X0631708Y0156392D01*
X0631708Y0168892D01*
X0632708Y0167892D01*
X0633708Y0168892D01*
X0631708Y0168892D02*
X0631208Y0169392D01*
X0623708Y0169392D01*
X0623708Y0156392D01*
X0623708Y0155392D01*
X0625208Y0155392D01*
X0625208Y0156392D01*
X0625208Y0157392D01*
X0630208Y0157392D01*
X0630208Y0156392D01*
X0631708Y0156392D02*
X0633708Y0156392D01*
X0625208Y0156392D02*
X0623708Y0156392D01*
X0623708Y0155392D02*
X0623708Y0153392D01*
X0631708Y0153392D01*
X0631708Y0153892D01*
X0633708Y0153892D01*
X0633708Y0153392D01*
X0623708Y0169392D02*
X0623708Y0172392D01*
X0626708Y0172392D01*
X0626708Y0172892D01*
X0628708Y0172892D01*
X0628708Y0172392D01*
X0631708Y0172392D01*
X0631708Y0171892D01*
X0633708Y0171892D01*
X0633708Y0172392D01*
X0636708Y0172392D01*
X0636708Y0172892D01*
X0638708Y0172892D01*
X0638708Y0172392D01*
X0641708Y0172392D01*
X0641708Y0171892D01*
X0643708Y0171892D01*
X0643708Y0172392D01*
X0646708Y0172392D01*
X0646708Y0172892D01*
X0648708Y0172892D01*
X0648708Y0172392D01*
X0651708Y0172392D01*
X0651708Y0169392D01*
D11*
X0629458Y0168610D02*
X0629458Y0166342D01*
X0629458Y0167476D02*
X0626055Y0167476D01*
X0627190Y0166342D01*
X0604458Y0114235D02*
X0604458Y0111967D01*
X0604458Y0113101D02*
X0601055Y0113101D01*
X0602190Y0111967D01*
X0575608Y0014494D02*
X0575608Y0012226D01*
X0575608Y0013360D02*
X0572205Y0013360D01*
X0573340Y0012226D01*
M02*
